<?xml version="1.0" standalone="no"?>
<!DOCTYPE svg PUBLIC "-//W3C//DTD SVG 1.1//EN" "http://www.w3.org/Graphics/SVG/1.1/DTD/svg11.dtd" >
<svg xmlns="http://www.w3.org/2000/svg">
<metadata>
This is a custom SVG webfont generated by Font Squirrel.
Copyright   : La tipografa Hospital es una tipografa diseada a partir del estudio de sealtica orientado a los hospitales Es de uso libre y se permite su modificacin
Designer    : Sofa Savoy Anguita  Gley Riquelme Van
Foundry     : PYRS Fontlab Ltd  Made with FontLab
</metadata>
<defs>
<font id="HospitalBlack" horiz-adv-x="1079" >
<font-face units-per-em="2048" ascent="1530" descent="-518" />
<missing-glyph horiz-adv-x="368" />
<glyph unicode=" "  horiz-adv-x="368" />
<glyph unicode="&#x09;" horiz-adv-x="368" />
<glyph unicode="&#xa0;" horiz-adv-x="368" />
<glyph unicode="!" horiz-adv-x="499" d="M143 821v369h252v-369q0 -147 -28 -553h-193q-31 381 -31 553zM152 -43v213h235v-213h-235z" />
<glyph unicode="&#x22;" horiz-adv-x="880" d="M109 920q63 84 63 184q0 72 -39 151h279q31 -88 16 -190q-35 -190 -211 -256zM463 920q63 80 63 184q0 76 -37 151h277q35 -96 16 -190q-31 -190 -209 -256z" />
<glyph unicode="#" horiz-adv-x="1361" d="M158 287v219h157l33 137h-108v219h161l78 328h256l-78 -328h193l80 328h256l-78 -328h96v-219h-149l-33 -137h102v-219h-153l-78 -330h-256l78 330h-195l-78 -330h-256l78 330h-106zM573 506h193l33 137h-195z" />
<glyph unicode="$" horiz-adv-x="1208" d="M119 180l178 150q98 -104 203 -137v288q-74 18 -125 39t-105.5 59.5t-83 101t-28.5 146.5q0 158 94 253.5t248 119.5v156h237v-158q207 -37 324 -176l-158 -162q-86 70 -166 96v-292q74 -18 127.5 -40t109.5 -62t86 -106.5t30 -156.5q0 -160 -98.5 -245t-254.5 -107v-187 h-237v189q-227 43 -381 231zM418 829q0 -66 82 -102v234q-82 -30 -82 -132zM737 184q92 20 92 117q0 84 -88 117l-4 2v-236z" />
<glyph unicode="%" horiz-adv-x="1378" d="M94 932q0 72 10.5 126t36 102t76.5 74t125 26t125 -26t75.5 -74t35 -101t10.5 -127q0 -72 -10.5 -126t-35 -102.5t-75.5 -73t-125 -24.5q-98 0 -155.5 47t-75 114t-17.5 165zM248 -240l624 1596h258l-626 -1596h-256zM266 887q0 -8 1 -23.5t3 -25t5.5 -22.5t9.5 -20.5 t13 -15.5t18.5 -11t25.5 -3q27 0 43 10t22.5 32.5t7.5 37t1 47.5v72q0 92 -23 116q-18 18 -51 19q-14 0 -25.5 -3t-18.5 -11.5t-13 -15.5t-9.5 -20.5t-5.5 -22.5t-3 -24.5t-1 -23.5v-26v-21v-21v-24zM788 184.5q0 98.5 17.5 165t75 113.5t156 47t155.5 -47t74.5 -113.5 t17.5 -165t-17.5 -165t-74.5 -113.5t-155.5 -47t-156 47t-75 113.5t-17.5 165zM963 154q0 -94 20 -117q18 -20 53 -21q14 0 25.5 3.5t18.5 11.5t13.5 15t9.5 20.5l5 22.5t3 24.5t1 23.5v26v21v21v24q0 8 -1 24.5t-3 26t-5 22.5t-9.5 20.5t-13.5 15.5t-18 11t-26 3 q-27 0 -43 -10t-22 -33.5t-7 -38t-1 -47.5v-69z" />
<glyph unicode="&#x26;" horiz-adv-x="1228" d="M86 303q0 203 211 346q-123 129 -123 279q0 131 109.5 205.5t242.5 74.5q143 0 245.5 -83t102.5 -222q0 -178 -192 -307l170 -201q43 45 88 211l221 -53q-23 -182 -149 -350l209 -246h-326l-70 86q-150 -104 -325 -104q-164 0 -289 102t-125 262zM338 303q0 -55 48 -93 t114 -38q96 0 174 51l-213 248q-123 -84 -123 -168zM428 905q0 -23 26.5 -63.5t55.5 -69.5q111 68 111 133q0 72 -95 72q-98 0 -98 -72z" />
<glyph unicode="'" horiz-adv-x="542" d="M109 918q53 55 70.5 94t17.5 96q0 47 -50 147h277q27 -74 27 -141q0 -211 -222 -305z" />
<glyph unicode="(" horiz-adv-x="835" d="M170 555q0 133 18.5 269.5t83 288t166.5 214.5q86 51 228 43v-170q-72 -6 -123 -71.5t-76 -170t-35 -203t-10 -200.5q0 -104 10 -202.5t35 -203t76 -170t123 -71.5v-170q-141 -8 -228 45q-102 63 -166.5 215t-83 288t-18.5 269z" />
<glyph unicode=")" horiz-adv-x="835" d="M170 -92q72 6 123 71.5t75.5 170t35 203t10.5 202.5q0 102 -10.5 200.5t-35 203t-75.5 170t-123 71.5v170q141 8 227 -43q78 -49 135.5 -145.5t84 -213t38 -218t11.5 -195.5t-11.5 -195.5t-38 -218t-84 -213t-135.5 -145.5q-86 -53 -227 -45v170z" />
<glyph unicode="*" horiz-adv-x="897" d="M68 952l86 187l186 -78v207h213v-209l192 80l84 -187l-213 -88l156 -198l-170 -121l-153 196l-156 -196l-170 121l158 198z" />
<glyph unicode="+" horiz-adv-x="1040" d="M119 346v219h293v291h217v-291h293v-219h-293v-293h-217v293h-293z" />
<glyph unicode="," horiz-adv-x="528" d="M51 -334q43 324 119 527h260q-117 -348 -201 -527h-178z" />
<glyph unicode="-" horiz-adv-x="1212" d="M205 346v219h803v-219h-803z" />
<glyph unicode="." horiz-adv-x="454" d="M98 -43v236h258v-236h-258z" />
<glyph unicode="/" horiz-adv-x="1138" d="M150 -240l624 1596h256l-624 -1596h-256z" />
<glyph unicode="0" horiz-adv-x="1101" d="M129 334v479q0 45 8 91t36 102.5t72 99.5t122.5 72.5t183.5 29.5q102 0 182 -29.5t124 -72.5t71.5 -99.5t36 -102.5t8.5 -91v-479q0 -45 -8.5 -91t-36 -102.5t-71.5 -99.5t-124 -72.5t-182 -29.5q-106 0 -186 29.5t-123 72.5t-70 100.5t-35 102.5t-8 90zM381 362 q2 -39 8 -66.5t22.5 -59t51.5 -48t88 -16.5q164 0 168 190v424q-4 190 -168 191q-53 0 -88 -17.5t-51.5 -48t-22.5 -59.5t-8 -66v-424z" />
<glyph unicode="1" horiz-adv-x="794" d="M109 754l321 438h225v-1235h-237v819l-123 -151z" />
<glyph unicode="2" horiz-adv-x="1103" d="M129 1012q158 197 377 196q201 0 328 -91t127 -283q0 -72 -39 -150t-77 -123t-102 -112l-247 -256h479v-236h-842v211l324 336q10 10 50 51t67.5 70.5t61.5 70.5t52.5 77t18.5 65q0 139 -197 139q-96 0 -211 -96z" />
<glyph unicode="3" horiz-adv-x="1122" d="M129 143l168 138q59 -61 115.5 -86t132.5 -25q193 0 192.5 157.5t-159.5 157.5h-172v228h163q147 0 148 131q0 129 -166 129q-129 0 -236 -92l-170 131q96 115 187.5 155.5t218.5 40.5q176 0 299 -96t123 -264q0 -145 -86 -244q106 -109 106 -285q0 -190 -126 -285 t-324 -95q-141 0 -235.5 43.5t-178.5 160.5zM293 -43h485h-485z" />
<glyph unicode="4" horiz-adv-x="1071" d="M109 295v197l503 700h240v-664h111v-233h-111v-338h-240v338h-503zM422 528h190v269z" />
<glyph unicode="5" horiz-adv-x="1112" d="M129 145l168 138q72 -72 120 -92.5t138 -20.5q96 0 135 42t39 138q0 104 -38 144.5t-142 40.5q-121 0 -221 -93l-168 103v645h755v-236h-501v-202q70 14 145 14q424 0 424 -416q0 -199 -105.5 -305t-318.5 -106q-152 0 -246 40.5t-184 165.5z" />
<glyph unicode="6" horiz-adv-x="1101" d="M129 295v518q0 188 114.5 291.5t297.5 103.5q143 0 236 -28.5t175 -100.5l-129 -157q-117 72 -239 71q-37 0 -67 -4t-50 -16l-36 -22q-15 -9 -24.5 -29.5t-15.5 -31.5t-8 -39t-2 -36v-39v-37q27 10 69 16.5t70 6.5l27 2q426 0 426 -420q0 -406 -438 -405q-170 0 -288 96 t-118 260zM381 346q0 -92 36 -135t126 -43q96 0 135 42t39 136q0 106 -34 147.5t-136 41.5q-94 0 -130 -44.5t-36 -144.5z" />
<glyph unicode="7" horiz-adv-x="1064" d="M109 -43l557 997h-555v236h845v-199l-577 -1034h-270z" />
<glyph unicode="8" horiz-adv-x="1105" d="M129 319q0 174 104 285q-88 96 -88 240q0 170 113 267t289 97q180 0 294.5 -96t114.5 -268q0 -143 -86 -242q106 -113 107 -283q0 -178 -122 -279t-306 -101t-302 101t-118 279zM381 324q0 -154 160 -154q180 0 180 149q0 170 -172 170q-168 1 -168 -165zM401 844 q0 -70 36 -99.5t114 -29.5t113.5 28.5t35.5 98.5q0 135 -143 135q-156 0 -156 -133z" />
<glyph unicode="9" horiz-adv-x="1101" d="M129 803q0 408 436 407q170 0 289 -97t119 -261v-518q0 -188 -115 -291.5t-299 -103.5q-152 0 -240 28.5t-169 100.5l129 159q104 -74 239 -73q41 0 73 8t53.5 15t36.5 29.5t22.5 33t11.5 42t5 40t0 45t-1 41.5q-27 -10 -68 -16.5t-69 -6.5l-29 -2q-424 0 -424 420z M383 801q0 -106 34 -147.5t136 -41.5q94 0 130 44t36 145q0 92 -36 135t-126 43q-96 0 -135 -42t-39 -136z" />
<glyph unicode=":" horiz-adv-x="454" d="M98 -43v236h258v-236h-258zM98 494v235h258v-235h-258z" />
<glyph unicode=";" horiz-adv-x="528" d="M51 -334q43 324 119 527h260q-117 -348 -201 -527h-178zM170 494v235h260v-235h-260z" />
<glyph unicode="&#x3c;" horiz-adv-x="983" d="M139 340v225l715 299v-258l-401 -153l401 -150v-260z" />
<glyph unicode="=" horiz-adv-x="1202" d="M201 145v220h800v-220h-800zM201 426v219h800v-219h-800z" />
<glyph unicode="&#x3e;" horiz-adv-x="983" d="M129 43v260l399 150l-399 153v258l715 -299v-225z" />
<glyph unicode="?" horiz-adv-x="907" d="M68 963q47 106 157.5 166.5t223.5 60.5q180 0 285.5 -89t105.5 -263q0 -143 -121 -265q-16 -18 -47 -46.5t-37 -34.5q-33 -37 -43 -68q-8 -49 -8 -74v-80h-238v133q0 145 121 261q27 20 47 47q72 76 72 133q0 113 -148 112q-66 0 -107.5 -26.5t-101.5 -100.5zM346 -43 v211h238v-211h-238z" />
<glyph unicode="@" horiz-adv-x="1712" d="M139 492q0 346 193.5 537.5t521.5 191.5q342 0 530.5 -183.5t188.5 -541.5q0 -86 -11.5 -154t-42 -134.5t-94 -103t-157.5 -36.5q-137 0 -205 69q-106 -80 -256 -80q-193 0 -280 121t-87 311.5t85 306t278 115.5q96 0 166 -43v27h209v-498q0 -139 96 -139q27 0 46 12.5 t29.5 25.5t14.5 42t5 44t0 48t-1 37q0 301 -129 426t-383 125q-236 0 -374 -144.5t-138 -388.5q0 -227 126 -367.5t364 -140.5q121 0 266 56l84 -166q-176 -88 -371 -88q-322 0 -498 199t-176 514zM659 489q0 -227 166 -227q33 0 61.5 13.5t36.5 20.5l38 38v307 q-74 74 -136 74q-92 0 -129 -58.5t-37 -167.5z" />
<glyph unicode="A" horiz-adv-x="1261" d="M78 -43l399 1235h309l398 -1235h-266l-113 365h-346l-115 -365h-266zM522 524h219l-110 342z" />
<glyph unicode="B" horiz-adv-x="1249" d="M164 -43v1231h452q90 0 171 -18.5t152 -58.5t112 -112.5t41 -169.5q0 -139 -93 -221q68 -49 105 -123.5t37 -156.5q0 -190 -127 -280.5t-328 -90.5h-522zM422 190h260q106 0 155.5 32t49.5 120q0 135 -199 135h-266v-287zM422 705h221q195 0 195 129q0 123 -193 122h-223 v-251z" />
<glyph unicode="C" horiz-adv-x="1236" d="M129 573q0 113 15.5 204t54.5 174t100 138.5t158.5 87t226.5 31.5q276 0 444 -186l-161 -154q-86 63 -143.5 85t-139.5 22q-96 0 -157.5 -27.5t-90 -87t-38 -123t-9.5 -164t9.5 -164t38 -123t90 -87t157.5 -27.5q82 0 138.5 22.5t144.5 86.5l161 -154 q-170 -188 -444 -188q-160 0 -271.5 47t-172 137t-86 198.5t-25.5 251.5z" />
<glyph unicode="D" horiz-adv-x="1304" d="M164 -43v1235h520q131 0 224 -37t144.5 -93t80 -147.5t36 -171t7.5 -194.5q0 -104 -10.5 -185t-42 -161t-85 -131.5t-143.5 -83t-211 -31.5h-520zM422 190h262q139 0 185 79t46 237v102q0 84 -7 137.5t-28.5 106.5t-70.5 79.5t-125 26.5h-262v-768z" />
<glyph unicode="E" horiz-adv-x="1232" d="M164 -43v1235h905v-238h-647v-241h584v-238h-584v-280h647v-238h-905z" />
<glyph unicode="F" horiz-adv-x="1208" d="M164 -43v1235h905v-238h-647v-241h506v-238h-506v-518h-258z" />
<glyph unicode="G" horiz-adv-x="1267" d="M129 567.5q0 143.5 24.5 252t84 199.5t170 140t270.5 49q139 0 246.5 -40t203.5 -146l-161 -154q-86 63 -142.5 85t-140.5 22q-98 0 -159.5 -28.5t-90 -90t-37 -124t-8.5 -165.5q0 -201 57.5 -299t237.5 -98q106 0 162 33v215h-240v225h500v-530q-125 -174 -422 -174 q-160 0 -270.5 46t-171 134t-87 196.5t-26.5 252z" />
<glyph unicode="H" horiz-adv-x="1304" d="M164 -43v1235h258v-487h459v487h260v-1235h-260v518h-459v-518h-258z" />
<glyph unicode="I" horiz-adv-x="585" d="M164 -43v1235h258v-1235h-258z" />
<glyph unicode="J" horiz-adv-x="1038" d="M104 86l154 158q106 -70 203 -70q80 0 113.5 36t37.5 109q2 16 2 97v772h260v-842q0 -217 -93 -313t-318 -96q-106 0 -185.5 32.5t-173.5 116.5z" />
<glyph unicode="K" horiz-adv-x="1241" d="M164 -43v1235h258v-477l399 477h334l-483 -571l485 -664h-323l-338 471l-74 -86v-385h-258z" />
<glyph unicode="L" horiz-adv-x="999" d="M164 -43v1235h258v-997h479v-238h-737z" />
<glyph unicode="M" horiz-adv-x="1630" d="M164 -43v1235h325l324 -819l328 819h325v-1235h-258v748l-272 -713h-244l-270 713v-748h-258z" />
<glyph unicode="N" horiz-adv-x="1304" d="M164 -43v1235h325l392 -748v748h260v-1235h-328l-391 745v-745h-258z" />
<glyph unicode="O" horiz-adv-x="1349" d="M129 592q0 614 545 614q547 0 547 -614q0 -100 -5.5 -167t-33 -157t-80.5 -153q-145 -176 -428 -176q-281 0 -428 176q-53 63 -81 154t-32 155t-4 168zM389 565q0 -100 7 -159.5t35 -119t87.5 -86t155.5 -26.5t155.5 26.5t86 85t34.5 118t8 159.5q0 82 -3 133.5 t-19 109.5t-45 91t-84 54.5t-133 21.5t-133.5 -21.5t-84 -53.5t-45 -91t-19.5 -109.5t-3 -132.5z" />
<glyph unicode="P" horiz-adv-x="1216" d="M164 -43v1235h469q199 0 326.5 -95.5t127.5 -283.5q0 -283 -239 -360q-82 -27 -221 -35q-51 -2 -103 -2l-102 2v-461h-258zM422 651h213q199 0 199 146q0 90 -50.5 125.5t-154.5 35.5h-207v-307z" />
<glyph unicode="Q" horiz-adv-x="1343" d="M129 592q0 614 545 614q547 0 547 -614q0 -102 -5.5 -167t-33 -156t-80.5 -154q-33 -39 -76 -72l139 -223h-299l-80 127q-49 -8 -112 -8q-281 0 -428 176q-53 63 -81 154t-32 155t-4 168zM389 565q0 -76 4 -125t18.5 -103t41 -85t76 -52.5t118.5 -25.5l-94 150h299 l43 -70q63 80 63 309q0 82 -3 133.5t-19 109.5t-45 91t-84 54.5t-133 21.5t-133.5 -21.5t-84 -53.5t-45 -91t-19.5 -109.5t-3 -132.5z" />
<glyph unicode="R" horiz-adv-x="1259" d="M164 -43v1235h469q195 0 324.5 -94t129.5 -281q0 -252 -186 -344l264 -516h-270l-238 463h-235v-463h-258zM422 651h213q199 0 199 148q0 86 -52.5 121.5t-152.5 35.5h-207v-305z" />
<glyph unicode="S" horiz-adv-x="1208" d="M119 180l178 150q145 -154 317 -154q51 0 79 2t65 13.5t54 38t17 71.5q0 76 -88 117q-33 14 -104 33q-96 20 -123 26q-76 16 -129 38t-110.5 59.5t-87 102t-29.5 150.5q0 186 129 284.5t323 98.5q295 0 451 -188l-158 -162q-150 117 -293 117q-96 0 -144 -33t-48 -115 q0 -68 88 -104q47 -18 104 -31q20 -6 62.5 -15t60.5 -13q76 -18 130.5 -40t110.5 -63t86 -107.5t30 -156.5q0 -98 -40 -171t-109 -113t-148.5 -58t-171.5 -18q-303 -1 -502 241z" />
<glyph unicode="T" horiz-adv-x="1226" d="M88 954v238h1051v-238h-398v-997h-258v997h-395z" />
<glyph unicode="U" horiz-adv-x="1413" d="M164 494v698h258v-653q0 -186 57.5 -275.5t227.5 -89.5t227 90t57 275v653h258v-698q0 -254 -138 -405.5t-404.5 -151.5t-404.5 150.5t-138 406.5z" />
<glyph unicode="V" horiz-adv-x="1271" d="M78 1192h266l293 -899l289 899h268l-391 -1235h-336z" />
<glyph unicode="W" horiz-adv-x="1816" d="M78 1192h266l225 -899l232 893h215l231 -893l226 899h266l-324 -1235h-336l-170 692l-172 -692h-336z" />
<glyph unicode="X" horiz-adv-x="1337" d="M109 -43l407 639l-379 596h287l248 -385l243 385h287l-381 -596l408 -639h-279l-278 436l-283 -436h-280z" />
<glyph unicode="Y" horiz-adv-x="1210" d="M78 1192h282l244 -404l250 404h279l-400 -647v-588h-258v588z" />
<glyph unicode="Z" horiz-adv-x="1239" d="M143 -43v227l592 781h-583v227h929v-227l-592 -781h607v-227h-953z" />
<glyph unicode="[" horiz-adv-x="862" d="M170 -264v1628h446v-223h-208v-1180h208v-225h-446z" />
<glyph unicode="\" horiz-adv-x="1138" d="M109 1356h256l624 -1596h-256z" />
<glyph unicode="]" horiz-adv-x="862" d="M246 -39h209v1180h-209v223h446v-1628h-446v225z" />
<glyph unicode="^" horiz-adv-x="1011" d="M109 713l301 532h192l301 -532h-258l-139 266l-139 -266h-258z" />
<glyph unicode="_" horiz-adv-x="1386" d="M190 -43v219h1006v-219h-1006z" />
<glyph unicode="`" horiz-adv-x="909" d="M109 1300h303q109 -168 174 -303h-228q-55 57 -136.5 157.5t-112.5 145.5z" />
<glyph unicode="a" d="M100 236q0 219 236 272q8 2 26.5 4t110.5 5q55 2 125 2q46 0 98 -1q-4 72 -59 98.5t-156 26.5q-113 0 -211 -70l-145 129q174 158 395 158q217 0 329 -91t112 -296v-516h-261v49q-94 -68 -227 -67q-373 0 -373 297zM358 238q0 -29 14.5 -46.5t48.5 -23.5t49 -7t56 -1 q121 0 174 86v57h-211h-8q-39 0 -59.5 -2t-42 -17t-21.5 -46z" />
<glyph unicode="b" horiz-adv-x="1101" d="M129 -43v1235h258v-404q84 72 223 72q197 0 290 -118.5t93 -325.5q0 -477 -383 -477q-135 0 -223 71v-53h-258zM387 252q55 -94 168 -94q109 0 143.5 60.5t34.5 197.5q0 111 -37 166t-137 55q-117 0 -172 -92v-293z" />
<glyph unicode="c" horiz-adv-x="989" d="M109 397q0 211 100 337t319 126q227 0 353 -160l-136 -135q-96 76 -186 76q-117 0 -153.5 -57.5t-36.5 -186.5t36.5 -185t153.5 -56q90 0 186 82l136 -140q-117 -160 -353 -159q-219 0 -319 124.5t-100 333.5z" />
<glyph unicode="d" horiz-adv-x="1101" d="M109 416q0 207 93 324.5t290 117.5q135 0 221 -70v404h260v-1235h-260v53q-88 -72 -221 -71q-188 0 -285.5 113.5t-97.5 363.5zM367 416q0 -137 34.5 -197.5t143.5 -60.5q113 0 168 94v293q-55 92 -172 92q-100 0 -137 -55t-37 -166z" />
<glyph unicode="e" d="M109 399q0 213 103 337t327 124q432 0 432 -469v-86h-606q8 -72 59 -113.5t133 -41.5q135 0 238 86l139 -138q-125 -162 -371 -161q-240 0 -347 117.5t-107 344.5zM371 498h338q-14 74 -52.5 109.5t-117.5 35.5q-78 0 -115 -36.5t-53 -108.5z" />
<glyph unicode="f" horiz-adv-x="882" d="M88 645v193h141v34q0 150 70 244t225 94q193 0 312 -163l-134 -134q-84 74 -129 74q-53 0 -69.5 -26.5t-16.5 -92.5v-30h267v-193h-267v-688h-258v688h-141z" />
<glyph unicode="g" horiz-adv-x="1099" d="M109 389q0 104 16 181t57 146.5t124 105.5t206 36q57 0 113.5 -21.5t87.5 -50.5v50h258v-768q0 -477 -463 -478q-244 0 -365 164l136 140q104 -88 233 -89q117 0 158 51.5t43 151.5q-86 -70 -201 -69q-221 0 -312 118.5t-91 331.5zM367 389q0 -113 37.5 -171t136.5 -58 q119 0 172 92v295q-55 92 -168 92q-104 0 -141 -58.5t-37 -191.5z" />
<glyph unicode="h" horiz-adv-x="1118" d="M129 -43v1235h258v-401q90 70 227 69q375 0 375 -397v-506h-258v500q0 106 -32.5 143t-143.5 37t-168 -68v-612h-258z" />
<glyph unicode="i" horiz-adv-x="516" d="M129 -43v881h258v-881h-258zM129 952v238h258v-238h-258z" />
<glyph unicode="j" horiz-adv-x="567" d="M-106 -303l112 153q68 -37 100 -36q43 0 58.5 26.5t15.5 81.5v916h258v-865q0 -66 -5 -113.5t-23.5 -102t-50 -88.5t-88 -56.5t-134.5 -22.5q-139 1 -243 107zM180 952v236h258v-236h-258z" />
<glyph unicode="k" horiz-adv-x="1042" d="M123 -43v1233h258v-590l233 238h338l-336 -340l359 -541h-295l-244 367l-55 -56v-311h-258z" />
<glyph unicode="l" horiz-adv-x="516" d="M129 -43v1235h258v-1235h-258z" />
<glyph unicode="m" horiz-adv-x="1724" d="M129 -43v881h258v-47q90 70 227 69q201 0 297 -112q111 113 308 112q209 0 292.5 -100.5t83.5 -296.5v-506h-260v532q0 23 -6 44.5t-22.5 47t-54.5 41t-91 15.5q-113 0 -170 -68v-612h-260v504q0 98 -46 137t-130 39q-111 0 -168 -68v-612h-258z" />
<glyph unicode="n" horiz-adv-x="1120" d="M129 -43v881h258v-47q90 70 227 69q207 0 292 -100.5t85 -296.5v-506h-260v500q0 98 -44 139t-132 41q-111 0 -168 -68v-612h-258z" />
<glyph unicode="o" d="M109 399q0 213 102 337t325.5 124t329 -124t105.5 -337q0 -211 -104.5 -335.5t-327.5 -124.5q-430 -1 -430 460zM367 399q0 -119 33.5 -180t136.5 -61q104 0 139 61.5t35 180t-35 180t-139 61.5q-102 0 -136 -60.5t-34 -181.5z" />
<glyph unicode="p" horiz-adv-x="1101" d="M129 -410v1248h258v-52q88 72 223 72q383 0 383 -475q0 -207 -93 -325.5t-290 -118.5q-137 0 -223 69v-418h-258zM387 252q55 -92 172 -92q100 0 137 55t37 168q0 137 -34.5 196.5t-143.5 59.5q-115 0 -168 -94v-293z" />
<glyph unicode="q" horiz-adv-x="1101" d="M109 383q0 248 97 361.5t286 113.5q133 0 221 -72v52h260v-1248h-260v418q-86 -70 -221 -69q-197 0 -290 118.5t-93 325.5zM367 383q0 -113 36.5 -168t137.5 -55q117 0 172 92v295q-53 92 -168 92q-109 0 -143.5 -59.5t-34.5 -196.5z" />
<glyph unicode="r" horiz-adv-x="915" d="M129 -43v881h258v-41q80 63 186 63q82 0 135.5 -21.5t118.5 -74.5l-151 -162q-66 43 -125 43q-104 0 -164 -92v-596h-258z" />
<glyph unicode="s" horiz-adv-x="1011" d="M109 123l139 133q135 -96 246 -96q78 0 108 10q43 16 43 53q0 16 -5 27.5t-11 17.5t-17.5 11.5t-19.5 6.5t-22.5 3t-20.5 4q-119 14 -168 26q-240 49 -240 256q0 154 108.5 219.5t270.5 65.5q207 0 367 -139l-142 -137q-119 68 -210 67q-35 0 -51.5 -1t-40 -6t-34 -19.5 t-10.5 -36.5q0 -33 29 -47.5t100.5 -22.5t100.5 -14q47 -10 78.5 -19.5t72.5 -31t64.5 -48t41 -70.5t17.5 -102q0 -147 -105.5 -220.5t-262.5 -73.5q-256 0 -426 184z" />
<glyph unicode="t" horiz-adv-x="862" d="M88 645v193h141v206h258v-206h267v-193h-267v-379q0 -55 15.5 -81.5t58.5 -26.5q33 0 101 37l112 -152q-102 -104 -246 -104q-72 0 -124 16t-83.5 50t-51 69t-28 90t-10.5 92t-2 98v291h-141z" />
<glyph unicode="u" horiz-adv-x="1120" d="M129 336v502h258v-496q0 -98 44 -139t132 -41q111 0 168 67v609h260v-881h-260v51q-90 -70 -227 -69q-375 0 -375 397z" />
<glyph unicode="v" horiz-adv-x="1034" d="M57 838h285l172 -519l178 519h285l-330 -881h-262z" />
<glyph unicode="w" horiz-adv-x="1538" d="M57 838h283l139 -488l154 488h270l162 -488l135 488h281l-275 -881h-270l-166 498l-162 -498h-268z" />
<glyph unicode="x" horiz-adv-x="1071" d="M68 -43l319 442l-309 439h299l170 -244l172 244h280l-311 -432l316 -449h-293l-181 254l-184 -254h-278z" />
<glyph unicode="y" horiz-adv-x="1026" d="M47 -305l105 147q51 -33 90 -32q57 0 90 57q23 41 43 119l-320 850h283l176 -506l182 506h283q-203 -537 -334 -867q-92 -246 -188 -321q-74 -57 -191 -58q-147 1 -219 105z" />
<glyph unicode="z" horiz-adv-x="784" d="M16 -43v178l404 479h-389v224h737v-181l-406 -483h406v-217h-752z" />
<glyph unicode="{" horiz-adv-x="716" d="M63 432v248q94 0 117 14.5t23 77.5v221q0 109 10 154q25 111 84 170t195 55l75 -2v-170q-74 -10 -97.5 -42t-20.5 -103l4 -256q4 -168 -60 -242q63 -78 60 -242l-4 -256q-2 -72 21.5 -104.5t96.5 -42.5v-170l-75 -2q-135 -2 -194.5 57.5t-84.5 169.5q-10 45 -10 152v223 q0 63 -22 76.5t-118 13.5z" />
<glyph unicode="|" horiz-adv-x="495" d="M129 -240v1596h238v-1596h-238z" />
<glyph unicode="}" horiz-adv-x="696" d="M150 -88q74 10 97 43t21 104l-4 256q-4 164 60 242q-63 74 -60 242l4 256q2 72 -21.5 103.5t-96.5 41.5v170l75 2q135 4 194.5 -55.5t84.5 -169.5q10 -45 10 -154v-221q0 -63 22.5 -77.5t116.5 -14.5v-248q-96 0 -117.5 -13t-21.5 -77q2 0 0 -223q0 -106 -10 -152 q-25 -111 -84.5 -170t-194.5 -55l-75 2v168z" />
<glyph unicode="~" horiz-adv-x="753" d="M51 963q43 180 225 180q53 0 142 -33q88 -27 100 -27q39 0 60 43l163 -41q-47 -182 -227 -182q-41 0 -141 35q-37 12 -54 16q-37 8 -45 9q-43 0 -59 -41z" />
<glyph unicode="&#xa1;" horiz-adv-x="534" d="M164 -41q0 119 31 553h190q31 -381 31 -553v-369h-252v369zM172 612v211h236v-211h-236z" />
<glyph unicode="&#xa8;" horiz-adv-x="933" d="M119 999v236h258v-236h-258zM528 999v236h258v-236h-258z" />
<glyph unicode="&#xaa;" horiz-adv-x="849" d="M102 723q0 168 179 205q6 2 20 4t84 4t168 0q-2 53 -43 71.5t-119 18.5q-90 0 -160 -49l-110 98q131 115 299 115q166 0 249 -66.5t83 -222.5v-389h-195v37q-68 -51 -172 -51q-283 0 -283 225zM297 723q0 -23 10 -35t37 -16t38 -5t44 -1q90 0 131 63v45h-160 q-33 0 -48 -1t-33.5 -13t-18.5 -37z" />
<glyph unicode="&#xac;" horiz-adv-x="1216" d="M170 354v217h877v-389h-220v172h-657z" />
<glyph unicode="&#xad;" horiz-adv-x="1212" d="M205 346v219h803v-219h-803z" />
<glyph unicode="&#xb0;" horiz-adv-x="851" d="M102 887q0 326 324 325q328 0 328 -325q0 -328 -326 -328q-172 0 -249 84t-77 244zM299 887q0 -86 24.5 -124t102.5 -38q82 0 107.5 37t25.5 125q0 84 -26.5 122t-106.5 38q-78 0 -102.5 -38t-24.5 -122z" />
<glyph unicode="&#xb2;" horiz-adv-x="1103" d="M129 1012q158 197 377 196q201 0 328 -91t127 -283q0 -72 -39 -150t-77 -123t-102 -112l-247 -256h479v-236h-842v211l324 336q10 10 50 51t67.5 70.5t61.5 70.5t52.5 77t18.5 65q0 139 -197 139q-96 0 -211 -96z" />
<glyph unicode="&#xb3;" horiz-adv-x="1122" d="M129 143l168 138q59 -61 115.5 -86t132.5 -25q193 0 192.5 157.5t-159.5 157.5h-172v228h163q147 0 148 131q0 129 -166 129q-129 0 -236 -92l-170 131q96 115 187.5 155.5t218.5 40.5q176 0 299 -96t123 -264q0 -145 -86 -244q106 -109 106 -285q0 -190 -126 -285 t-324 -95q-141 0 -235.5 43.5t-178.5 160.5zM293 -43h485h-485z" />
<glyph unicode="&#xb4;" horiz-adv-x="909" d="M272 997q66 135 174 303h306q-143 -190 -250 -303h-230z" />
<glyph unicode="&#xb7;" horiz-adv-x="485" d="M156 362v236h258v-236h-258z" />
<glyph unicode="&#xb9;" horiz-adv-x="794" d="M109 754l321 438h225v-1235h-237v819l-123 -151z" />
<glyph unicode="&#xba;" horiz-adv-x="851" d="M102 846q0 160 78 253t246 93q170 0 249 -93t79 -253t-78 -254t-248 -94q-326 0 -326 348zM299 846q0 -90 25.5 -136t101.5 -46q80 0 106.5 46t26.5 136q0 88 -26.5 134t-106.5 46q-76 0 -101.5 -46t-25.5 -134z" />
<glyph unicode="&#xbc;" horiz-adv-x="2582" d="M1620 295v197l503 700h240v-664h111v-233h-111v-338h-240v338h-503zM1933 528h190v269zM754 -240l647 1596h258l-647 -1596h-258zM109 754l321 438h225v-1235h-237v819l-123 -151z" />
<glyph unicode="&#xbd;" horiz-adv-x="2615" d="M1640 1012q158 197 377 196q201 0 328 -91t127 -283q0 -72 -39 -150t-77 -123t-102 -112l-247 -256h479v-236h-842v211l324 336q10 10 50 51t67.5 70.5t61.5 70.5t52.5 77t18.5 65q0 139 -197 139q-96 0 -211 -96zM754 -240l647 1596h258l-647 -1596h-258zM109 754 l321 438h225v-1235h-237v819l-123 -151z" />
<glyph unicode="&#xbe;" horiz-adv-x="2910" d="M1948 295v197l503 700h240v-664h111v-233h-111v-338h-240v338h-503zM2261 528h190v269zM1081 -240l647 1596h258l-647 -1596h-258zM129 143l168 138q59 -61 115.5 -86t132.5 -25q193 0 192.5 157.5t-159.5 157.5h-172v228h163q147 0 148 131q0 129 -166 129 q-129 0 -236 -92l-170 131q96 115 187.5 155.5t218.5 40.5q176 0 299 -96t123 -264q0 -145 -86 -244q106 -109 106 -285q0 -190 -126 -285t-324 -95q-141 0 -235.5 43.5t-178.5 160.5zM293 -43h485h-485z" />
<glyph unicode="&#xbf;" horiz-adv-x="825" d="M109 -57q0 143 120 264q14 16 43 44t41 40q37 37 43 67q10 41 11 74v78h235v-131q0 -152 -121 -262q-23 -20 -47 -47q-72 -76 -72 -133q0 -113 148 -113q66 0 107.5 26.5t101.5 100.5l162 -133q-47 -106 -158 -167t-223 -61q-180 0 -285.5 89.5t-105.5 263.5zM367 612 v211h235v-211h-235z" />
<glyph unicode="&#xc0;" horiz-adv-x="1263" d="M78 -43l399 1233h309l400 -1233h-268l-113 365h-346l-115 -365h-266zM268 1636h303q111 -168 174 -303h-227q-121 123 -250 303zM522 524h219l-110 342z" />
<glyph unicode="&#xc1;" horiz-adv-x="1263" d="M78 -43l399 1233h309l400 -1233h-268l-113 365h-346l-115 -365h-266zM518 1333q66 137 174 305h303q-29 -43 -110.5 -144t-136.5 -161h-230zM522 524h219l-110 342z" />
<glyph unicode="&#xc2;" horiz-adv-x="1261" d="M78 -43l399 1235h309l398 -1235h-266l-113 365h-346l-115 -365h-266zM262 1331l248 307h244l247 -307h-245l-123 158l-123 -158h-248zM522 524h219l-110 342z" />
<glyph unicode="&#xc3;" horiz-adv-x="1261" d="M287 1389q43 180 225 180q53 0 142 -33q88 -27 100 -27q39 0 60 43l163 -41q-47 -182 -227 -182q-41 0 -141 35q-37 12 -54 16q-37 8 -45 9q-43 0 -59 -41zM78 -43l399 1235h309l398 -1235h-266l-113 365h-346l-115 -365h-266zM522 524h219l-110 342z" />
<glyph unicode="&#xc4;" horiz-adv-x="1263" d="M78 -43l399 1233h309l400 -1233h-268l-113 365h-346l-115 -365h-266zM297 1331v238h258v-238h-258zM522 524h219l-110 342zM707 1331v238h258v-238h-258z" />
<glyph unicode="&#xc5;" horiz-adv-x="1261" d="M307 1512q0 326 324 325q328 0 328 -325q0 -328 -326 -328q-172 0 -249 84t-77 244zM504 1512q0 -86 24.5 -124t102.5 -38q82 0 107.5 37t25.5 125q0 84 -26.5 122t-106.5 38q-78 0 -102.5 -38t-24.5 -122zM78 -43l399 1235h309l398 -1235h-266l-113 365h-346l-115 -365 h-266zM522 524h219l-110 342z" />
<glyph unicode="&#xc7;" horiz-adv-x="1212" d="M129 559q0 291 122 456t421 165q268 0 432 -183l-158 -151q-84 61 -138 82.5t-136 21.5q-94 0 -154.5 -27.5t-88.5 -85t-37 -120t-9 -158.5t9 -158.5t37 -121t88.5 -86t154.5 -27.5q80 0 135 22.5t139 83.5l158 -149q-166 -184 -432 -184q-156 0 -265.5 46t-168 134 t-84 194.5t-25.5 245.5zM422 -449l143 281h205q-29 -145 -90 -281h-258z" />
<glyph unicode="&#xc8;" horiz-adv-x="1232" d="M164 -43v1235h905v-238h-647v-241h584v-238h-584v-280h647v-238h-905zM236 1636h303q111 -168 174 -303h-228q-120 123 -249 303z" />
<glyph unicode="&#xc9;" horiz-adv-x="1232" d="M164 -43v1235h905v-238h-647v-241h584v-238h-584v-280h647v-238h-905zM487 1331q66 135 175 305h305q-125 -174 -250 -305h-230z" />
<glyph unicode="&#xca;" horiz-adv-x="1232" d="M164 -43v1235h905v-238h-647v-241h584v-238h-584v-280h647v-238h-905zM240 1333l245 305h246l246 -305h-246l-123 156l-123 -156h-245z" />
<glyph unicode="&#xcb;" horiz-adv-x="1232" d="M164 -43v1235h905v-238h-647v-241h584v-238h-584v-280h647v-238h-905zM283 1333v236h258v-236h-258zM692 1333v236h258v-236h-258z" />
<glyph unicode="&#xcc;" horiz-adv-x="608" d="M-53 1638h303q111 -168 174 -303h-227q-121 123 -250 303zM186 -43v1235h258v-1235h-258z" />
<glyph unicode="&#xcd;" horiz-adv-x="608" d="M164 -43v1235h258v-1235h-258zM184 1335q63 135 172 303h306q-129 -180 -250 -303h-228z" />
<glyph unicode="&#xce;" horiz-adv-x="739" d="M0 1333l248 305h244l247 -305h-247l-123 156l-123 -156h-246zM240 -43v1235h258v-1235h-258z" />
<glyph unicode="&#xcf;" horiz-adv-x="667" d="M0 1331v238h258v-238h-258zM205 -43v1235h258v-1235h-258zM410 1331v238h258v-238h-258z" />
<glyph unicode="&#xd1;" horiz-adv-x="1304" d="M164 -43v1235h325l392 -748v748h260v-1235h-328l-391 745v-745h-258zM307 1391q39 180 225 180q53 0 142 -33q88 -27 100 -27q39 0 60 43l161 -41q-45 -182 -225 -182q-41 0 -141 35q-37 12 -54 16q-37 8 -45 9q-43 0 -59 -41z" />
<glyph unicode="&#xd2;" horiz-adv-x="1349" d="M129 592q0 614 545 614q547 0 547 -614q0 -102 -5.5 -168t-32 -156t-79.5 -153q-150 -176 -430.5 -176t-425.5 176q-53 63 -81 153t-33 157t-5 167zM295 1638h305q49 -74 92 -150.5t62 -115.5l18 -39h-227q-123 129 -250 305zM391 563q0 -80 4 -130t20.5 -104.5t46.5 -85 t83 -50t129 -19.5q96 0 156.5 26.5t88 86t35 119t7.5 159.5q0 82 -4.5 133.5t-19.5 109.5t-45 90t-85 53.5t-133 21.5t-132.5 -21.5t-84 -54.5t-45 -91t-18.5 -109.5t-3 -133.5z" />
<glyph unicode="&#xd3;" horiz-adv-x="1349" d="M129 592q0 614 545 614q547 0 547 -614q0 -100 -5.5 -167t-33 -157t-80.5 -153q-145 -176 -428 -176q-281 0 -428 176q-53 63 -81 154t-32 155t-4 168zM389 565q0 -100 7 -159.5t35 -119t87.5 -86t155.5 -26.5t155.5 26.5t86 85t34.5 118t8 159.5q0 82 -3 133.5 t-19 109.5t-45 91t-84 54.5t-133 21.5t-133.5 -21.5t-84 -53.5t-45 -91t-19.5 -109.5t-3 -132.5zM575 1333q66 137 175 305h303q-29 -43 -111 -144t-137 -161h-230z" />
<glyph unicode="&#xd4;" horiz-adv-x="1349" d="M129 592q0 614 545 614q547 0 547 -614q0 -102 -5.5 -168t-32 -156t-79.5 -153q-150 -176 -430.5 -176t-425.5 176q-53 63 -81 153t-33 157t-5 167zM307 1331l246 307h246l245 -307h-245l-123 158l-123 -158h-246zM391 563q0 -80 4 -130t20.5 -104.5t46.5 -85t83 -50 t129 -19.5q96 0 156.5 26.5t87 86t35 119t8.5 159.5q0 82 -4.5 133.5t-19.5 109.5t-45 90t-85 53.5t-133 21.5t-132.5 -21.5t-84 -54.5t-45 -91t-18.5 -109.5t-3 -133.5z" />
<glyph unicode="&#xd5;" horiz-adv-x="1349" d="M330 1389q43 180 225 180q53 0 142 -33q88 -27 100 -27q39 0 60 43l163 -41q-47 -182 -227 -182q-41 0 -141 35q-37 12 -54 16q-37 8 -45 9q-43 0 -59 -41zM129 592q0 614 545 614q547 0 547 -614q0 -100 -5.5 -167t-33 -157t-80.5 -153q-145 -176 -428 -176 q-281 0 -428 176q-53 63 -81 154t-32 155t-4 168zM389 565q0 -100 7 -159.5t35 -119t87.5 -86t155.5 -26.5t155.5 26.5t86 85t34.5 118t8 159.5q0 82 -3 133.5t-19 109.5t-45 91t-84 54.5t-133 21.5t-133.5 -21.5t-84 -53.5t-45 -91t-19.5 -109.5t-3 -132.5z" />
<glyph unicode="&#xd6;" horiz-adv-x="1452" d="M231 592q0 614 545 614q547 0 547 -614q0 -102 -5 -168t-31.5 -156t-80.5 -153q-150 -176 -430 -176t-426 176q-53 63 -80.5 153t-33 157t-5.5 167zM442 1331v238h258v-238h-258zM494 563q0 -80 4 -130t20.5 -104.5t46 -85t82.5 -50t129 -19.5q96 0 156.5 26.5t87.5 86 t35 119t8 159.5q0 82 -4 133.5t-19.5 109.5t-45 90t-85 53.5t-133.5 21.5t-132 -21.5t-84 -54.5t-45 -91t-18 -109.5t-3 -133.5zM852 1331v238h258v-238h-258z" />
<glyph unicode="&#xd9;" horiz-adv-x="1413" d="M164 494v698h258v-653q0 -184 57.5 -274.5t225.5 -90.5q172 0 229 90t57 275v653h258v-698q0 -256 -139 -406.5t-405 -150.5q-264 0 -402.5 151.5t-138.5 405.5zM342 1638h303q111 -168 174 -305h-227q-123 129 -250 305z" />
<glyph unicode="&#xda;" horiz-adv-x="1413" d="M164 494v698h258v-653q0 -186 57.5 -275.5t227.5 -89.5t227 90t57 275v653h258v-698q0 -254 -138 -405.5t-404.5 -151.5t-404.5 150.5t-138 406.5zM594 1333q63 137 172 305h305q-127 -176 -250 -305h-227z" />
<glyph unicode="&#xdb;" horiz-adv-x="1413" d="M164 494v698h258v-653q0 -184 57.5 -274.5t225.5 -90.5q172 0 229 90t57 275v653h258v-698q0 -256 -139 -406.5t-405 -150.5q-264 0 -402.5 151.5t-138.5 405.5zM338 1331l248 307h243l248 -307h-248l-120 158l-125 -158h-246z" />
<glyph unicode="&#xdc;" horiz-adv-x="1413" d="M164 494v698h258v-653q0 -184 57.5 -274.5t225.5 -90.5q172 0 229 90t57 275v653h258v-698q0 -256 -139 -406.5t-405 -150.5q-264 0 -402.5 151.5t-138.5 405.5zM373 1331v238h258v-238h-258zM782 1331v238h258v-238h-258z" />
<glyph unicode="&#xdd;" horiz-adv-x="1210" d="M489 1329q66 135 174 303h306q-143 -190 -250 -303h-230zM78 1192h282l244 -404l250 404h279l-400 -647v-588h-258v588z" />
<glyph unicode="&#xe0;" d="M100 236q0 219 236 272q8 2 26.5 4t110.5 5t223 1q-4 72 -59 98.5t-156 26.5q-113 0 -211 -70l-145 132q174 156 395 155q217 0 329 -90t112 -297v-516h-261v49q-94 -68 -227 -67q-373 0 -373 297zM164 1309h305q109 -168 174 -303h-229q-121 123 -250 303zM358 238 q0 -29 14.5 -46.5t48.5 -23.5t49 -7t56 -1q121 0 174 86v57h-211h-8q-39 0 -59.5 -2t-42 -17t-21.5 -46z" />
<glyph unicode="&#xe1;" d="M100 236q0 219 236 272q8 2 26.5 4t110.5 5t223 1q-4 72 -59 98.5t-156 26.5q-113 0 -211 -70l-145 129q174 158 395 158q217 0 329 -91t112 -296v-516h-261v49q-94 -68 -227 -67q-373 0 -373 297zM358 238q0 -29 14.5 -46.5t48.5 -23.5t49 -7t56 -1q121 0 174 86v57 h-211h-8q-39 0 -59.5 -2t-42 -17t-21.5 -46zM434 1006q63 135 174 303h303q-129 -180 -249 -303h-228z" />
<glyph unicode="&#xe2;" d="M100 236q0 219 236 272q8 2 26.5 4t110.5 5t223 1q-4 72 -59 98.5t-156 26.5q-113 0 -211 -70l-145 132q174 156 395 155q217 0 329 -90t112 -297v-516h-261v49q-94 -68 -227 -67q-373 0 -373 297zM172 1004l246 307h246l245 -307h-245l-123 157l-123 -157h-246zM358 238 q0 -29 14.5 -46.5t48.5 -23.5t49 -7t56 -1q121 0 174 86v57h-211h-8q-39 0 -59.5 -2t-42 -17t-21.5 -46z" />
<glyph unicode="&#xe3;" d="M174 1043q43 180 225 180q53 0 142 -33q88 -27 100 -27q39 0 60 43l163 -41q-47 -182 -227 -182q-41 0 -141 35q-37 12 -54 16q-37 8 -45 9q-43 0 -59 -41zM100 236q0 219 236 272q8 2 26.5 4t110.5 5q55 2 125 2q46 0 98 -1q-4 72 -59 98.5t-156 26.5q-113 0 -211 -70 l-145 129q174 158 395 158q217 0 329 -91t112 -296v-516h-261v49q-94 -68 -227 -67q-373 0 -373 297zM358 238q0 -29 14.5 -46.5t48.5 -23.5t49 -7t56 -1q121 0 174 86v57h-211h-8q-39 0 -59.5 -2t-42 -17t-21.5 -46z" />
<glyph unicode="&#xe4;" d="M100 236q0 219 236 272q8 2 26.5 4t110.5 5t223 1q-4 72 -59 98.5t-156 26.5q-113 0 -211 -70l-145 129q174 158 395 158q217 0 329 -90t112 -297v-516h-261v49q-94 -68 -227 -67q-373 0 -373 297zM219 1004v237h258v-237h-258zM358 238q0 -29 14.5 -46.5t48.5 -23.5 t49 -7t56 -1q121 0 174 86v57h-211h-8q-39 0 -59.5 -2t-42 -17t-21.5 -46zM629 1004v237h258v-237h-258z" />
<glyph unicode="&#xe5;" d="M194 1311q0 326 324 325q328 0 328 -325q0 -328 -326 -328q-172 0 -249 84t-77 244zM391 1311q0 -86 24.5 -124t102.5 -38q82 0 107.5 37t25.5 125q0 84 -26.5 122t-106.5 38q-78 0 -102.5 -38t-24.5 -122zM100 236q0 219 236 272q8 2 26.5 4t110.5 5q55 2 125 2 q46 0 98 -1q-4 72 -59 98.5t-156 26.5q-113 0 -211 -70l-145 129q174 158 395 158q217 0 329 -91t112 -296v-516h-261v49q-94 -68 -227 -67q-373 0 -373 297zM358 238q0 -29 14.5 -46.5t48.5 -23.5t49 -7t56 -1q121 0 174 86v57h-211h-8q-39 0 -59.5 -2t-42 -17t-21.5 -46z " />
<glyph unicode="&#xe7;" horiz-adv-x="980" d="M109 389q0 207 99 332t316 125q223 0 348 -158l-133 -133q-98 74 -184 74q-117 0 -152.5 -55.5t-35.5 -184.5t35.5 -184t152.5 -55q90 0 184 79l133 -135q-117 -160 -348 -160q-217 0 -316 125t-99 330zM246 -430l143 285h207q-27 -143 -90 -285h-260z" />
<glyph unicode="&#xe8;" d="M109 399q0 213 103 337t327 124q432 0 432 -469v-86h-606q8 -72 59 -113.5t133 -41.5q135 0 238 86l139 -138q-125 -162 -371 -161q-240 0 -347 117.5t-107 344.5zM170 1309h303q111 -168 174 -303h-227q-121 123 -250 303zM371 498h338q-14 74 -52.5 109.5t-117.5 35.5 q-78 0 -115 -36.5t-53 -108.5z" />
<glyph unicode="&#xe9;" d="M109 399q0 213 103 337t327 124q432 0 432 -469v-86h-606q8 -72 59 -113.5t133 -41.5q135 0 238 86l139 -138q-125 -162 -371 -161q-240 0 -347 117.5t-107 344.5zM371 498h338q-14 74 -52.5 109.5t-117.5 35.5q-78 0 -115 -36.5t-53 -108.5zM446 1006q63 135 175 303 h303q-129 -180 -250 -303h-228z" />
<glyph unicode="&#xea;" d="M109 399q0 213 103 337t327 124q432 0 432 -469v-86h-606q8 -72 59 -113.5t133 -41.5q135 0 238 86l137 -138q-123 -162 -369 -161q-240 0 -347 117.5t-107 344.5zM178 1004l248 307h244l248 -307h-246l-123 157l-123 -157h-248zM371 498h338q-14 74 -52.5 109.5 t-117.5 35.5q-78 0 -115 -36.5t-53 -108.5z" />
<glyph unicode="&#xeb;" d="M109 399q0 213 103 337t327 124q432 0 432 -469v-86h-606q8 -72 59 -113.5t133 -41.5q135 0 238 86l137 -138q-123 -162 -369 -161q-240 0 -347 117.5t-107 344.5zM215 1004v237h258v-237h-258zM371 498h338q-14 74 -52.5 109.5t-117.5 35.5q-78 0 -115 -36.5t-53 -108.5 zM625 1004v237h258v-237h-258z" />
<glyph unicode="&#xec;" horiz-adv-x="591" d="M-35 1309h303q111 -170 174 -305h-227q-115 119 -250 305zM205 -43v881h258v-881h-258z" />
<glyph unicode="&#xed;" horiz-adv-x="591" d="M129 -43v881h258v-881h-258zM150 1004q63 135 174 305h303q-135 -186 -250 -305h-227z" />
<glyph unicode="&#xee;" horiz-adv-x="698" d="M-20 1004l247 307h244l248 -307h-248l-123 157l-123 -157h-245zM219 -43v881h258v-881h-258z" />
<glyph unicode="&#xef;" horiz-adv-x="626" d="M-20 1004v237h258v-237h-258zM184 -43v881h258v-881h-258zM389 1004v237h258v-237h-258z" />
<glyph unicode="&#xf1;" horiz-adv-x="1120" d="M129 -43v881h258v-47q90 70 227 69q207 0 292 -100.5t85 -296.5v-506h-260v500q0 98 -44 139t-132 41q-111 0 -168 -68v-612h-258zM248 1006q43 180 225 180q53 0 141 -33q88 -27 101 -27q39 0 59 43l164 -41q-47 -182 -227 -182q-41 0 -142 35q-37 12 -53 16 q-37 8 -45 9q-43 0 -59 -41z" />
<glyph unicode="&#xf2;" d="M109 399q0 213 102 337t325.5 124t329 -124t105.5 -337q0 -211 -104.5 -335.5t-327.5 -124.5q-430 -1 -430 460zM158 1309h303q111 -168 174 -303h-227q-121 123 -250 303zM367 399q0 -119 33.5 -180t136.5 -61q104 0 139 61.5t35 180t-35 180t-139 61.5 q-102 0 -136 -60.5t-34 -181.5z" />
<glyph unicode="&#xf3;" d="M109 399q0 213 102 337t325.5 124t329 -124t105.5 -337q0 -211 -104.5 -335.5t-327.5 -124.5q-430 -1 -430 460zM367 399q0 -119 33.5 -180t136.5 -61q104 0 139 61.5t35 180t-35 180t-139 61.5q-102 0 -136 -60.5t-34 -181.5zM446 1006q63 135 175 303h303 q-129 -180 -250 -303h-228z" />
<glyph unicode="&#xf4;" d="M109 399q0 213 102 337t325.5 124t329 -124t105.5 -337q0 -211 -104.5 -335.5t-327.5 -124.5q-430 -1 -430 460zM170 1004l248 307h244l247 -307h-247l-123 157l-123 -157h-246zM367 399q0 -119 33.5 -180t136.5 -61q104 0 139 61.5t35 180t-35 180t-139 61.5 q-102 0 -136 -60.5t-34 -181.5z" />
<glyph unicode="&#xf5;" d="M190 1043q43 180 225 180q53 0 142 -33q88 -27 100 -27q39 0 60 43l163 -41q-47 -182 -227 -182q-41 0 -141 35q-37 12 -54 16q-37 8 -45 9q-43 0 -59 -41zM109 399q0 213 102 337t325.5 124t329 -124t105.5 -337q0 -211 -104.5 -335.5t-327.5 -124.5q-430 -1 -430 460z M367 399q0 -119 33.5 -180t136.5 -61q104 0 139 61.5t35 180t-35 180t-139 61.5q-102 0 -136 -60.5t-34 -181.5z" />
<glyph unicode="&#xf6;" d="M109 399q0 213 102 337t325.5 124t329 -124t105.5 -337q0 -211 -104.5 -335.5t-327.5 -124.5q-430 -1 -430 460zM211 1004v237h258v-237h-258zM367 399q0 -119 33.5 -180t136.5 -61q104 0 139 61.5t35 180t-35 180t-139 61.5q-102 0 -136 -60.5t-34 -181.5zM621 1004v237 h258v-237h-258z" />
<glyph unicode="&#xf8;" d="M100 -240l625 1596h256l-625 -1596h-256zM109 399q0 213 102 337t325.5 124t329 -124t105.5 -337q0 -211 -104.5 -335.5t-327.5 -124.5q-430 -1 -430 460zM367 399q0 -119 33.5 -180t136.5 -61q104 0 139 61.5t35 180t-35 180t-139 61.5q-102 0 -136 -60.5t-34 -181.5z " />
<glyph unicode="&#xf9;" horiz-adv-x="1120" d="M129 336v502h258v-496q0 -98 44 -139t132 -41q111 0 168 67v609h260v-881h-260v51q-90 -70 -227 -69q-375 0 -375 397zM190 1309h306q49 -74 92 -150t61 -115l19 -38h-228q-121 123 -250 303z" />
<glyph unicode="&#xfa;" horiz-adv-x="1120" d="M129 336v502h258v-496q0 -98 44 -139t132 -41q111 0 168 67v609h260v-881h-260v51q-90 -70 -227 -69q-375 0 -375 397zM449 1006q63 135 174 303h303q-129 -180 -250 -303h-227z" />
<glyph unicode="&#xfb;" horiz-adv-x="1118" d="M129 336v502h258v-496q0 -98 44 -139t132 -41q111 0 168 67v609h258v-881h-258v51q-90 -70 -227 -69q-375 0 -375 397zM193 1006l247 307h244l248 -307h-248l-123 157l-123 -157h-245z" />
<glyph unicode="&#xfc;" horiz-adv-x="1120" d="M129 336v502h258v-496q0 -98 44 -139t132 -41q111 0 168 67v609h260v-881h-260v51q-90 -70 -227 -69q-375 0 -375 397zM225 1006v237h258v-237h-258zM635 1006v237h258v-237h-258z" />
<glyph unicode="&#xfd;" horiz-adv-x="1026" d="M403 983q66 135 174 303h306q-143 -190 -250 -303h-230zM47 -305l105 147q51 -33 90 -32q57 0 90 57q23 41 43 119l-320 850h283l176 -506l182 506h283q-203 -537 -334 -867q-92 -246 -188 -321q-74 -57 -191 -58q-147 1 -219 105z" />
<glyph unicode="&#xff;" horiz-adv-x="1026" d="M185 983v236h258v-236h-258zM594 983v236h258v-236h-258zM47 -305l105 147q51 -33 90 -32q57 0 90 57q23 41 43 119l-320 850h283l176 -506l182 506h283q-203 -537 -334 -867q-92 -246 -188 -321q-74 -57 -191 -58q-147 1 -219 105z" />
<glyph unicode="&#x152;" horiz-adv-x="2582" d="M1514 -43v1235h905v-238h-647v-241h584v-238h-584v-280h647v-238h-905zM129 592q0 614 545 614q547 0 547 -614q0 -100 -5.5 -167t-33 -157t-80.5 -153q-145 -176 -428 -176q-281 0 -428 176q-53 63 -81 154t-32 155t-4 168zM389 565q0 -100 7 -159.5t35 -119t87.5 -86 t155.5 -26.5t155.5 26.5t86 85t34.5 118t8 159.5q0 82 -3 133.5t-19 109.5t-45 91t-84 54.5t-133 21.5t-133.5 -21.5t-84 -53.5t-45 -91t-19.5 -109.5t-3 -132.5z" />
<glyph unicode="&#x153;" horiz-adv-x="2158" d="M1188 399q0 213 103 337t327 124q432 0 432 -469v-86h-606q8 -72 59 -113.5t133 -41.5q135 0 238 86l139 -138q-125 -162 -371 -161q-240 0 -347 117.5t-107 344.5zM1450 498h338q-14 74 -52.5 109.5t-117.5 35.5q-78 0 -115 -36.5t-53 -108.5zM109 399q0 213 102 337 t325.5 124t329 -124t105.5 -337q0 -211 -104.5 -335.5t-327.5 -124.5q-430 -1 -430 460zM367 399q0 -119 33.5 -180t136.5 -61q104 0 139 61.5t35 180t-35 180t-139 61.5q-102 0 -136 -60.5t-34 -181.5z" />
<glyph unicode="&#x178;" horiz-adv-x="1210" d="M271 1329v236h258v-236h-258zM680 1329v236h258v-236h-258zM78 1192h282l244 -404l250 404h279l-400 -647v-588h-258v588z" />
<glyph unicode="&#x2c6;" horiz-adv-x="1011" d="M109 713l301 532h192l301 -532h-258l-139 266l-139 -266h-258z" />
<glyph unicode="&#x2dc;" horiz-adv-x="368" d="M-346 183q43 180 225 180q53 0 142 -33q88 -27 100 -27q39 0 60 43l163 -41q-47 -182 -227 -182q-41 0 -141 35q-37 12 -54 16q-37 8 -45 9q-43 0 -59 -41z" />
<glyph unicode="&#x2013;" horiz-adv-x="1212" d="M205 346v219h803v-219h-803z" />
<glyph unicode="&#x2014;" horiz-adv-x="1746" d="M205 346v219h1337v-219h-1337z" />
<glyph unicode="&#x2018;" horiz-adv-x="505" d="M96 1001q31 193 209 259l109 -113q-63 -80 -64 -182q0 -74 39 -154h-276q-35 96 -17 190z" />
<glyph unicode="&#x2019;" horiz-adv-x="542" d="M109 918q53 55 70.5 94t17.5 96q0 47 -50 147h277q27 -74 27 -141q0 -211 -222 -305z" />
<glyph unicode="&#x201c;" horiz-adv-x="880" d="M98 1001q31 193 209 259l111 -113q-66 -80 -66 -182q0 -74 39 -154h-276q-35 96 -17 190zM453 1001q31 193 209 259l110 -113q-63 -78 -63 -182q0 -78 36 -154h-276q-34 96 -16 190z" />
<glyph unicode="&#x201d;" horiz-adv-x="878" d="M109 920q63 84 63 184q0 72 -39 151h279q31 -88 16 -190q-35 -190 -211 -256zM463 920q63 80 63 184q0 76 -37 151h277q35 -96 16 -190q-31 -190 -209 -256z" />
<glyph unicode="&#x2022;" horiz-adv-x="970" d="M150 567q0 131 93 225.5t226 94.5q131 0 226.5 -94.5t95.5 -225.5q0 -133 -94.5 -226t-227.5 -93t-226 93t-93 226z" />
<glyph unicode="&#x2026;" horiz-adv-x="1363" d="M1007 -43v236h258v-236h-258zM553 -43v236h258v-236h-258zM98 -43v236h258v-236h-258z" />
<glyph unicode="&#x2039;" horiz-adv-x="983" d="M139 340v225l715 299v-258l-401 -153l401 -150v-260z" />
<glyph unicode="&#x203a;" horiz-adv-x="983" d="M129 43v260l399 150l-399 153v258l715 -299v-225z" />
<glyph unicode="&#x2044;" horiz-adv-x="716" d="M-41 -240l647 1596h258l-647 -1596h-258z" />
<glyph unicode="&#x2122;" horiz-adv-x="2856" d="M1391 -43v1235h325l324 -819l328 819h325v-1235h-258v748l-272 -713h-244l-270 713v-748h-258zM88 954v238h1051v-238h-398v-997h-258v997h-395z" />
<glyph unicode="&#xe000;" horiz-adv-x="840" d="M0 840h840v-840h-840v840z" />
<glyph unicode="&#xfb01;" horiz-adv-x="1398" d="M1012 -43v881h258v-881h-258zM1012 952v238h258v-238h-258zM88 645v193h141v34q0 150 70 244t225 94q193 0 312 -163l-134 -134q-84 74 -129 74q-53 0 -69.5 -26.5t-16.5 -92.5v-30h267v-193h-267v-688h-258v688h-141z" />
<glyph unicode="&#xfb02;" horiz-adv-x="1398" d="M1012 -43v1235h258v-1235h-258zM88 645v193h141v34q0 150 70 244t225 94q193 0 312 -163l-134 -134q-84 74 -129 74q-53 0 -69.5 -26.5t-16.5 -92.5v-30h267v-193h-267v-688h-258v688h-141z" />
<glyph unicode="&#xfb03;" horiz-adv-x="2281" d="M1894 -43v881h258v-881h-258zM1894 952v238h258v-238h-258zM971 645v193h141v34q0 150 70 244t225 94q193 0 312 -163l-134 -134q-84 74 -129 74q-53 0 -69.5 -26.5t-16.5 -92.5v-30h267v-193h-267v-688h-258v688h-141zM88 645v193h141v34q0 150 70 244t225 94 q193 0 312 -163l-134 -134q-84 74 -129 74q-53 0 -69.5 -26.5t-16.5 -92.5v-30h267v-193h-267v-688h-258v688h-141z" />
<glyph unicode="&#xfb04;" horiz-adv-x="2281" d="M1894 -43v1235h258v-1235h-258zM971 645v193h141v34q0 150 70 244t225 94q193 0 312 -163l-134 -134q-84 74 -129 74q-53 0 -69.5 -26.5t-16.5 -92.5v-30h267v-193h-267v-688h-258v688h-141zM88 645v193h141v34q0 150 70 244t225 94q193 0 312 -163l-134 -134 q-84 74 -129 74q-53 0 -69.5 -26.5t-16.5 -92.5v-30h267v-193h-267v-688h-258v688h-141z" />
</font>
</defs>
</svg>
