<?xml version="1.0" standalone="no"?>
<!DOCTYPE svg PUBLIC "-//W3C//DTD SVG 1.1//EN" "http://www.w3.org/Graphics/SVG/1.1/DTD/svg11.dtd" >
<svg xmlns="http://www.w3.org/2000/svg">
<metadata>
This is a custom SVG webfont generated by Font Squirrel.
Copyright   : Copyright c 2011 by PYRS Fontlab Ltd  Made with FontLab All rights reserved
Designer    : Sofa Savoy Anguita  Gley Riquelme Van
Foundry     : PYRS Fontlab Ltd  Made with FontLab
</metadata>
<defs>
<font id="HospitalRegular" horiz-adv-x="921" >
<font-face units-per-em="2048" ascent="1530" descent="-518" />
<missing-glyph horiz-adv-x="409" />
<glyph unicode=" "  horiz-adv-x="409" />
<glyph unicode="&#x09;" horiz-adv-x="409" />
<glyph unicode="&#xa0;" horiz-adv-x="409" />
<glyph unicode="!" horiz-adv-x="425" d="M133 840v350h135v-338q0 -229 -26 -598h-82q-27 361 -27 586zM137 -45v147h127v-147h-127z" />
<glyph unicode="&#x22;" horiz-adv-x="628" d="M102 881q74 102 74 254q0 61 -20 114h131q14 -51 14 -116q0 -233 -143 -318zM342 881q74 104 74 249q0 66 -21 119h131q14 -51 15 -116q0 -98 -35 -186.5t-109 -131.5z" />
<glyph unicode="#" horiz-adv-x="1241" d="M152 346v115h176l49 225h-144v113h170l89 391h126l-86 -391h281l86 391h129l-86 -391h148v-113h-175l-51 -225h146v-115h-170l-88 -389h-129l88 389h-281l-88 -389h-127l86 389h-149zM455 461h282l49 225h-280z" />
<glyph unicode="$" horiz-adv-x="1040" d="M113 133l86 76q109 -117 262 -139v452q-152 41 -235 115t-83 215q0 152 83 244t235 108v150h125v-150q86 -8 169 -44t126 -93l-78 -88q-96 86 -217 98v-456q170 -43 256 -119t86 -234q0 -154 -91.5 -236.5t-250.5 -92.5v-179h-125v181q-104 10 -197.5 60t-150.5 132z M270 854q0 -90 47.5 -132t143.5 -69v424q-191 -26 -191 -223zM586 66q215 12 215 206q0 100 -52.5 144.5t-162.5 72.5v-423z" />
<glyph unicode="%" horiz-adv-x="1208" d="M88 950q0 63 6 109.5t24.5 95.5t61.5 75.5t107 26.5q55 0 94 -18t60.5 -45t34.5 -71t16.5 -81.5t3.5 -91.5q0 -66 -6.5 -111.5t-25 -94t-62.5 -74t-109 -25.5q-68 0 -111 24.5t-62.5 74t-25.5 94t-6 112.5zM182 913q0 -39 3 -63.5t13.5 -53t34 -43t60.5 -14.5 q33 0 54.5 13.5t31.5 28t15 46t6 48t1 53.5v59q0 51 -5 84t-31.5 62.5t-73.5 29.5q-37 0 -61.5 -16.5t-34 -49t-11.5 -56t-2 -64.5v-64zM246 -238l596 1594h121l-596 -1594h-121zM713 166q0 63 6 109.5t24.5 95.5t61.5 75.5t106 26.5q55 0 96.5 -19.5t63 -47t32.5 -73.5 t14 -84t3 -91q0 -66 -6 -111t-25.5 -91t-62.5 -70.5t-108 -24.5q-68 0 -111 24.5t-62.5 73.5t-25.5 94t-6 113zM807 127q0 -51 5 -83t30.5 -61.5t75.5 -29.5q47 0 72.5 28.5t30.5 60.5t5 83v78q0 51 -5 83.5t-31.5 62.5t-74.5 30q-37 0 -61.5 -16.5t-33.5 -49t-11 -56.5 t-2 -64v-66z" />
<glyph unicode="&#x26;" horiz-adv-x="1105" d="M88 276q0 213 248 373q-6 12 -24.5 28.5t-22.5 20.5q-111 111 -111 256q0 115 85 184.5t202 69.5q121 0 203 -73.5t82 -194.5q0 -188 -226 -326l273 -338q92 111 129 254l121 -30q-43 -178 -173 -324l177 -219h-164l-99 129q-145 -145 -348 -145q-143 0 -247.5 97 t-104.5 238zM213 276q0 -90 67.5 -150t159.5 -60q154 0 269 118l-295 367q-201 -130 -201 -275zM303 942q0 -47 49 -126t92 -101q180 100 181 227q0 68 -46.5 104.5t-113.5 36.5q-70 0 -116 -36.5t-46 -104.5z" />
<glyph unicode="'" horiz-adv-x="389" d="M102 821q74 100 74 254q0 61 -20 115h131q14 -55 14 -117q0 -233 -143 -319z" />
<glyph unicode="(" horiz-adv-x="696" d="M164 557q0 604 242 770q70 47 124 45h2v-86q-244 -96 -243 -729q0 -66 4 -138.5t18.5 -179t39 -188.5t71.5 -145.5t110 -73.5v-84l-12 -2q-53 -2 -117 39q-239 149 -239 772z" />
<glyph unicode=")" horiz-adv-x="696" d="M164 -168q63 10 110.5 73.5t72 145.5t38.5 188.5t18.5 179.5t4.5 138q0 633 -244 729v86h4q55 2 125 -45q240 -164 239 -770q0 -623 -239 -772q-63 -41 -115 -39l-14 2v84z" />
<glyph unicode="*" horiz-adv-x="737" d="M41 993l41 92q205 -90 237 -106q-6 55 -6 108q0 27 2 82.5t2 81.5h101q0 -27 2 -85t1 -103t-5 -84q23 12 239 106l41 -94q-217 -96 -254 -106q33 -31 61.5 -67t69.5 -94t54 -75l-82 -61q-14 18 -58.5 73.5t-71 94.5t-46.5 80q-20 -41 -48 -80t-71 -93.5t-60 -74.5l-79 61 q14 20 53 74.5t67.5 92.5t61.5 69q-39 12 -81 29.5t-93 42t-78 36.5z" />
<glyph unicode="+" horiz-adv-x="944" d="M113 377v115h303v301h112v-301h303v-115h-303v-303h-112v303h-303z" />
<glyph unicode="," horiz-adv-x="364" d="M41 -332q43 250 92 434h139q-82 -266 -149 -434h-82z" />
<glyph unicode="-" horiz-adv-x="1087" d="M184 356v115h719v-115h-719z" />
<glyph unicode="." horiz-adv-x="309" d="M92 -43v145h125v-145h-125z" />
<glyph unicode="/" horiz-adv-x="962" d="M143 -238l596 1594h121l-596 -1594h-121z" />
<glyph unicode="0" horiz-adv-x="964" d="M123 413v93v221q0 104 14.5 183t50 151t109.5 109.5t182 37.5q94 0 162 -30.5t105.5 -78.5t60 -122t29 -140.5t6.5 -154.5q0 -39 -2 -113.5t-2 -111.5q0 -94 -5.5 -157.5t-26 -138.5t-57 -119t-104 -74.5t-164.5 -30.5q-59 0 -107 11t-83 27.5t-62.5 49t-45 58.5t-30 74 t-18.5 78.5t-9 89t-3 88.5zM248 432q0 -51 1 -77.5t5 -72.5t12 -71t25.5 -57.5t41 -49t61.5 -29t87 -12.5q63 0 108.5 20.5t69 50.5t36 81t15.5 92t3 105l-2 282v80q0 20 -4.5 73.5t-12.5 76t-24.5 60.5t-41 54.5t-62.5 30.5t-87 14q-55 0 -97 -14t-66.5 -46t-39 -61.5 t-20.5 -82t-7 -84t-1 -90.5v-273z" />
<glyph unicode="1" horiz-adv-x="649" d="M102 784l277 406h137v-1233h-127v1036l-199 -272z" />
<glyph unicode="2" horiz-adv-x="972" d="M123 1071q51 63 143 99t180 36q174 0 282 -88t108 -260q0 -68 -35 -144.5t-71 -123.5t-97 -115l-342 -395h559v-125h-715v139l309 355q4 4 59.5 64t76 88t59.5 81t55.5 97t16.5 83q0 115 -72 167t-190 52q-57 0 -126 -23.5t-110 -60.5z" />
<glyph unicode="3" horiz-adv-x="976" d="M123 88l92 74q100 -100 252 -101q119 0 189.5 57.5t70.5 174.5q0 80 -24.5 131t-74.5 75.5t-102.5 33t-132.5 8.5v125q57 0 81 1t71 6t67.5 17t47 33.5t37 58.5t10.5 88q0 102 -62.5 156.5t-167.5 54.5q-156 0 -241 -84l-93 74q109 137 332 137q156 0 257.5 -90 t101.5 -244q0 -182 -117 -270q137 -94 137 -311q0 -178 -103.5 -268.5t-283.5 -90.5q-223 0 -344 154z" />
<glyph unicode="4" horiz-adv-x="960" d="M102 309v131l502 750h139v-756h115v-125h-115v-352h-125v352h-516zM250 434h368v551z" />
<glyph unicode="5" horiz-adv-x="974" d="M123 84l86 76q74 -57 130 -78t146 -21q129 0 184.5 68t55.5 199q0 139 -54.5 204.5t-189.5 65.5q-147 0 -231 -82l-96 64v610h630v-127h-505v-383q80 43 210 43q184 0 273.5 -103.5t89.5 -291.5q0 -180 -92 -285.5t-271 -105.5q-121 0 -206.5 31.5t-159.5 115.5z" />
<glyph unicode="6" horiz-adv-x="962" d="M123 266v590q0 170 110.5 261t284.5 91q158 0 277 -92l-70 -92q-98 59 -205 59q-272 0 -272 -235v-191q90 66 231 66q360 0 361 -404q0 -383 -373 -382q-150 0 -247 89.5t-97 239.5zM248 322q0 -258 229 -259q127 0 182.5 65t55.5 194q0 141 -49.5 208.5t-186.5 67.5 q-129 0 -180 -71.5t-51 -204.5z" />
<glyph unicode="7" horiz-adv-x="925" d="M102 -43l584 1108h-580v125h717v-135l-577 -1098h-144z" />
<glyph unicode="8" horiz-adv-x="968" d="M123 293q0 211 135 311q-115 88 -115 266q0 156 91.5 247t244.5 91q160 0 253 -90t93 -248q0 -178 -116 -268q137 -102 137 -309q0 -164 -100.5 -260t-264.5 -96t-261 97t-97 259zM248 297q0 -111 59.5 -173.5t167.5 -62.5q115 0 179.5 57.5t64.5 172.5 q0 119 -60.5 186.5t-177.5 67.5q-115 0 -174 -66.5t-59 -181.5zM268 870q0 -209 215 -208q217 0 217 206q0 100 -55 157.5t-156 57.5q-104 0 -162.5 -53.5t-58.5 -159.5z" />
<glyph unicode="9" horiz-adv-x="962" d="M123 825q0 383 373 383q150 0 247 -90t97 -237v-592q0 -170 -111 -261t-285 -91q-158 0 -276 92l70 92q98 -59 204 -60q272 0 273 236v190q-94 -66 -232 -65q-360 0 -360 403zM248 823q0 -141 50 -208.5t185 -67.5q129 0 180.5 71.5t51.5 206.5q0 258 -230 258 q-127 0 -182 -65.5t-55 -194.5z" />
<glyph unicode=":" horiz-adv-x="309" d="M92 -43v145h125v-145h-125zM92 668v147h125v-147h-125z" />
<glyph unicode=";" horiz-adv-x="364" d="M41 -332q43 250 92 434h139q-82 -266 -149 -434h-82zM139 668v145h125v-145h-125z" />
<glyph unicode="&#x3c;" horiz-adv-x="897" d="M133 332v166l662 276v-141l-545 -219l545 -217v-142z" />
<glyph unicode="=" horiz-adv-x="1056" d="M164 209v115h719v-115h-719zM164 465v115h719v-115h-719z" />
<glyph unicode="&#x3e;" horiz-adv-x="897" d="M102 55v142l545 217l-545 219v141l662 -276v-166z" />
<glyph unicode="?" horiz-adv-x="804" d="M61 1026q121 164 312 164q160 0 244.5 -83t84.5 -243q0 -82 -39.5 -154.5t-88 -117.5t-88.5 -109.5t-40 -134.5q0 -16 1.5 -47t1.5 -45h-125v127q0 59 25.5 114.5t62.5 97.5t74.5 83t63 90t25.5 102q0 102 -48 147.5t-150 45.5q-115 0 -230 -115zM324 -43v145h125v-145 h-125z" />
<glyph unicode="@" horiz-adv-x="1572" d="M102 496q0 295 197 503.5t489 208.5q324 0 503 -196.5t179 -522.5q0 -82 -9 -143t-34.5 -125.5t-82 -99.5t-140.5 -35q-74 0 -129 36t-82 103q-16 -59 -95 -98t-148 -39q-311 0 -312 406q0 403 312 403q63 0 125.5 -27.5t95.5 -76.5v84h112v-314q-6 -199 4 -248 q4 -53 34 -84.5t83 -31.5t87 25.5t47.5 75.5t16.5 86t3 93q0 283 -144.5 450t-422.5 167q-250 0 -413 -177.5t-163 -429.5q0 -264 157.5 -443t418.5 -179q111 0 219 45l30 -70q-123 -66 -276 -65q-295 0 -478.5 210t-183.5 509zM551 494q0 -141 45 -222.5t174 -81.5 q115 0 201 109v387q-86 109 -201 109q-129 0 -174 -81t-45 -220z" />
<glyph unicode="A" horiz-adv-x="1081" d="M72 -43l366 1233h205l367 -1233h-140l-116 397h-426l-117 -397h-139zM360 471h361l-180 592z" />
<glyph unicode="B" horiz-adv-x="1087" d="M158 -43v1233h379q176 0 287.5 -81t111.5 -251q0 -94 -34 -151.5t-116 -102.5q92 -27 145.5 -114t53.5 -187q0 -176 -100.5 -261t-278.5 -85h-448zM283 82h319q131 0 197.5 53t66.5 182q0 113 -70.5 165.5t-187.5 52.5h-325v-453zM283 651h280q254 0 254 211 q0 102 -72.5 152.5t-179.5 50.5h-282v-414z" />
<glyph unicode="C" horiz-adv-x="1058" d="M123 573q0 111 11 197t42 171t83 141.5t139 91t204 34.5q242 0 352 -141l-82 -80q-66 55 -125 75.5t-145 20.5q-92 0 -159.5 -29.5t-103.5 -73.5t-57.5 -115.5t-26.5 -136t-5 -155.5q0 -92 5 -154.5t25.5 -135t56.5 -115.5t103.5 -72.5t161.5 -29.5q88 0 146.5 19 t123.5 73l84 -80q-119 -139 -354 -139q-145 0 -243.5 49t-147.5 142t-68.5 197.5t-19.5 245.5z" />
<glyph unicode="D" horiz-adv-x="1140" d="M158 -43v1233h446q113 0 191.5 -37t120.5 -89t66 -142.5t30 -163t6 -183.5q0 -92 -4 -155.5t-16.5 -142t-40 -130t-71.5 -98.5t-116 -69.5t-166 -22.5h-446zM283 82h321q74 0 128 24.5t85 61.5t48.5 94t22.5 110.5t5 125.5v112q0 76 -4 129.5t-20.5 120t-46 107.5 t-85 69.5t-133.5 28.5h-321v-983z" />
<glyph unicode="E" horiz-adv-x="1099" d="M158 -43v1233h784v-125h-659v-412h598v-125h-598v-446h659v-125h-784z" />
<glyph unicode="F" horiz-adv-x="1075" d="M158 -43v1233h784v-125h-659v-412h518v-125h-518v-571h-125z" />
<glyph unicode="G" horiz-adv-x="1087" d="M123 567q0 109 10 196t41 173t82 143.5t137 93t203 35.5q244 0 358 -141l-82 -80q-74 55 -129 75.5t-141 20.5q-94 0 -161.5 -30.5t-103.5 -74.5t-56.5 -118t-25.5 -137.5t-5 -155.5q0 -90 5 -153.5t26.5 -134t57.5 -113.5t102.5 -71.5t160.5 -28.5q154 0 223 65v338 h-254v115h379v-500q-96 -145 -348 -145q-143 0 -241.5 48t-148.5 140t-69.5 196.5t-19.5 243.5z" />
<glyph unicode="H" horiz-adv-x="1142" d="M158 -43v1233h125v-539h577v539h125v-1233h-125v578h-577v-578h-125z" />
<glyph unicode="I" horiz-adv-x="440" d="M158 -43v1233h125v-1233h-125z" />
<glyph unicode="J" horiz-adv-x="868" d="M106 35l78 88q86 -57 187 -57q39 0 70.5 6t54 22.5t38 29.5t24.5 43t15.5 47t8.5 57t2 58v62v799h127v-848q-2 -193 -78 -298t-260 -105q-161 0 -267 96z" />
<glyph unicode="K" horiz-adv-x="1062" d="M158 -43v1233h125v-633l503 633h164l-438 -547l473 -686h-166l-393 582l-143 -179v-403h-125z" />
<glyph unicode="L" horiz-adv-x="843" d="M158 -43v1233h125v-1108h469v-125h-594z" />
<glyph unicode="M" horiz-adv-x="1460" d="M158 -43v1233h196l375 -1006l377 1006h197v-1233h-125v1065l-381 -1018h-133l-381 1018v-1065h-125z" />
<glyph unicode="N" horiz-adv-x="1142" d="M158 -43v1233h196l506 -1098v1098h125v-1233h-201l-501 1090v-1090h-125z" />
<glyph unicode="O" horiz-adv-x="1183" d="M123 594q0 131 20.5 233.5t69.5 192.5t145.5 139t233.5 49q469 0 469 -614q0 -111 -3 -175.5t-26.5 -158.5t-70.5 -156q-125 -168 -369 -167.5t-369 167.5q-47 61 -70.5 155.5t-26.5 159t-3 175.5zM250 551q0 -88 5 -149.5t25.5 -130t55.5 -110.5t100.5 -70t155.5 -28 q84 0 146.5 24t99 62.5t59.5 99t30 122t7 141.5q0 256 -31 354q-63 215 -311 215q-80 0 -140.5 -19.5t-97.5 -62.5t-58.5 -86t-31.5 -113.5t-12 -119.5t-2 -129z" />
<glyph unicode="P" horiz-adv-x="1054" d="M158 -43v1233h395q178 0 278.5 -90t100.5 -264q0 -94 -23.5 -162t-62.5 -108t-102.5 -62.5t-128 -29.5t-154.5 -7h-178v-510h-125zM283 594h272q117 0 187.5 56.5t70.5 168.5q0 246 -264 246h-266v-471z" />
<glyph unicode="Q" horiz-adv-x="1163" d="M123 594q0 131 20.5 233.5t69.5 192.5t145.5 139t233.5 49q469 0 469 -614q0 -98 -3 -156.5t-18.5 -143.5t-52.5 -149.5t-96 -111.5l127 -213h-144l-92 151q-94 -35 -190 -34q-244 0 -369 167q-47 61 -70.5 155.5t-26.5 159t-3 175.5zM250 551q0 -88 5 -149.5t25.5 -130 t55.5 -110.5t100.5 -70t155.5 -28q70 0 125 17l-113 188h146l75 -127q51 47 77 126t29 131.5t3 150.5q0 80 -2 130t-12.5 120.5t-33 113.5t-58 86t-96 62.5t-140.5 19.5q-70 0 -124 -16t-89 -42t-60.5 -70t-39 -84t-20.5 -101t-8 -105t-1 -112z" />
<glyph unicode="R" horiz-adv-x="1073" d="M158 -43v1233h395q178 0 278.5 -85t100.5 -261q0 -274 -203 -344l256 -543h-137l-246 516h-319v-516h-125zM283 598h272q117 0 187.5 58.5t70.5 172.5q0 127 -66.5 181.5t-197.5 54.5h-266v-467z" />
<glyph unicode="S" horiz-adv-x="1040" d="M113 133l86 78q135 -145 327 -145q131 0 203 43t72 163q0 74 -36 121t-94.5 70.5t-128 41t-140 39t-129 53.5t-94.5 97.5t-36 159.5q0 170 103.5 262t275.5 92q102 0 204.5 -34.5t154.5 -104.5l-78 -88q-115 102 -281 102q-252 0 -252 -227q0 -70 36 -115t94.5 -67.5 t128 -39t140 -39t129 -56t94.5 -102t36 -167.5q0 -172 -108.5 -251.5t-287.5 -79.5q-125 0 -238 49t-181 145z" />
<glyph unicode="T" horiz-adv-x="1095" d="M82 1071v119h932v-119h-404v-1114h-125v1114h-403z" />
<glyph unicode="U" horiz-adv-x="1247" d="M158 547v332v311h125v-658q0 -104 12 -178.5t46 -145.5t104.5 -108t177.5 -37q109 0 179 37t105 108t47.5 145.5t12.5 178.5v658h123v-248v-373v-86q-2 -248 -115 -397t-352 -149q-137 0 -232.5 48t-144.5 137t-68.5 190.5t-19.5 234.5z" />
<glyph unicode="V" horiz-adv-x="1081" d="M72 1190h139l330 -1096l329 1096h140l-367 -1233h-205z" />
<glyph unicode="W" horiz-adv-x="1603" d="M72 1190h129l264 -1096l264 1092h148l264 -1092l264 1096h127l-291 -1233h-203l-235 999l-236 -999h-205z" />
<glyph unicode="X" horiz-adv-x="1120" d="M102 -43l385 641l-358 592h147l285 -473l283 473h147l-358 -592l385 -641h-141l-316 522l-317 -522h-142z" />
<glyph unicode="Y" horiz-adv-x="1003" d="M72 1190h147l283 -500l284 500h146l-369 -629v-604h-125v604z" />
<glyph unicode="Z" horiz-adv-x="1101" d="M137 -43v115l676 1005h-649v113h801v-113l-676 -1005h676v-115h-828z" />
<glyph unicode="[" horiz-adv-x="759" d="M164 -256v1626h350v-110h-225v-1403h225v-113h-350z" />
<glyph unicode="\" horiz-adv-x="962" d="M102 1356h121l596 -1594h-121z" />
<glyph unicode="]" horiz-adv-x="759" d="M246 -143h225v1403h-225v110h350v-1626h-350v113z" />
<glyph unicode="^" horiz-adv-x="864" d="M102 741l248 467h164l248 -467h-141l-189 349l-188 -349h-142z" />
<glyph unicode="_" horiz-adv-x="1306" d="M184 -43v94h938v-94h-938z" />
<glyph unicode="`" horiz-adv-x="776" d="M143 1300h164q129 -207 162 -282h-107q-92 112 -219 282z" />
<glyph unicode="a" horiz-adv-x="937" d="M102 207q0 258 316 258h272v10q2 143 -64.5 195.5t-213.5 52.5q-131 0 -199 -53l-59 61q102 104 297 105q365 0 364 -363v-516h-125v92q-90 -111 -274 -110q-135 0 -224.5 68.5t-89.5 199.5zM227 209q0 -154 230 -154q172 0 233 115v178h-233q-51 0 -82 -3t-70 -14.5 t-58.5 -42t-19.5 -79.5z" />
<glyph unicode="b" horiz-adv-x="942" d="M123 -43v1233h125v-469q35 53 104.5 84t141.5 31q346 0 346 -448.5t-346 -448.5q-72 0 -141.5 30.5t-104.5 85.5v-98h-125zM248 172q98 -121 225 -121q76 0 126 26.5t74.5 78t33 104.5t8.5 127t-8.5 127t-33 104.5t-74.5 78t-126 26.5q-127 0 -225 -121v-430z" />
<glyph unicode="c" horiz-adv-x="813" d="M102 387.5q0 448.5 347 448.5q74 0 151.5 -27t110.5 -78l-58 -63q-68 55 -174 55q-150 0 -201 -87t-51 -249t51.5 -249t200.5 -87q109 0 174 58l58 -64q-33 -51 -111 -78.5t-151 -27.5q-347 0 -347 448.5z" />
<glyph unicode="d" horiz-adv-x="942" d="M102 387.5q0 448.5 347 448.5q72 0 141 -31t104 -84v469h125v-1233h-125v98q-35 -55 -104.5 -85.5t-140.5 -30.5q-347 0 -347 448.5zM227 387q0 -74 8.5 -127t33 -104.5t74.5 -78t126 -26.5q127 0 225 121v430q-98 121 -225 121q-76 0 -126 -26.5t-74.5 -78t-33 -104.5 t-8.5 -127z" />
<glyph unicode="e" d="M102 385q0 449 359 449q362 0 358 -445l-2 -43h-590q4 -143 59.5 -222t190.5 -79q164 0 230 59l57 -63q-35 -55 -115 -81t-160 -26q-215 0 -301 115t-86 336zM231 463h459q-18 256 -229.5 256t-229.5 -256z" />
<glyph unicode="f" horiz-adv-x="706" d="M82 702v113h137v40v48q0 14 1 46t4 50.5t9.5 43t14.5 44t20 35.5q63 86 176 86q63 0 126 -27.5t96 -76.5l-60 -62q-55 55 -141 56q-121 0 -121 -154v-129h262v-113h-262v-745h-125v745h-137z" />
<glyph unicode="g" horiz-adv-x="942" d="M102 387.5q0 448.5 347 448.5q72 0 141 -31t104 -84v94h125v-774q0 -221 -87 -336t-302 -115q-80 0 -160 26t-114 81l57 63q72 -61 221 -61q264 0 260 293v61q-35 -53 -104.5 -83.5t-140.5 -30.5q-347 0 -347 448.5zM227 387q0 -74 8.5 -127t33 -104.5t74.5 -78 t126 -26.5q127 0 225 121v430q-98 121 -225 121q-76 0 -126 -26.5t-74.5 -78t-33 -104.5t-8.5 -127z" />
<glyph unicode="h" horiz-adv-x="962" d="M123 -43v1233h125v-469q35 53 104.5 84t141.5 31q346 0 346 -449v-430h-125v430q0 74 -8.5 127t-33 104.5t-74.5 78t-126 26.5q-129 0 -225 -121v-645h-125z" />
<glyph unicode="i" horiz-adv-x="370" d="M123 -43v858h125v-858h-125zM123 1044v146h125v-146h-125z" />
<glyph unicode="j" horiz-adv-x="397" d="M-113 -356l50 71q35 -18 86 -18q45 0 72.5 15.5t37.5 50t12 58t2 73.5v921h127v-870q0 -51 -2 -86t-9 -80t-22.5 -76t-40 -58.5t-64.5 -41t-93 -13.5q-105 1 -156 54zM147 1044v146h127v-146h-127z" />
<glyph unicode="k" horiz-adv-x="851" d="M123 -43v1233h125v-768l362 393h156l-305 -330l330 -528h-140l-274 438l-129 -139v-299h-125z" />
<glyph unicode="l" horiz-adv-x="370" d="M123 -43v1233h125v-1233h-125z" />
<glyph unicode="m" horiz-adv-x="1556" d="M123 -43v858h125v-94q35 57 111.5 86t154.5 29q86 0 170 -35t121 -103q35 66 119 102t168 36q342 0 342 -385v-494h-125v494q0 141 -49.5 203.5t-186.5 62.5q-70 0 -133 -33t-92 -90v-637h-125v494q0 141 -49 203.5t-187 62.5q-70 0 -136 -34t-103 -89v-637h-125z" />
<glyph unicode="n" horiz-adv-x="960" d="M123 -43v858h125v-94q31 55 103.5 85t146.5 30q340 0 340 -383v-496h-125v397q0 178 -11 224q-31 123 -176 137q-23 2 -49 2q-68 0 -132 -33t-97 -90v-637h-125z" />
<glyph unicode="o" d="M102 387q0 449 358.5 449t358.5 -449q0 -451 -358.5 -451t-358.5 451zM227 387q0 -72 8.5 -124t31 -104.5t71.5 -80t123 -27.5q72 0 121 27.5t71.5 80t30.5 104.5t8 124q0 70 -8 123t-30.5 105.5t-72 80t-120.5 27.5q-74 0 -123 -27.5t-71.5 -80t-31 -104.5t-8.5 -124z " />
<glyph unicode="p" horiz-adv-x="942" d="M123 -410v1223h125v-92q35 53 104.5 84t141.5 31q346 0 346 -448.5t-346 -448.5q-72 0 -141.5 30.5t-104.5 83.5v-463h-125zM248 172q98 -121 225 -121q76 0 126 26.5t74.5 78t33 104.5t8.5 127t-8.5 127t-33 104.5t-74.5 78t-126 26.5q-127 0 -225 -121v-430z" />
<glyph unicode="q" horiz-adv-x="942" d="M102 387.5q0 448.5 347 448.5q72 0 141 -31t104 -84v92h125v-1223h-125v463q-35 -53 -104.5 -83.5t-140.5 -30.5q-347 0 -347 448.5zM227 387q0 -74 8.5 -127t33 -104.5t74.5 -78t126 -26.5q127 0 225 121v430q-98 121 -225 121q-76 0 -126 -26.5t-74.5 -78t-33 -104.5 t-8.5 -127z" />
<glyph unicode="r" horiz-adv-x="770" d="M123 -43v858h125v-94q74 115 221 115q150 0 219 -78l-84 -86q-63 53 -137 53q-121 0 -219 -123v-645h-125z" />
<glyph unicode="s" horiz-adv-x="833" d="M102 76l58 63q104 -86 233 -86q98 0 155.5 29t57.5 117q0 68 -50 99.5t-123 40.5t-145.5 23.5t-122.5 68.5t-50 153q0 252 305 252q180 0 278 -107l-59 -63q-78 63 -203 63q-197 0 -196 -139q0 -66 50 -95.5t122.5 -39t145.5 -24.5t123 -70.5t50 -157.5 q0 -131 -81 -198.5t-214 -67.5q-223 0 -334 139z" />
<glyph unicode="t" horiz-adv-x="688" d="M82 700v115h137v229h125v-229h262v-115h-262l2 -469q0 -47 3 -71.5t13.5 -56t38 -46t70.5 -14.5q39 0 86 18l47 -71q-49 -51 -153 -51q-49 0 -87 14t-63 30.5t-41 55.5t-24.5 61.5t-12.5 75.5t-4 75v79v370h-137z" />
<glyph unicode="u" horiz-adv-x="962" d="M123 387v428h125v-428q0 -74 8 -127t32.5 -104.5t75 -78t125.5 -26.5q129 0 226 121v643h125v-858h-125v96q-37 -53 -106.5 -83.5t-139.5 -30.5q-346 -1 -346 448z" />
<glyph unicode="v" horiz-adv-x="841" d="M61 815h142l213 -741l223 741h141l-276 -858h-166z" />
<glyph unicode="w" horiz-adv-x="1341" d="M61 815h142l178 -731l207 731h166l207 -731l178 731h141l-233 -858h-166l-209 729l-211 -729h-164z" />
<glyph unicode="x" horiz-adv-x="833" d="M61 -43l285 432l-276 426h145l205 -315l207 315h135l-277 -420l287 -438h-145l-213 328l-217 -328h-136z" />
<glyph unicode="y" horiz-adv-x="833" d="M41 -362l49 73q25 -14 66 -14q29 0 53 7t42.5 27.5t31 34t26 47t17.5 46t15 52.5t13 46l-295 858h142l221 -698l229 698h142q-274 -784 -301 -858q-27 -76 -62 -156q-45 -113 -104 -163q-57 -47 -146 -48q-106 1 -139 48z" />
<glyph unicode="z" horiz-adv-x="847" d="M102 -43v113l486 630h-471v115h628v-115l-485 -630h485v-113h-643z" />
<glyph unicode="{" horiz-adv-x="573" d="M53 510v127q82 -4 111 33q27 35 31 156.5t4 238.5t48 212t154 95q18 0 29 -2v-86q-41 -4 -66.5 -26.5t-35 -65.5t-11.5 -70.5t-2 -79.5v-12q0 -6 2 -104.5t0 -140.5t-19 -109.5t-52 -102.5q72 -72 71 -262q0 -45 -3 -134t-3 -132q0 -63 4 -97t32 -71t83 -45v-86h-24 q-61 -2 -104.5 26.5t-64 65.5t-31.5 102.5t-13.5 104.5t-2.5 105q0 8 2.5 54t1.5 83t-4.5 82t-12.5 76.5t-25 43.5q-31 25 -99 21z" />
<glyph unicode="|" horiz-adv-x="370" d="M123 -240v1594h125v-1594h-125z" />
<glyph unicode="}" horiz-adv-x="573" d="M143 -168q55 8 83 45t32 71t4 97q0 43 -3 132t-3 134q0 190 72 262q-29 29 -45.5 71t-22.5 99.5t-7 96.5t1 105.5t2 84.5v17q0 49 -2 77.5t-11.5 69.5t-34 63.5t-65.5 26.5v86q10 2 29 2q106 0 154.5 -95t48.5 -212t4 -238.5t31 -156.5q29 -37 108 -33v-127 q-66 4 -96 -21q-16 -12 -26.5 -42.5t-13.5 -76.5t-3 -82t1 -84t1 -54q0 -66 -2 -105t-13.5 -104.5t-32 -102.5t-63.5 -65.5t-104 -26.5h-23v86z" />
<glyph unicode="~" horiz-adv-x="753" d="M109 461q8 55 52 91t99 36q47 0 123 -33t113 -33q63 0 82 47l67 -16q-8 -55 -52 -92t-99 -37q-49 0 -124 34t-114 34q-57 0 -80 -48z" />
<glyph unicode="&#xa1;" horiz-adv-x="405" d="M158 -59q0 225 26 585h82q27 -360 27 -585v-351h-135v351zM162 678v145h127v-145h-127z" />
<glyph unicode="&#xa8;" horiz-adv-x="901" d="M225 1018v145h125v-145h-125zM551 1018v145h125v-145h-125z" />
<glyph unicode="&#xaa;" horiz-adv-x="745" d="M102 707q0 59 25 100t55.5 61.5t88 29.5t93 9t103.5 -2t88 -2q-2 117 -49 159t-164 42q-102 0 -156 -43l-45 49q82 82 230 82q281 0 280 -281v-399h-96v72q-70 -86 -211 -86q-104 0 -173 54.5t-69 154.5zM199 707q0 -117 178 -117q131 0 178 86v139h-180q-39 0 -62.5 -2 t-54.5 -11t-45 -33.5t-14 -61.5z" />
<glyph unicode="&#xac;" horiz-adv-x="1136" d="M164 412v114h809v-307h-115v193h-694z" />
<glyph unicode="&#xad;" horiz-adv-x="1087" d="M184 356v115h719v-115h-719z" />
<glyph unicode="&#xb0;" horiz-adv-x="735" d="M96 889q0 154 60.5 238.5t212 84.5t213 -85t61.5 -238q0 -156 -60.5 -240t-213.5 -84q-152 0 -212.5 84t-60.5 240zM190 888.5q0 -112.5 36 -175t142.5 -62.5t142.5 61.5t36 174.5q0 53 -6 91t-23.5 73.5t-54.5 54t-94 18.5q-106 0 -142.5 -61.5t-36.5 -174z" />
<glyph unicode="&#xb2;" horiz-adv-x="972" d="M123 1071q51 63 143 99t180 36q174 0 282 -88t108 -260q0 -68 -35 -144.5t-71 -123.5t-97 -115l-342 -395h559v-125h-715v139l309 355q4 4 59.5 64t76 88t59.5 81t55.5 97t16.5 83q0 115 -72 167t-190 52q-57 0 -126 -23.5t-110 -60.5z" />
<glyph unicode="&#xb3;" horiz-adv-x="976" d="M123 88l92 74q100 -100 252 -101q119 0 189.5 57.5t70.5 174.5q0 80 -24.5 131t-74.5 75.5t-102.5 33t-132.5 8.5v125q57 0 81 1t71 6t67.5 17t47 33.5t37 58.5t10.5 88q0 102 -62.5 156.5t-167.5 54.5q-156 0 -241 -84l-93 74q109 137 332 137q156 0 257.5 -90 t101.5 -244q0 -182 -117 -270q137 -94 137 -311q0 -178 -103.5 -268.5t-283.5 -90.5q-223 0 -344 154z" />
<glyph unicode="&#xb4;" horiz-adv-x="776" d="M307 1018q33 76 162 282h164q-127 -170 -219 -282h-107z" />
<glyph unicode="&#xb7;" horiz-adv-x="452" d="M164 412v145h125v-145h-125z" />
<glyph unicode="&#xb9;" horiz-adv-x="649" d="M102 784l277 406h137v-1233h-127v1036l-199 -272z" />
<glyph unicode="&#xba;" horiz-adv-x="743" d="M96 848q0 344 273 344q274 0 274 -344t-274 -344q-273 0 -273 344zM190 848q0 -117 37 -187.5t141.5 -70.5t141.5 70.5t37 185.5q0 119 -36 188.5t-142 69.5q-74 0 -115 -40t-52.5 -91t-11.5 -125z" />
<glyph unicode="&#xbc;" horiz-adv-x="2326" d="M1468 309v131l502 750h139v-756h115v-125h-115v-352h-125v352h-516zM1616 434h368v551zM649 -238l596 1594h121l-596 -1594h-121zM102 784l277 406h137v-1233h-127v1036l-199 -272z" />
<glyph unicode="&#xbd;" horiz-adv-x="2338" d="M1489 1071q51 63 143 99t180 36q174 0 282 -88t108 -260q0 -68 -35 -144.5t-71 -123.5t-97 -115l-342 -395h559v-125h-715v139l309 355q4 4 59.5 64t76 88t59.5 81t55.5 97t16.5 83q0 115 -72 167t-190 52q-57 0 -126 -23.5t-110 -60.5zM649 -238l596 1594h121 l-596 -1594h-121zM102 784l277 406h137v-1233h-127v1036l-199 -272z" />
<glyph unicode="&#xbe;" horiz-adv-x="2654" d="M1796 309v131l502 750h139v-756h115v-125h-115v-352h-125v352h-516zM1944 434h368v551zM977 -238l596 1594h121l-596 -1594h-121zM123 88l92 74q100 -100 252 -101q119 0 189.5 57.5t70.5 174.5q0 80 -24.5 131t-74.5 75.5t-102.5 33t-132.5 8.5v125q57 0 81 1t71 6 t67.5 17t47 33.5t37 58.5t10.5 88q0 102 -62.5 156.5t-167.5 54.5q-156 0 -241 -84l-93 74q109 137 332 137q156 0 257.5 -90t101.5 -244q0 -182 -117 -270q137 -94 137 -311q0 -178 -103.5 -268.5t-283.5 -90.5q-223 0 -344 154z" />
<glyph unicode="&#xbf;" horiz-adv-x="681" d="M102 -84q0 68 27 127t63.5 102t74.5 84t64.5 93.5t26.5 109.5q0 14 -2 46t-2 48h127v-129q0 -59 -25.5 -114.5t-62.5 -97.5t-74.5 -83t-63.5 -90t-26 -102q0 -100 48.5 -146.5t148.5 -46.5q70 0 121 29t108 86l88 -78q-125 -164 -311 -164q-160 0 -245 83t-85 243z M354 680v143h127v-143h-127z" />
<glyph unicode="&#xc0;" horiz-adv-x="1081" d="M72 -43l366 1233h205l367 -1233h-140l-116 397h-426l-117 -397h-139zM262 1638h164q121 -188 162 -282h-107q-92 112 -219 282zM360 471h361l-180 592z" />
<glyph unicode="&#xc1;" horiz-adv-x="1081" d="M72 -43l366 1233h205l367 -1233h-140l-116 397h-426l-117 -397h-139zM360 471h361l-180 592zM504 1356q37 82 162 282h163q-113 -156 -217 -282h-108z" />
<glyph unicode="&#xc2;" horiz-adv-x="1081" d="M72 -43l366 1233h205l367 -1233h-140l-116 397h-426l-117 -397h-139zM233 1331l224 307h168l223 -307h-141l-166 213l-166 -213h-142zM360 471h361l-180 592z" />
<glyph unicode="&#xc3;" horiz-adv-x="1081" d="M273 1368q8 55 52 91t99 36q47 0 123 -33t113 -33q63 0 82 47l67 -16q-8 -55 -52 -92t-99 -37q-49 0 -124 34t-114 34q-57 0 -80 -48zM72 -43l366 1233h205l367 -1233h-140l-116 397h-426l-117 -397h-139zM360 471h361l-180 592z" />
<glyph unicode="&#xc4;" horiz-adv-x="1081" d="M72 -43l366 1233h205l367 -1233h-140l-116 397h-426l-117 -397h-139zM315 1356v145h125v-145h-125zM360 471h361l-180 592zM641 1356v145h125v-145h-125z" />
<glyph unicode="&#xc5;" horiz-adv-x="1081" d="M268 1510q0 154 60.5 238.5t212 84.5t213 -85t61.5 -238q0 -156 -60.5 -240t-213.5 -84q-152 0 -212.5 84t-60.5 240zM362 1509.5q0 -112.5 36 -175t142.5 -62.5t142.5 61.5t36 174.5q0 53 -6 91t-23.5 73.5t-54.5 54t-94 18.5q-106 0 -142.5 -61.5t-36.5 -174zM72 -43 l366 1233h205l367 -1233h-140l-116 397h-426l-117 -397h-139zM360 471h361l-180 592z" />
<glyph unicode="&#xc7;" horiz-adv-x="1058" d="M123 573q0 111 11 197t42 171t83 141.5t139 91t204 34.5q242 0 352 -141l-82 -80q-66 55 -125 75.5t-145 20.5q-92 0 -159.5 -29.5t-103.5 -73.5t-57.5 -115.5t-26.5 -136t-5 -155.5q0 -92 5 -155.5t25.5 -135t57.5 -115.5t103.5 -72.5t160.5 -28.5q88 0 146.5 19 t123.5 73l84 -80q-117 -139 -354 -139q-145 0 -243.5 49t-147.5 142t-68.5 197.5t-19.5 245.5zM442 -410l113 240h104q-6 -18 -32.5 -106.5t-44.5 -133.5h-140z" />
<glyph unicode="&#xc8;" horiz-adv-x="1099" d="M158 -43v1235h784v-127h-659v-410h598v-127h-598v-446h659v-125h-784zM264 1638h164q125 -201 162 -282h-109q-96 118 -217 282z" />
<glyph unicode="&#xc9;" horiz-adv-x="1099" d="M158 -43v1233h784v-125h-659v-412h598v-125h-598v-446h659v-125h-784zM481 1356q31 72 162 282h164q-121 -164 -217 -282h-109z" />
<glyph unicode="&#xca;" horiz-adv-x="1099" d="M158 -43v1233h784v-125h-659v-412h598v-125h-598v-446h659v-125h-784zM221 1331l223 307h166l224 -307h-142l-164 213l-166 -213h-141z" />
<glyph unicode="&#xcb;" horiz-adv-x="1099" d="M158 -43v1235h784v-127h-659v-410h598v-127h-598v-446h659v-125h-784zM338 1356v145h125v-145h-125zM664 1356v145h124v-145h-124z" />
<glyph unicode="&#xcc;" horiz-adv-x="440" d="M-59 1638h163q131 -211 162 -282h-106q-92 112 -219 282zM158 -43v1233h125v-1233h-125z" />
<glyph unicode="&#xcd;" horiz-adv-x="438" d="M158 -43v1233h125v-1233h-125zM172 1356q37 82 162 282h164q-86 -117 -217 -282h-109z" />
<glyph unicode="&#xce;" horiz-adv-x="612" d="M0 1331l223 307h166l223 -307h-141l-164 213l-166 -213h-141zM244 -43v1233h125v-1233h-125z" />
<glyph unicode="&#xcf;" horiz-adv-x="450" d="M0 1356v145h125v-145h-125zM162 -43v1233h127v-1233h-127zM326 1356v145h125v-145h-125z" />
<glyph unicode="&#xd1;" horiz-adv-x="1142" d="M158 -43v1233h196l506 -1098v1098h125v-1233h-201l-501 1090v-1090h-125zM303 1368q8 55 51 91t99 36q49 0 125.5 -32.5t111.5 -32.5q63 0 82 47l68 -17q-8 -55 -53.5 -92t-100.5 -37q-47 0 -123 34t-112 34q-61 0 -80 -47z" />
<glyph unicode="&#xd2;" horiz-adv-x="1183" d="M123 594q0 131 20.5 233.5t69.5 192.5t145.5 139t233.5 49q469 0 469 -614q0 -111 -3 -174.5t-26.5 -157.5t-70.5 -158q-123 -166 -369 -165.5t-369 165.5q-47 63 -70.5 157.5t-26.5 158t-3 174.5zM250 551q0 -88 5 -149.5t25.5 -130t55.5 -110.5t100.5 -70t155.5 -28 q84 0 146.5 24t99 62.5t59.5 99t30 122t7 141.5q0 256 -31 354q-63 215 -311 215q-70 0 -124 -16t-89 -42t-60.5 -70t-39 -84t-20.5 -101t-8 -105t-1 -112zM322 1638h163q121 -188 162 -282h-106q-92 112 -219 282z" />
<glyph unicode="&#xd3;" horiz-adv-x="1183" d="M123 594q0 131 20.5 233.5t69.5 192.5t145.5 139t233.5 49q469 0 469 -614q0 -111 -3 -174.5t-26.5 -157.5t-70.5 -158q-123 -166 -369 -165.5t-369 165.5q-47 63 -70.5 157.5t-26.5 158t-3 174.5zM250 551q0 -88 5 -149.5t25.5 -130t55.5 -110.5t100.5 -70t155.5 -28 q84 0 146.5 24t99 62.5t59.5 99t30 122t7 141.5q0 256 -31 354q-63 215 -311 215q-70 0 -124 -16t-89 -42t-60.5 -70t-39 -84t-20.5 -101t-8 -105t-1 -112zM549 1356q41 94 162 282h163q-127 -170 -219 -282h-106z" />
<glyph unicode="&#xd4;" horiz-adv-x="1183" d="M123 594q0 131 20.5 233.5t69.5 192.5t145.5 139t233.5 49q469 0 469 -614q0 -111 -3 -174.5t-26.5 -157.5t-70.5 -158q-123 -166 -369 -165.5t-369 165.5q-47 63 -70.5 157.5t-26.5 158t-3 174.5zM250 551q0 -88 5 -149.5t25.5 -130t55.5 -110.5t100.5 -70t155.5 -28 q84 0 146.5 24t99 62.5t59.5 99t30 122t7 141.5q0 256 -31 354q-63 215 -311 215q-70 0 -124 -16t-89 -42t-60.5 -70t-39 -84t-20.5 -101t-8 -105t-1 -112zM285 1333l225 305h166l223 -305h-141l-166 211l-166 -211h-141z" />
<glyph unicode="&#xd5;" horiz-adv-x="1183" d="M324 1368q8 55 52 91t99 36q47 0 123 -33t113 -33q63 0 82 47l67 -16q-8 -55 -52 -92t-99 -37q-49 0 -124 34t-114 34q-57 0 -80 -48zM123 594q0 131 20.5 233.5t69.5 192.5t145.5 139t233.5 49q469 0 469 -614q0 -111 -3 -175.5t-26.5 -158.5t-70.5 -156 q-125 -168 -369 -167.5t-369 167.5q-47 61 -70.5 155.5t-26.5 159t-3 175.5zM250 551q0 -88 5 -149.5t25.5 -130t55.5 -110.5t100.5 -70t155.5 -28q84 0 146.5 24t99 62.5t59.5 99t30 122t7 141.5q0 256 -31 354q-63 215 -311 215q-80 0 -140.5 -19.5t-97.5 -62.5t-58.5 -86 t-31.5 -113.5t-12 -119.5t-2 -129z" />
<glyph unicode="&#xd6;" horiz-adv-x="1183" d="M123 586q0 104 11 190t43 169t82 139.5t135 90t198 33.5q469 0 469 -614q0 -111 -3 -174.5t-26.5 -157.5t-70.5 -158q-123 -166 -369 -165.5t-369 165.5q-45 61 -68.5 153.5t-27.5 157.5t-4 171zM250 551q0 -88 5 -149.5t25.5 -130t55.5 -110.5t100.5 -70t155.5 -28 q84 0 146.5 24t99 62.5t59.5 99t30 122t7 141.5q0 256 -31 354q-63 215 -311 215q-80 0 -140.5 -19.5t-97.5 -62.5t-58.5 -86t-31.5 -113.5t-12 -119.5t-2 -129zM367 1356v145h125v-145h-125zM692 1356v145h125v-145h-125z" />
<glyph unicode="&#xd9;" horiz-adv-x="1247" d="M158 547v332v311h125v-658q0 -104 12 -178.5t46 -145.5t104.5 -108t177.5 -37q109 0 179 37t105 108t47.5 145.5t12.5 178.5v658h123v-248v-373v-86q-2 -248 -115 -397t-352 -149q-137 0 -232.5 48t-144.5 137t-68.5 190.5t-19.5 234.5zM356 1638h164q125 -201 162 -282 h-109q-131 165 -217 282z" />
<glyph unicode="&#xda;" horiz-adv-x="1247" d="M158 547q0 -102 11 -186.5t42 -166t82 -136t134 -87t194 -32.5q240 0 353 147t116 397v86v373v248h-123v-658q0 -104 -12.5 -178.5t-47.5 -145.5t-105.5 -108t-178.5 -37q-106 0 -177 37t-105 108t-46 145.5t-12 178.5v658h-125v-281v-362zM561 1356q31 72 162 282h164 q-127 -170 -219 -282h-107z" />
<glyph unicode="&#xdb;" horiz-adv-x="1247" d="M158 547v332v311h125v-658q0 -104 12 -178.5t46 -145.5t104.5 -108t177.5 -37q109 0 179 37t105 108t47.5 145.5t12.5 178.5v658h123v-248v-373v-86q-2 -248 -115 -397t-352 -149q-137 0 -232.5 48t-144.5 137t-68.5 190.5t-19.5 234.5zM315 1331l224 307h166l225 -307 h-142l-165 213l-166 -213h-142z" />
<glyph unicode="&#xdc;" horiz-adv-x="1247" d="M158 547v332v311h125v-658q0 -104 12 -178.5t46 -145.5t104.5 -108t177.5 -37q109 0 179 37t105 108t47.5 145.5t12.5 178.5v658h123v-215v-428q0 -133 -19.5 -234.5t-69 -190.5t-144.5 -137t-234 -48q-137 0 -232.5 48t-144.5 137t-68.5 190.5t-19.5 234.5zM397 1356 v145h127v-145h-127zM723 1356v145h127v-145h-127z" />
<glyph unicode="&#xdd;" horiz-adv-x="1003" d="M448 1331q33 76 162 282h164q-127 -170 -219 -282h-107zM72 1190h147l283 -500l284 500h146l-369 -629v-604h-125v604z" />
<glyph unicode="&#xe0;" horiz-adv-x="937" d="M102 207q0 258 316 258h272v8q2 143 -64.5 196.5t-213.5 53.5q-131 0 -199 -53l-59 61q102 104 297 105q365 0 364 -363v-516h-125v92q-90 -111 -274 -110q-135 0 -224.5 68.5t-89.5 199.5zM184 1300h164q121 -188 162 -282h-107q-92 112 -219 282zM227 209 q0 -154 230 -154q172 0 233 115v178h-233q-51 0 -82 -3t-70 -14.5t-58.5 -42t-19.5 -79.5z" />
<glyph unicode="&#xe1;" horiz-adv-x="937" d="M102 207q0 258 316 258h272v12q2 141 -64.5 193.5t-213.5 52.5q-131 0 -199 -53l-59 61q102 104 297 105q365 0 364 -363v-516h-125v92q-90 -111 -274 -110q-135 0 -224.5 68.5t-89.5 199.5zM227 209q0 -154 232 -154q170 0 231 115v178h-233q-51 0 -82 -3t-70 -14.5 t-58.5 -42t-19.5 -79.5zM430 1018q37 82 162 282h164q-121 -164 -217 -282h-109z" />
<glyph unicode="&#xe2;" horiz-adv-x="937" d="M102 207q0 258 316 258h272v16q-2 137 -59.5 185.5t-173.5 54.5q-139 10 -221 -37l-23 -16l-59 63q113 113 333 105q328 -14 328 -363v-516h-125v92q-86 -111 -274 -110q-152 0 -233 76.5t-81 191.5zM172 1004l223 307h166l223 -307h-141l-164 213l-166 -213h-141z M227 209q0 -154 230 -154q172 0 233 115v178h-233q-115 0 -172.5 -26.5t-57.5 -112.5z" />
<glyph unicode="&#xe3;" horiz-adv-x="937" d="M183 996q8 55 52 91t99 36q47 0 123 -33t113 -33q63 0 82 47l67 -16q-8 -55 -52 -92t-99 -37q-49 0 -124 34t-114 34q-57 0 -80 -48zM102 207q0 258 316 258h272v10q2 143 -64.5 195.5t-213.5 52.5q-131 0 -199 -53l-59 61q102 104 297 105q365 0 364 -363v-516h-125v92 q-90 -111 -274 -110q-135 0 -224.5 68.5t-89.5 199.5zM227 209q0 -154 230 -154q172 0 233 115v178h-233q-51 0 -82 -3t-70 -14.5t-58.5 -42t-19.5 -79.5z" />
<glyph unicode="&#xe4;" horiz-adv-x="937" d="M102 207q0 258 316 258h272v8q2 143 -64.5 196.5t-213.5 53.5q-131 0 -199 -53l-59 61q102 104 297 105q365 0 364 -363v-516h-125v92q-90 -111 -274 -110q-135 0 -224.5 68.5t-89.5 199.5zM227 209q0 -154 232 -154q170 0 231 115v178h-233q-51 0 -82 -3t-70 -14.5 t-58.5 -42t-19.5 -79.5zM264 1018v145h125v-145h-125zM590 1018v145h125v-145h-125z" />
<glyph unicode="&#xe5;" horiz-adv-x="937" d="M178 1282q0 154 60.5 238.5t212 84.5t213 -85t61.5 -238q0 -156 -60.5 -240t-213.5 -84q-152 0 -212.5 84t-60.5 240zM272 1281.5q0 -112.5 36 -175t142.5 -62.5t142.5 61.5t36 174.5q0 53 -6 91t-23.5 73.5t-54.5 54t-94 18.5q-106 0 -142.5 -61.5t-36.5 -174zM102 207 q0 258 316 258h272v10q2 143 -64.5 195.5t-213.5 52.5q-131 0 -199 -53l-59 61q102 104 297 105q365 0 364 -363v-516h-125v92q-90 -111 -274 -110q-135 0 -224.5 68.5t-89.5 199.5zM227 209q0 -154 230 -154q172 0 233 115v178h-233q-51 0 -82 -3t-70 -14.5t-58.5 -42 t-19.5 -79.5z" />
<glyph unicode="&#xe7;" horiz-adv-x="813" d="M102 387.5q0 448.5 347 448.5q74 0 151.5 -27t110.5 -78l-58 -63q-68 55 -174 55q-150 0 -201 -87t-51 -249t51.5 -249t200.5 -87q109 0 174 58l58 -64q-33 -51 -111 -78.5t-151 -27.5q-347 0 -347 448.5zM285 -410l110 240h105q-63 -203 -78 -240h-137z" />
<glyph unicode="&#xe8;" d="M102 387q0 449 359 449q362 0 358 -445l-2 -41h-590q4 -143 59.5 -222t190.5 -79q164 0 230 60l57 -64q-35 -55 -115 -80.5t-160 -25.5q-215 0 -301 113.5t-86 334.5zM186 1300h164q125 -201 162 -282h-109q-104 126 -217 282zM231 465h459q-18 258 -229.5 258 t-229.5 -258z" />
<glyph unicode="&#xe9;" d="M102 387q0 449 359 449q362 0 358 -445l-2 -41h-590q4 -143 59.5 -222t190.5 -79q164 0 230 60l57 -64q-35 -55 -115 -80.5t-160 -25.5q-215 0 -301 113.5t-86 334.5zM231 465h459q-18 258 -229.5 258t-229.5 -258zM416 1018q31 72 162 282h163q-127 -170 -219 -282h-106 z" />
<glyph unicode="&#xea;" d="M102 387q0 449 359 449q362 0 358 -445l-2 -41h-590q4 -143 59.5 -222t190.5 -79q164 0 230 60l57 -64q-35 -55 -115 -80.5t-160 -25.5q-215 0 -301 113.5t-86 334.5zM154 1004l223 307h166l223 -307h-141l-164 213l-166 -213h-141zM231 465h459q-18 258 -229.5 258 t-229.5 -258z" />
<glyph unicode="&#xeb;" d="M102 387q0 449 359 449q362 0 358 -445l-2 -41h-590q4 -143 59.5 -222t190.5 -79q164 0 230 60l57 -64q-35 -55 -115 -80.5t-160 -25.5q-215 0 -301 113.5t-86 334.5zM231 465h459q-18 258 -229.5 258t-229.5 -258zM246 1018v145h127v-145h-127zM571 1018v145h127v-145 h-127z" />
<glyph unicode="&#xec;" horiz-adv-x="423" d="M-41 1300h164q131 -211 162 -282h-107q-92 112 -219 282zM174 -43v858h127v-858h-127z" />
<glyph unicode="&#xed;" horiz-adv-x="421" d="M123 -43v858h125v-858h-125zM137 1018q41 94 162 282h164q-127 -170 -219 -282h-107z" />
<glyph unicode="&#xee;" horiz-adv-x="550" d="M-31 1004l224 307h165l224 -307h-142l-164 213l-165 -213h-142zM213 -43v858h125v-858h-125z" />
<glyph unicode="&#xef;" horiz-adv-x="389" d="M-31 1018v147h125v-147h-125zM131 -43v858h127v-858h-127zM295 1018v147h125v-147h-125z" />
<glyph unicode="&#xf1;" horiz-adv-x="960" d="M123 -43v858h125v-94q31 55 103.5 85t146.5 30q340 0 340 -383v-496h-125v397q0 178 -11 224q-31 123 -176 137q-23 2 -49 2q-68 0 -132 -33t-97 -90v-637h-125zM180 983q8 53 52 90t100 37q49 0 124.5 -33t110.5 -33q63 0 82 48l68 -17q-8 -55 -52 -92t-102 -37 q-47 0 -121.5 34t-113.5 34q-61 0 -80 -47z" />
<glyph unicode="&#xf2;" d="M102 387.5q0 448.5 358.5 448.5t358.5 -448.5t-358.5 -448.5t-358.5 448.5zM174 1300h164q121 -188 162 -282h-107q-92 112 -219 282zM227 387q0 -55 4.5 -98t19.5 -90t39.5 -78t67.5 -50.5t103 -19.5q72 0 121 27.5t71.5 80t30.5 104.5t8 124q0 70 -8 123t-30.5 105.5 t-72 80t-120.5 27.5q-74 0 -123 -27.5t-71.5 -80t-31 -104.5t-8.5 -124z" />
<glyph unicode="&#xf3;" d="M102 387.5q0 448.5 358.5 448.5t358.5 -448.5t-358.5 -448.5t-358.5 448.5zM227 387q0 -55 4.5 -98t19.5 -90t39.5 -78t67.5 -50.5t103 -19.5q72 0 121 27.5t71.5 80t30.5 104.5t8 124q0 70 -8 123t-30.5 105.5t-72 80t-120.5 27.5q-74 0 -123 -27.5t-71.5 -80 t-31 -104.5t-8.5 -124zM416 1018q31 72 162 282h163q-127 -170 -219 -282h-106z" />
<glyph unicode="&#xf4;" d="M102 387.5q0 448.5 358.5 448.5t358.5 -448.5t-358.5 -448.5t-358.5 448.5zM154 1004l223 307h166l223 -307h-139l-166 213l-166 -213h-141zM227 387q0 -55 4.5 -98t19.5 -90t39.5 -78t67.5 -50.5t103 -19.5q72 0 121 27.5t71.5 80t30.5 104.5t8 124q0 70 -8 123 t-30.5 105.5t-72 80t-120.5 27.5q-74 0 -123 -27.5t-71.5 -80t-31 -104.5t-8.5 -124z" />
<glyph unicode="&#xf5;" d="M193 996q8 55 52 91t99 36q47 0 123 -33t113 -33q63 0 82 47l67 -16q-8 -55 -52 -92t-99 -37q-49 0 -124 34t-114 34q-57 0 -80 -48zM102 387q0 449 358.5 449t358.5 -449q0 -451 -358.5 -451t-358.5 451zM227 387q0 -72 8.5 -124t31 -104.5t71.5 -80t123 -27.5 q72 0 121 27.5t71.5 80t30.5 104.5t8 124q0 70 -8 123t-30.5 105.5t-72 80t-120.5 27.5q-74 0 -123 -27.5t-71.5 -80t-31 -104.5t-8.5 -124z" />
<glyph unicode="&#xf6;" d="M102 387.5q0 448.5 358.5 448.5t358.5 -448.5t-358.5 -448.5t-358.5 448.5zM227 387q0 -55 4.5 -98t19.5 -90t39.5 -78t67.5 -50.5t103 -19.5q72 0 121 27.5t71.5 80t30.5 104.5t8 124q0 70 -8 123t-30.5 105.5t-72 80t-120.5 27.5q-74 0 -123 -27.5t-71.5 -80 t-31 -104.5t-8.5 -124zM236 1018v145h124v-145h-124zM561 1018v145h125v-145h-125z" />
<glyph unicode="&#xf9;" horiz-adv-x="962" d="M123 387v428h125v-250q0 -20 -2 -87.5t-1 -101.5t7 -93.5t21.5 -92t41 -69.5t70.5 -53.5t104 -16.5q129 0 226 121v643h125v-858h-125v96q-37 -53 -106.5 -83.5t-139.5 -30.5q-346 -1 -346 448zM201 1300h164q131 -211 161 -282h-108q-96 118 -217 282z" />
<glyph unicode="&#xfa;" horiz-adv-x="962" d="M123 387v428h125v-250q0 -20 -2 -87.5t-1 -101.5t7 -93.5t21.5 -92t41 -69.5t70.5 -53.5t104 -16.5q129 0 226 121v643h125v-858h-125v96q-37 -53 -106.5 -83.5t-139.5 -30.5q-346 -1 -346 448zM408 1018q41 94 161 282h164q-127 -170 -219 -282h-106z" />
<glyph unicode="&#xfb;" horiz-adv-x="962" d="M123 387v428h125v-250q0 -20 -2 -87.5t-1 -101.5t7 -93.5t21.5 -92t41 -69.5t70.5 -53.5t104 -16.5q129 0 226 121v643h125v-858h-125v96q-37 -53 -106.5 -83.5t-139.5 -30.5q-346 -1 -346 448zM174 1004l223 307h166l223 -307h-139l-166 213l-166 -213h-141z" />
<glyph unicode="&#xfc;" horiz-adv-x="962" d="M123 387v428h125v-250q0 -20 -2 -87.5t-1 -101.5t7 -93.5t21.5 -92t41 -69.5t70.5 -53.5t104 -16.5q129 0 226 121v643h125v-858h-125v96q-37 -53 -106.5 -83.5t-139.5 -30.5q-346 -1 -346 448zM250 1018v145h125v-145h-125zM575 1018v145h125v-145h-125z" />
<glyph unicode="&#xfd;" horiz-adv-x="833" d="M373 959q33 76 162 282h164q-127 -170 -219 -282h-107zM41 -362l49 73q25 -14 66 -14q29 0 53 7t42.5 27.5t31 34t26 47t17.5 46t15 52.5t13 46l-295 858h142l221 -698l229 698h142q-274 -784 -301 -858q-27 -76 -62 -156q-45 -113 -104 -163q-57 -47 -146 -48 q-106 1 -139 48z" />
<glyph unicode="&#xff;" horiz-adv-x="833" d="M200 959v145h125v-145h-125zM526 959v145h125v-145h-125zM41 -362l49 73q25 -14 66 -14q29 0 53 7t42.5 27.5t31 34t26 47t17.5 46t15 52.5t13 46l-295 858h142l221 -698l229 698h142q-274 -784 -301 -858q-27 -76 -62 -156q-45 -113 -104 -163q-57 -47 -146 -48 q-106 1 -139 48z" />
<glyph unicode="&#x152;" horiz-adv-x="2283" d="M1342 -43v1233h784v-125h-659v-412h598v-125h-598v-446h659v-125h-784zM123 594q0 131 20.5 233.5t69.5 192.5t145.5 139t233.5 49q469 0 469 -614q0 -111 -3 -175.5t-26.5 -158.5t-70.5 -156q-125 -168 -369 -167.5t-369 167.5q-47 61 -70.5 155.5t-26.5 159t-3 175.5z M250 551q0 -88 5 -149.5t25.5 -130t55.5 -110.5t100.5 -70t155.5 -28q84 0 146.5 24t99 62.5t59.5 99t30 122t7 141.5q0 256 -31 354q-63 215 -311 215q-80 0 -140.5 -19.5t-97.5 -62.5t-58.5 -86t-31.5 -113.5t-12 -119.5t-2 -129z" />
<glyph unicode="&#x153;" horiz-adv-x="1843" d="M1024 385q0 449 359 449q362 0 358 -445l-2 -43h-590q4 -143 59.5 -222t190.5 -79q164 0 230 59l57 -63q-35 -55 -115 -81t-160 -26q-215 0 -301 115t-86 336zM1153 463h459q-18 256 -229.5 256t-229.5 -256zM102 387q0 449 358.5 449t358.5 -449q0 -451 -358.5 -451 t-358.5 451zM227 387q0 -72 8.5 -124t31 -104.5t71.5 -80t123 -27.5q72 0 121 27.5t71.5 80t30.5 104.5t8 124q0 70 -8 123t-30.5 105.5t-72 80t-120.5 27.5q-74 0 -123 -27.5t-71.5 -80t-31 -104.5t-8.5 -124z" />
<glyph unicode="&#x178;" horiz-adv-x="1003" d="M276 1331v145h125v-145h-125zM602 1331v145h125v-145h-125zM72 1190h147l283 -500l284 500h146l-369 -629v-604h-125v604z" />
<glyph unicode="&#x2c6;" horiz-adv-x="864" d="M102 741l248 467h164l248 -467h-141l-189 349l-188 -349h-142z" />
<glyph unicode="&#x2dc;" horiz-adv-x="409" d="M-268 160q8 55 52 91t99 36q47 0 123 -33t113 -33q63 0 82 47l67 -16q-8 -55 -52 -92t-99 -37q-49 0 -124 34t-114 34q-57 0 -80 -48z" />
<glyph unicode="&#x2013;" horiz-adv-x="935" d="M109 356v115h718v-115h-718z" />
<glyph unicode="&#x2014;" horiz-adv-x="1636" d="M184 356v115h1268v-115h-1268z" />
<glyph unicode="&#x2018;" horiz-adv-x="372" d="M88 932q0 236 143 317l56 -65q-74 -104 -74 -250q0 -74 20 -119h-133q-12 45 -12 117z" />
<glyph unicode="&#x2019;" horiz-adv-x="372" d="M88 821q74 104 74 254q0 57 -23 115h133q14 -55 15 -117q0 -231 -146 -319z" />
<glyph unicode="&#x201c;" horiz-adv-x="626" d="M88 932q0 236 143 317l56 -65q-74 -104 -74 -250q0 -74 20 -119h-133q-12 45 -12 117zM326 932q0 98 34.5 186t108.5 131l55 -65q-74 -104 -73 -250q0 -66 20 -119h-131q-14 51 -14 117z" />
<glyph unicode="&#x201d;" horiz-adv-x="559" d="M33 881q74 102 73 254q0 61 -20 114h133q12 -45 12 -116q0 -233 -143 -318zM272 881q74 104 74 249q0 66 -20 119h131q14 -51 14 -116q0 -236 -143 -318z" />
<glyph unicode="&#x2022;" horiz-adv-x="878" d="M143 551q0 119 84 202t201 83q119 0 203 -83t84 -202t-84 -202t-203 -83q-117 0 -201 83t-84 202z" />
<glyph unicode="&#x2026;" horiz-adv-x="927" d="M710 -43v145h125v-145h-125zM401 -43v145h125v-145h-125zM92 -43v145h125v-145h-125z" />
<glyph unicode="&#x2039;" horiz-adv-x="897" d="M133 332v166l662 276v-141l-545 -219l545 -217v-142z" />
<glyph unicode="&#x203a;" horiz-adv-x="897" d="M102 55v142l545 217l-545 219v141l662 -276v-166z" />
<glyph unicode="&#x2044;" horiz-adv-x="716" d="M0 -238l596 1594h121l-596 -1594h-121z" />
<glyph unicode="&#x2122;" horiz-adv-x="2555" d="M1254 -43v1233h196l375 -1006l377 1006h197v-1233h-125v1065l-381 -1018h-133l-381 1018v-1065h-125zM82 1071v119h932v-119h-404v-1114h-125v1114h-403z" />
<glyph unicode="&#xe000;" horiz-adv-x="815" d="M0 815h815v-815h-815v815z" />
<glyph unicode="&#xfb01;" horiz-adv-x="1077" d="M830 -43v858h125v-858h-125zM830 1044v146h125v-146h-125zM82 702v113h137v40v48q0 14 1 46t4 50.5t9.5 43t14.5 44t20 35.5q63 86 176 86q63 0 126 -27.5t96 -76.5l-60 -62q-55 55 -141 56q-121 0 -121 -154v-129h262v-113h-262v-745h-125v745h-137z" />
<glyph unicode="&#xfb02;" horiz-adv-x="1077" d="M830 -43v1233h125v-1233h-125zM82 702v113h137v40v48q0 14 1 46t4 50.5t9.5 43t14.5 44t20 35.5q63 86 176 86q63 0 126 -27.5t96 -76.5l-60 -62q-55 55 -141 56q-121 0 -121 -154v-129h262v-113h-262v-745h-125v745h-137z" />
<glyph unicode="&#xfb03;" horiz-adv-x="1783" d="M1536 -43v858h125v-858h-125zM1536 1044v146h125v-146h-125zM789 702v113h137v40v48q0 14 1 46t4 50.5t9.5 43t14.5 44t20 35.5q63 86 176 86q63 0 126 -27.5t96 -76.5l-60 -62q-55 55 -141 56q-121 0 -121 -154v-129h262v-113h-262v-745h-125v745h-137zM82 702v113h137 v40v48q0 14 1 46t4 50.5t9.5 43t14.5 44t20 35.5q63 86 176 86q63 0 126 -27.5t96 -76.5l-60 -62q-55 55 -141 56q-121 0 -121 -154v-129h262v-113h-262v-745h-125v745h-137z" />
<glyph unicode="&#xfb04;" horiz-adv-x="1783" d="M1536 -43v1233h125v-1233h-125zM789 702v113h137v40v48q0 14 1 46t4 50.5t9.5 43t14.5 44t20 35.5q63 86 176 86q63 0 126 -27.5t96 -76.5l-60 -62q-55 55 -141 56q-121 0 -121 -154v-129h262v-113h-262v-745h-125v745h-137zM82 702v113h137v40v48q0 14 1 46t4 50.5 t9.5 43t14.5 44t20 35.5q63 86 176 86q63 0 126 -27.5t96 -76.5l-60 -62q-55 55 -141 56q-121 0 -121 -154v-129h262v-113h-262v-745h-125v745h-137z" />
</font>
</defs>
</svg>
