<svg id="Layer_1" data-name="Layer 1" xmlns="http://www.w3.org/2000/svg" xmlns:xlink="http://www.w3.org/1999/xlink" viewBox="0 0 800 800"><defs><style>.cls-1{fill:none;}.cls-2{fill:#f5f1e8;}.cls-3{fill:#716c68;}.cls-4{opacity:0.1;fill:url(#New_Pattern_Swatch_2);}</style><pattern id="New_Pattern_Swatch_2" data-name="New Pattern Swatch 2" width="235.17" height="235.17" patternUnits="userSpaceOnUse" viewBox="0 0 235.17 235.17"><rect class="cls-1" width="235.17" height="235.17"/><circle class="cls-2" cx="99.5" cy="191.58" r="2.43" transform="translate(-106.32 126.47) rotate(-45)"/><path class="cls-2" d="M93.34,233.21a10.33,10.33,0,0,0,.14-1.24l0-.44s-.23.57-.68,1.52c-.21.48-.52,1-.84,1.68l-.25.44h1.17l0-.06A18,18,0,0,0,93.34,233.21Z"/><path class="cls-2" d="M88.82,234.3s0,.16.06.44c0,.12,0,.27.08.43h.39c-.11-.2-.23-.36-.3-.5S88.82,234.3,88.82,234.3Z"/><path class="cls-2" d="M235.17,89.36V81.84a3.33,3.33,0,0,0-.68.37C233.34,83.36,233.4,86.43,235.17,89.36Z"/><path class="cls-3" d="M97.8,54.07V42.87a.7.7,0,0,1,.7-.7h9.22a.7.7,0,0,0,.7-.7V32.25a.7.7,0,0,1,.7-.7h11.2a.7.7,0,0,1,.7.7v9.22a.7.7,0,0,0,.7.7h9.22a.7.7,0,0,1,.7.7v11.2a.7.7,0,0,1-.7.7h-9.22a.7.7,0,0,0-.7.7v9.22a.7.7,0,0,1-.7.7h-11.2a.7.7,0,0,1-.7-.7V55.47a.7.7,0,0,0-.7-.7H98.5A.7.7,0,0,1,97.8,54.07Zm2.8-2.8a.7.7,0,0,0,.7.7h9.22a.7.7,0,0,1,.7.7v9.22a.7.7,0,0,0,.7.7h5.6a.7.7,0,0,0,.7-.7V52.67a.7.7,0,0,1,.7-.7h9.22a.7.7,0,0,0,.7-.7v-5.6a.7.7,0,0,0-.7-.7h-9.22a.7.7,0,0,1-.7-.7V35.05a.7.7,0,0,0-.7-.7h-5.6a.7.7,0,0,0-.7.7v9.22a.7.7,0,0,1-.7.7H101.3a.7.7,0,0,0-.7.7Z"/><path class="cls-3" d="M181.92,131.74v-7.18a.45.45,0,0,1,.45-.45h5.91a.45.45,0,0,0,.45-.45v-5.91a.45.45,0,0,1,.45-.45h7.18a.45.45,0,0,1,.45.45v5.91a.45.45,0,0,0,.45.45h5.91a.45.45,0,0,1,.45.45v7.18a.45.45,0,0,1-.45.45h-5.91a.45.45,0,0,0-.45.45v5.91a.45.45,0,0,1-.45.45h-7.18a.45.45,0,0,1-.45-.45v-5.91a.45.45,0,0,0-.45-.45h-5.91A.45.45,0,0,1,181.92,131.74Zm1.8-1.8a.45.45,0,0,0,.45.45h5.91a.45.45,0,0,1,.45.45v5.91a.45.45,0,0,0,.45.45h3.59a.45.45,0,0,0,.45-.45v-5.91a.45.45,0,0,1,.45-.45h5.91a.45.45,0,0,0,.45-.45v-3.59a.45.45,0,0,0-.45-.45h-5.91a.45.45,0,0,1-.45-.45v-5.91a.45.45,0,0,0-.45-.45H191a.45.45,0,0,0-.45.45v5.91a.45.45,0,0,1-.45.45h-5.91a.45.45,0,0,0-.45.45Z"/><path class="cls-3" d="M27.88,214.72v5.06a.32.32,0,0,1-.32.32H23.4a.32.32,0,0,0-.32.32v4.17a.32.32,0,0,1-.32.32H17.71a.32.32,0,0,1-.32-.32v-4.17a.32.32,0,0,0-.32-.32H12.91a.32.32,0,0,1-.32-.32v-5.06a.32.32,0,0,1,.32-.32h4.17a.32.32,0,0,0,.32-.32v-4.17a.32.32,0,0,1,.32-.32h5.06a.32.32,0,0,1,.32.32v4.17a.32.32,0,0,0,.32.32h4.17A.32.32,0,0,1,27.88,214.72ZM26.62,216a.32.32,0,0,0-.32-.32H22.14a.32.32,0,0,1-.32-.32v-4.17a.32.32,0,0,0-.32-.32H19a.32.32,0,0,0-.32.32v4.17a.32.32,0,0,1-.32.32H14.17a.32.32,0,0,0-.32.32v2.53a.32.32,0,0,0,.32.32h4.17a.32.32,0,0,1,.32.32v4.16a.32.32,0,0,0,.32.32H21.5a.32.32,0,0,0,.32-.32v-4.16a.32.32,0,0,1,.32-.32H26.3a.32.32,0,0,0,.32-.32Z"/><path class="cls-3" d="M152.39,0h3a15.89,15.89,0,0,0-.56,8.79H171.2a1.34,1.34,0,0,0,1.05-.61L177,0h.77l8.57,14.85a.37.37,0,0,0,.7,0l3.15-5.45a1.34,1.34,0,0,1,1-.61h18.52A15.87,15.87,0,0,0,209.18,0h3a18.57,18.57,0,0,1-4.63,18.49L182.26,43.73,157,18.49A18.56,18.56,0,0,1,152.39,0Zm3.29,11.59A15.64,15.64,0,0,0,159,16.51l23.26,23.26,23.26-23.26a15.65,15.65,0,0,0,3.32-4.92h-16a1.34,1.34,0,0,0-1,.61L187,20.45a.37.37,0,0,1-.7,0L177.71,5.54a.37.37,0,0,0-.7,0L173.87,11a1.34,1.34,0,0,1-1,.61Z"/><path class="cls-3" d="M42.71,64.58,24.21,46.08A13.59,13.59,0,0,1,42.71,26.19,13.59,13.59,0,0,1,61.2,46.08ZM22.57,39h12a1,1,0,0,0,.77-.44l3.49-6a.27.27,0,0,1,.51,0l6.31,10.93a.27.27,0,0,0,.51,0l2.31-4a1,1,0,0,1,.77-.44H62.84A11.53,11.53,0,0,0,43.43,28.32l-.73.73L42,28.32A11.53,11.53,0,0,0,22.57,39Zm3.09,5.65,17,17,17-17A11.45,11.45,0,0,0,62.18,41H50.45a1,1,0,0,0-.77.44l-3.49,6a.27.27,0,0,1-.51,0L39.37,36.59a.27.27,0,0,0-.51,0l-2.31,4a1,1,0,0,1-.77.44H23.23A11.45,11.45,0,0,0,25.66,44.63Z"/><path class="cls-3" d="M24.52,141.91,0,166.43v-3.35l21.17-21.17-6.28-6.28-2.18,2.18,3.14,3.14-1.67,1.68L11,139.48l-2.26,2.26,3.14,3.14-1.67,1.67L7.1,143.42l-2.26,2.26L8,148.82l-1.67,1.67-3.14-3.14L.91,149.61,4,152.75l-1.67,1.67L0,152.05v-4.88l14.89-14.89,1.33,1.33L19.85,130l2.65,2.65,6.7-6.7,1.67,1.68-6.7,6.7L26.82,137l-3.63,3.63Zm-3-3,2-2-3.63-3.63-2,2Z"/><polygon class="cls-3" points="0 171.17 0 172.08 0.46 171.63 0 171.17"/><polygon class="cls-3" points="0 156.57 0 156.8 0.12 156.68 0 156.57"/><path class="cls-3" d="M113.71,146.35c-4.53,0-8.21-5.46-8.21-12.18V117.68c-4.45-.9-7.9-6.57-7.9-13.41V92.56c0-1,.55-1.84,1.24-1.84h3.95c.68,0,1.24.82,1.24,1.84s-.55,1.84-1.24,1.84h-2.71v9.87c0,5.44,3,9.87,6.66,9.87s6.66-4.43,6.66-9.87V94.39h-2.71c-.68,0-1.24-.82-1.24-1.84s.55-1.84,1.24-1.84h3.95c.68,0,1.24.82,1.24,1.84v11.71c0,6.84-3.44,12.52-7.89,13.41v16.49c0,4.69,2.57,8.51,5.74,8.51s5.74-3.82,5.74-8.51V126c-2.12-.82-3.68-3.68-3.68-7.07,0-4,2.21-7.3,4.92-7.3s4.92,3.27,4.92,7.3c0,3.39-1.57,6.25-3.68,7.07v8.21C121.92,140.89,118.23,146.35,113.71,146.35Zm7-23.84c1.35,0,2.45-1.63,2.45-3.62s-1.1-3.63-2.45-3.63-2.45,1.63-2.45,3.63S119.33,122.51,120.68,122.51Z"/><path class="cls-3" d="M107.62,198A8.17,8.17,0,1,1,96.07,209.5l-7.82-7.82a9.09,9.09,0,0,1-11.91-.81l-5.55-5.55a1.23,1.23,0,0,1,0-1.74l2.78-2.78a1.23,1.23,0,0,1,1.74,1.74l-1.91,1.91,4.68,4.68a6.62,6.62,0,0,0,9.36-9.36l-4.68-4.68-1.9,1.9a1.23,1.23,0,0,1-1.74-1.74l2.78-2.78a1.23,1.23,0,0,1,1.74,0L89.18,188A9.09,9.09,0,0,1,90,199.94l7.82,7.82a5.71,5.71,0,1,0,8.07-8.07l-3.9-3.9a4.9,4.9,0,1,1,1.74-1.74Zm-6.4-8.1a2.43,2.43,0,1,0,0,3.44A2.43,2.43,0,0,0,101.22,189.86Z"/><path class="cls-3" d="M70.42,110.06v31.73a11.32,11.32,0,0,1-22.63,0V110.06a11.32,11.32,0,0,1,22.63,0Zm-2.8,0a8.52,8.52,0,0,0-17,0v15.87H65.52v19.72a6.37,6.37,0,0,1-.38,2.14l0,0a8.82,8.82,0,0,0,.69-.8l.14-.19a8.61,8.61,0,0,0,.54-.85,8.45,8.45,0,0,0,1.07-4.13V110.06Z"/><path class="cls-3" d="M149.16,159a8.16,8.16,0,0,1,0,11.53L133,186.69a8.16,8.16,0,0,1-11.53-11.53L137.63,159A8.17,8.17,0,0,1,149.16,159Zm-1.43,1.43a6.14,6.14,0,0,0-8.68,0L131,168.5l7.61,7.61-10,10a4.61,4.61,0,0,1-1.28.9h0A6.31,6.31,0,0,0,128,187l.17,0a6.06,6.06,0,0,0,3.36-1.71l8.08-8.09,8.09-8.09A6.14,6.14,0,0,0,147.73,160.41Z"/><path class="cls-3" d="M177.94,65.38c-7.42,14-27.33,11.28-22.23,33,.7-.41,1.43-.89,2.18-1.42s1.63-1.25,2.49-1.93l.38-.34,0,0a3.27,3.27,0,0,0,.42-.78,5.74,5.74,0,0,0,.33-.85l.22-.89c0-.3.06-.6.09-.89a3.53,3.53,0,0,0,0-.85c0-.27,0-.53,0-.77s-.06-.48-.08-.68l-.07-.53c0-.3,0-.47,0-.47s.09.15.22.41l.24.48a3.26,3.26,0,0,1,.27.64c.07.25.14.53.2.83a3,3,0,0,1,.11.95,8.48,8.48,0,0,1,0,1l-.18.86c1-.89,1.93-1.81,2.84-2.8.34-.35.65-.72,1-1.08a12.83,12.83,0,0,0,.34-2.14,16,16,0,0,0-.15-4,10.57,10.57,0,0,0-.29-1.3c-.11-.31-.17-.5-.17-.5s.13.14.34.4a6.58,6.58,0,0,1,.67,1.24,9.44,9.44,0,0,1,.6,4.2c0,.24-.07.48-.11.71l.15-.16c.73-.89,1.49-1.74,2.15-2.62.54-.7,1.05-1.39,1.54-2.07,0-.19.07-.37.1-.56a4,4,0,0,0,.12-.87,5.63,5.63,0,0,0,.05-.86c0-.28,0-.55,0-.81s-.06-.49-.08-.72a8.79,8.79,0,0,0-.17-1.13c0-.28-.06-.44-.06-.44s.1.13.24.37a5.31,5.31,0,0,1,.54,1c.09.23.18.49.26.77s.11.57.15.88a3.14,3.14,0,0,1,0,.62c.26-.39.5-.77.73-1.14.45-.76.87-1.46,1.22-2.1s.63-1.2.84-1.68c.45-.95.68-1.52.68-1.52l0,.44a10.33,10.33,0,0,1-.14,1.24,17.93,17.93,0,0,1-.4,1.9,23.5,23.5,0,0,1-.8,2.4,26.66,26.66,0,0,1-1.24,2.72,29.58,29.58,0,0,1-1.68,2.88,39.83,39.83,0,0,1-4.49,5.68c-.86.88-1.76,1.74-2.67,2.54a34,34,0,0,1-2.82,2.2A27.15,27.15,0,0,1,158,99.14C180.73,103.15,182.91,75.49,177.94,65.38Z"/><path class="cls-3" d="M90.9,5.07a29.58,29.58,0,0,1-1.68,2.88,39.83,39.83,0,0,1-4.49,5.68c-.86.88-1.76,1.74-2.67,2.54a34.11,34.11,0,0,1-2.82,2.2,27.16,27.16,0,0,1-3.78,2.21C91.06,23.34,97,11.17,97.55,0H92.92a23.23,23.23,0,0,1-.78,2.34A26.54,26.54,0,0,1,90.9,5.07Z"/><path class="cls-3" d="M89.86,1.31c.05.28.11.57.15.88a3.14,3.14,0,0,1,0,.62c.26-.39.5-.77.73-1.14.36-.6.68-1.15,1-1.67h-2.4a2.59,2.59,0,0,1,.25.55C89.68.78,89.77,1,89.86,1.31Z"/><path class="cls-3" d="M73.16,19.87c.7-.41,1.43-.89,2.18-1.42S77,17.2,77.83,16.52l.38-.34,0,0a3.24,3.24,0,0,0,.42-.78A5.68,5.68,0,0,0,79,14.5l.22-.89c0-.3.06-.6.09-.89a3.55,3.55,0,0,0,0-.85c0-.27,0-.53,0-.77s-.06-.48-.08-.68l-.07-.53c0-.3,0-.47,0-.47s.09.15.22.41l.24.48a3.26,3.26,0,0,1,.27.64c.07.25.14.53.2.83a3,3,0,0,1,.12.95,8.48,8.48,0,0,1,0,1l-.18.86c1-.89,1.93-1.81,2.84-2.8.34-.35.65-.72,1-1.08a12.77,12.77,0,0,0,.34-2.14,16,16,0,0,0-.15-4,10.65,10.65,0,0,0-.29-1.3c-.11-.31-.17-.5-.17-.5s.13.14.33.4a6.56,6.56,0,0,1,.67,1.24,9.43,9.43,0,0,1,.6,4.2c0,.24-.07.48-.11.71l.15-.16c.73-.89,1.49-1.74,2.15-2.62.54-.7,1.05-1.39,1.53-2.07,0-.19.07-.37.11-.56a4,4,0,0,0,.12-.87,5.58,5.58,0,0,0,.05-.86c0-.28,0-.55,0-.81S89.07.94,89,.71A4.84,4.84,0,0,0,89,0H80.22C74.62,3.87,70.51,8.56,73.16,19.87Z"/><path class="cls-3" d="M194.39,222a18.41,18.41,0,0,0-12.13,4.51,18.54,18.54,0,0,0-29.88,8.67h3a15.74,15.74,0,0,1,25.93-5.77l1,1,1-1a15.73,15.73,0,0,1,25.93,5.77h3A18.53,18.53,0,0,0,194.39,222Z"/><path class="cls-3" d="M177,235.1l0,.07h.78l0-.07A.37.37,0,0,0,177,235.1Z"/><path class="cls-3" d="M95.39,222c-3.57,6.74-10,9.61-15.19,13.18H89c0-.16-.06-.31-.08-.43,0-.27-.06-.44-.06-.44s.1.13.24.37.18.3.3.5h2.39l.25-.44c.32-.64.63-1.2.84-1.68.45-.95.68-1.52.68-1.52l0,.44a10.33,10.33,0,0,1-.14,1.24,18,18,0,0,1-.4,1.9l0,.06h4.63C97.81,230.06,97,225.16,95.39,222Z"/><path class="cls-3" d="M42.59,168.17c3,9.78-7.32,17.61,4.93,25.2.13-.51.25-1.05.35-1.64s.17-1.31.25-2c0-.11,0-.22,0-.33v0a2.09,2.09,0,0,0-.17-.55,3.63,3.63,0,0,0-.24-.54l-.3-.51c-.12-.16-.25-.3-.37-.45a2.25,2.25,0,0,0-.37-.4l-.36-.34c-.11-.11-.24-.19-.34-.27l-.27-.21-.23-.19.29.09.33.11a2.11,2.11,0,0,1,.41.17l.47.28a2,2,0,0,1,.49.38,5.29,5.29,0,0,1,.46.47l.31.47c0-.85.05-1.71,0-2.57,0-.31,0-.62,0-.94a8.23,8.23,0,0,0-.82-1.13,10.39,10.39,0,0,0-1.88-1.74,6.73,6.73,0,0,0-.72-.46l-.3-.15.34,0a4.28,4.28,0,0,1,.87.26,6.09,6.09,0,0,1,2.19,1.64c.1.12.19.25.28.37,0,0,0-.09,0-.14-.08-.74-.12-1.47-.22-2.17s-.16-1.11-.24-1.64l-.21-.3a2.62,2.62,0,0,0-.34-.45,3.47,3.47,0,0,0-.37-.41l-.37-.37-.37-.29a5.81,5.81,0,0,0-.59-.44l-.23-.17.28.06a3.45,3.45,0,0,1,.72.23l.47.23.47.34a2,2,0,0,1,.3.26c-.06-.29-.12-.58-.19-.86-.14-.55-.27-1.06-.4-1.51s-.26-.84-.38-1.15c-.23-.64-.38-1-.38-1l.18.21a6.55,6.55,0,0,1,.5.63,11.67,11.67,0,0,1,.68,1.05,15.29,15.29,0,0,1,.73,1.46,17.11,17.11,0,0,1,.68,1.81,19.11,19.11,0,0,1,.55,2.08,25.66,25.66,0,0,1,.54,4.64c0,.8,0,1.59-.06,2.38a22.12,22.12,0,0,1-.28,2.29,17.47,17.47,0,0,1-.72,2.73C61.09,184.12,49.46,170.51,42.59,168.17Z"/><path class="cls-3" d="M207.71,183.5c.29,1.5,1.21,7.54.6,11.77.29,0-1.52,13.27-5.44,13.27-3.62,0-5.13-11.77-5.13-12.37-.31-3.92-3-6.33-4.83-6.63-1.81,0-4.23,2.71-4.82,6.63,0,.6-1.52,12.38-5.14,12.38s-5.42-13.27-5.73-13.27c-.6-4.23.31-10.27.6-12.08-1.21-3.61-5.42-16.88-1.5-21.12a8.66,8.66,0,0,1,5.73-1.81,22.55,22.55,0,0,1,6,.89,29,29,0,0,0,4.82.6,29.17,29.17,0,0,0,4.83-.6,22.44,22.44,0,0,1,6-.89c2.42,0,4.23.6,5.44,2.11C213.13,166.6,208.91,179.87,207.71,183.5Zm-.31-19a4.78,4.78,0,0,0-3.62-1.2,18.62,18.62,0,0,0-5.42.89c-.5.08-8.16,3.82-6.84,14-2.25-5.2-2.67-10,.65-13.44a37,37,0,0,1-4.67-.55,18.74,18.74,0,0,0-5.44-.89c-1.5,0-2.71.3-3.31,1.2-2.12,2.11,0,12.07,2.4,18.4v.6s-1.19,6.94-.59,11.17a44.75,44.75,0,0,0,2.71,10,36.76,36.76,0,0,0,2.11-8.75c.31-4.83,3.62-9.06,7.54-9.35,3.92.29,7.25,4.21,7.85,9.35a33.38,33.38,0,0,0,2.11,8.75,46.41,46.41,0,0,0,2.71-10c.6-4.23-.6-11.17-.6-11.17v-.6C207.1,176.56,209.21,166.91,207.4,164.49Z"/><path class="cls-3" d="M5.67,102.56C8.21,100,1,90.68.59,90.25.37,90,.18,89.66,0,89.37V94a45.56,45.56,0,0,1,3.13,5.6A21.49,21.49,0,0,1,0,98.12v3.64C2.39,102.91,4.66,103.57,5.67,102.56Z"/><path class="cls-3" d="M7.37,83.47c.42.42,9.75,7.64,12.3,5.09,2.75-2.75-5.3-13.36-5.51-13.15-2.55-3.4-7.43-7-8.7-7.85A71,71,0,0,0,0,58.32v5.12c1.16,1.9,2.24,3.86,3.12,5.62l.42.42s5.73,4,8.27,7.42a46.12,46.12,0,0,1,5.09,8.9,33.22,33.22,0,0,1-7.63-4.67A11.12,11.12,0,0,0,0,78.67v3.17A7.52,7.52,0,0,1,7.37,83.47Z"/><path class="cls-3" d="M224.95,157.4l10.23-10.23V152l-.76-.76-2.26,2.26,3,3v.24l-1.55,1.55-3.14-3.14-2.18,2.18,6.28,6.28.6-.6v3.35l-.6.6-4-4-1.77,1.77,6.34,6.34v.93l-5.4,5.4L214.49,162.2l5.86-5.86,6.8,6.8,1.77-1.77Zm-4.59,2.29-2.51,2.51,11.93,11.93,2.51-2.51Z"/><path class="cls-3" d="M233.64,92a24,24,0,0,1,1.53,2V89.36c-1.77-2.93-1.84-6-.68-7.15a3.33,3.33,0,0,1,.68-.37V78.67a6.74,6.74,0,0,0-2.8,1.41C229.82,83,230.46,88.35,233.64,92Z"/><path class="cls-3" d="M226.85,51.67c-1.91-.21-3.6.64-5.3,2.34a22.28,22.28,0,0,0-3.61,4.86,29.07,29.07,0,0,1-3,3.82,28.87,28.87,0,0,1-3.81,3,22.43,22.43,0,0,0-4.87,3.62,8.6,8.6,0,0,0-2.76,5.3c.22,5.73,12.51,12.09,15.89,13.78,1.07,1.48,4.67,6.37,8.06,8.91.13-.13,4,2.75,7.68,4.5V98.12a58,58,0,0,1-5.76-3.62C226,91.95,222,86.24,222,86.24l-.42-.42c-6.14-2.77-14.63-8.27-14.62-11.25-.22-1.06.43-2.12,1.48-3.18a18.64,18.64,0,0,1,4.45-3.19,36.74,36.74,0,0,0,3.67-2.89c.08,4.75,3.75,7.83,9,9.9-8.08-6.22-5.32-14.22-5-14.64a18.52,18.52,0,0,1,3.18-4.44,4.76,4.76,0,0,1,3.39-1.7c2.09.3,5.33,4.48,8.11,9V58.31C232.67,54.83,229.68,51.77,226.85,51.67Z"/></pattern></defs><title>bg</title><rect class="cls-4" width="800" height="800"/></svg>