<svg id="Layer_1" data-name="Layer 1" xmlns="http://www.w3.org/2000/svg" viewBox="0 0 761 233.42"><defs><style>.cls-1{fill:#fff;}</style></defs><title>biodenscyl_white</title><circle class="cls-1" cx="13.2" cy="39.78" r="13.2"/><path class="cls-1" d="M161.83,59.75C161,58,160,56.4,159,54.75c-.47-.84-1.05-1.61-1.59-2.4s-1.08-1.59-1.67-2.35l-1.83-2.25L153,46.63l-1-1.05-2-2.1c-.7-.67-1.43-1.3-2.15-1.94a50.47,50.47,0,0,0-4.57-3.61,41,41,0,0,0-5.09-3,37.46,37.46,0,0,0-11.35-3.61l-.33,0a19.31,19.31,0,1,0-23.75,5.34,42.21,42.21,0,0,0-7.91,6.17,37.39,37.39,0,0,0-3.76,4.4c-1.15,1.63-2,3.13-3,4.68-1.86,3.07-3.68,6-5.71,8.84a34.26,34.26,0,0,1-7,7.37,21.1,21.1,0,0,1-9.14,4,25.44,25.44,0,0,1-5.14.29,31.81,31.81,0,0,1-5.2-.73l-.27.92A27.71,27.71,0,0,0,66.5,74.21a23.4,23.4,0,0,0,10.67-3.56,37.79,37.79,0,0,0,8.39-7.43c2.44-2.79,4.54-5.79,6.61-8.69,1-1.43,2.08-2.92,3.09-4.14a32,32,0,0,1,3.47-3.5A37.5,37.5,0,0,1,107,41.43a28.64,28.64,0,0,1,27.49.58,32.7,32.7,0,0,1,4,2.64c1.24,1.05,2.54,2,3.69,3.2.59.57,1.19,1.12,1.77,1.71l1.63,1.84.82.92.75,1,1.49,2c.48.67.9,1.38,1.36,2.07s.92,1.36,1.3,2.11c.79,1.46,1.63,2.88,2.29,4.41a77.08,77.08,0,0,1,6,19.19,118.85,118.85,0,0,1,1.74,20.42,185.11,185.11,0,0,1-4.92,41.24,221.61,221.61,0,0,1-13.19,39.74c-2.84,6.39-6,12.79-9.22,19-1.65,3.09-3.33,6.16-5.15,9.09A74,74,0,0,1,123,220.8a18.16,18.16,0,0,1-3.1,3.06,1.78,1.78,0,0,1-.31.21c0-.06,0-.11-.05-.18a9.94,9.94,0,0,1-.25-2,18.6,18.6,0,0,1,.08-2.25q0-.58.14-1.16l.2-1.35a57.62,57.62,0,0,0,.35-11.34,48.38,48.38,0,0,0-1.93-11.2,26.83,26.83,0,0,0-2.34-5.43,16,16,0,0,0-4-4.76,12.41,12.41,0,0,0-5.83-2.62l-.78-.15c-.26,0-.52,0-.78,0l-1.56,0c-.51,0-1,.1-1.51.16a10,10,0,0,0-1.48.23l-1.43.36a9.1,9.1,0,0,0-1.39.42c-.89.35-1.82.63-2.66,1L91.81,185l-2.4,1.41c-.82.44-1.56,1-2.32,1.49s-1.54,1-2.26,1.56c-1.44,1.12-2.94,2.16-4.3,3.36s-2.8,2.31-4.11,3.55-2.71,2.4-4,3.67l-7.69,7.48a172.63,172.63,0,0,1-16.1,13.88,68.34,68.34,0,0,1-8.79,5.68,28.1,28.1,0,0,1-4.61,2,7.59,7.59,0,0,1-4.22.36l-.39-.13a2.56,2.56,0,0,1-.33-.2c-.24-.09-.37-.33-.57-.47A4.36,4.36,0,0,1,29,227a13,13,0,0,1-.29-4.51,39.82,39.82,0,0,1,2.33-9.8,112.31,112.31,0,0,0,5.81-43.52l-.51-5.53c-.21-1.84-.56-3.66-.83-5.49s-.68-3.64-1.09-5.45-.78-3.63-1.36-5.39L31.41,142c-.63-1.74-1.31-3.47-2-5.2-.34-.86-.64-1.74-1-2.59l-1.18-2.52c-.79-1.67-1.56-3.36-2.38-5l-2.7-4.85-1.35-2.42-1.31-2.25q-2.63-4.49-4.84-9.17a96.89,96.89,0,0,1-4-9.47A64.28,64.28,0,0,1,8,88.77,43.26,43.26,0,0,1,7.14,79a25.41,25.41,0,0,1,.63-4.66,19.4,19.4,0,0,1,.64-2.19c.12-.36.29-.68.43-1a6.19,6.19,0,0,1,.48-1,12.12,12.12,0,0,1,2.61-3.39,11.79,11.79,0,0,1,3.63-2.29,19.08,19.08,0,0,1,9.21-1.16c.82,0,1.64.22,2.46.32l2.7.41c.91.13,1.82.29,2.74.4l2.76.21c1.83.2,3.7.11,5.53.16.92,0,1.85-.1,2.77-.15l1.38-.08,1.38-.18a43.6,43.6,0,0,0,10.71-2.64c.85-.36,1.7-.7,2.53-1.1s1.65-.81,2.43-1.3a22.93,22.93,0,0,0,4.45-3.26l-.65-.7a24.15,24.15,0,0,1-4.55,2.51c-.79.37-1.62.64-2.43.95s-1.66.52-2.49.77A42.76,42.76,0,0,1,46.23,61l-1.29.05-1.3,0c-.86,0-1.73,0-2.59-.09-1.72-.2-3.44-.26-5.15-.6l-2.56-.42-2.53-.56-2.57-.58c-.94-.19-1.85-.46-2.82-.57A24.5,24.5,0,0,0,13.51,59,18.22,18.22,0,0,0,3.78,66.9,10.7,10.7,0,0,0,3,68.27c-.23.47-.48.93-.68,1.41a26,26,0,0,0-1,2.9,32.17,32.17,0,0,0-1.13,5.9A46.15,46.15,0,0,0,.66,90a71.78,71.78,0,0,0,2.65,11,94.66,94.66,0,0,0,4,10.4q2.29,5.06,5,9.86l1.35,2.4,1.22,2.28,2.45,4.55c.74,1.55,1.42,3.14,2.13,4.7l1.06,2.35.92,2.41,1.82,4.82,1.53,4.92a120.59,120.59,0,0,1,4.08,20.2,118.38,118.38,0,0,1,.44,20.71A103.45,103.45,0,0,1,26,211.14a47.07,47.07,0,0,0-1.85,11.17,17.11,17.11,0,0,0,.82,6.08,8.38,8.38,0,0,0,1.83,3A7.49,7.49,0,0,0,29.19,233l.89.25a11.59,11.59,0,0,0,6.3-.67,31.57,31.57,0,0,0,5.15-2.42,80.9,80.9,0,0,0,9-6.26c5.69-4.47,11-9.31,16.24-14.23s10.18-10,15.79-14.27c1.36-1.13,2.83-2.07,4.24-3.11.71-.52,1.46-.94,2.19-1.42s1.46-1,2.23-1.34l2.28-1.21,2.34-1c.78-.34,1.58-.53,2.36-.8a6.82,6.82,0,0,1,1.19-.3l1.18-.24a6.94,6.94,0,0,1,1.17-.12c.39,0,.78-.07,1.16-.07l1.12.09c.18,0,.38,0,.56,0l.53.14a7.83,7.83,0,0,1,3.72,1.94,11.28,11.28,0,0,1,2.63,3.57,21.86,21.86,0,0,1,1.62,4.5,43,43,0,0,1,1.09,10,51.64,51.64,0,0,1-.91,10l-.27,1.29q-.16.73-.27,1.49a25.38,25.38,0,0,0-.29,3.09,16.89,16.89,0,0,0,.24,3.36,9,9,0,0,0,1.66,4,7.25,7.25,0,0,0,1.06,1.06,5.92,5.92,0,0,0,1.43.84,5.63,5.63,0,0,0,1.6.41,5.91,5.91,0,0,0,1.49,0,8.06,8.06,0,0,0,1.28-.25c.36-.12.71-.24,1.07-.38s.59-.29.89-.44a7.48,7.48,0,0,0,.82-.47,24.84,24.84,0,0,0,4.77-4.17,70.42,70.42,0,0,0,6.87-9c2-3.08,3.9-6.22,5.72-9.38s3.53-6.35,5.18-9.57,3.27-6.42,4.84-9.74A221.09,221.09,0,0,0,166,147a172.89,172.89,0,0,0,5.41-43.65,120.25,120.25,0,0,0-2.27-22.2A81.86,81.86,0,0,0,161.83,59.75Zm-42,164.95s.06,0,.07.09S119.86,224.77,119.82,224.7Z"/><path class="cls-1" d="M220.83,129.11c3.71,3,8,4.81,15,4.81,16.1,0,25.73-8.94,25.73-32.05,0-17.47-7.29-29.85-25.73-29.85-7,0-11.28,1.65-15,4.81V49.74H203.5v83h17.33Zm0-35.9c2.48-4.13,6.47-6.19,11.56-6.19,9.49,0,11.69,5.78,11.69,14.86,0,11.28-1.65,17.34-12,17.34a12.77,12.77,0,0,1-11.28-6.33Z"/><rect class="cls-1" x="268.57" y="73.54" width="17.33" height="59.16"/><rect class="cls-1" x="268.57" y="49.87" width="17.33" height="15.96"/><path class="cls-1" d="M321.67,72c-20.91,0-28.75,13.07-28.75,31s7.7,31,28.89,31,29-13.2,29-31S342.72,72,321.67,72Zm0,47.19c-9.91,0-11.42-7-11.42-16.23s1.51-16.24,11.42-16.24,11.69,6.88,11.69,16.24S331.71,119.21,321.67,119.21Z"/><path class="cls-1" d="M397.05,76.84c-3.72-3-8-4.68-14.86-4.68-18.43,0-25.73,12.25-25.73,29.71,0,23.11,9.49,32.05,25.73,32.05,7,0,11.14-1.79,14.86-4.81v3.58h17.47v-83H397.05Zm0,36a12.77,12.77,0,0,1-11.28,6.33c-10.32,0-12-6.06-12-17.34C373.8,92.8,376,87,385.5,87c5.09,0,9.08,2.06,11.56,6.19Z"/><path class="cls-1" d="M452.07,134.07c8.53,0,18.3-2.34,24.9-10.87L467.62,114a23.63,23.63,0,0,1-16,5.78c-7.43,0-12.24-4-12.93-10.46h40.72v-5.78c0-17.88-7.29-31.5-29-31.5-21,0-28.89,13.07-28.89,31C421.53,122.65,429.92,134.07,452.07,134.07ZM450.42,86.6c7.57,0,10.18,3.72,11.42,9.77h-22.7C440.52,90.73,443,86.6,450.42,86.6Z"/><path class="cls-1" d="M503.39,91.56c2.48-2.89,7.15-4.54,11.28-4.54,7.43,0,11.83,2.89,11.83,12.11v33.57H544v-34C544,82.34,538.19,72,518.65,72c-5.5,0-11,1.38-15.27,4.68V73.54H486.05v59.16h17.33Z"/><path class="cls-1" d="M586.61,96c-7.15-1.65-15.41-.69-15.41-5.64,0-4.26,4.54-4.26,9.08-4.26,4.81,0,8.8,1.51,14.17,4.54l9.49-9.21A35.3,35.3,0,0,0,579.32,72c-12.52,0-25.45,4.13-25.45,19.12,0,11.42,8.12,15.54,16.1,17.19a99.37,99.37,0,0,0,11.28,1.79c2.75.55,6.47.27,6.47,4.68,0,1.92-1.1,2.89-2.89,3.57a25.75,25.75,0,0,1-7.29.69c-5.92,0-10.32-2.07-16.51-6.47l-9.36,8.94c8.39,9.08,17.89,12.38,28.62,12.38,12.79,0,24.76-5.64,24.76-19.81C605,100.78,595.28,97.88,586.61,96Z"/><path class="cls-1" d="M679.94,123.43l-8.12-7.71c-5.65,4.11-8.53,5.45-14.18,5.45-13.35,0-14.8-8.43-14.8-20.14s1.44-20.14,14.8-20.14c5.65,0,8.53,1.24,14.18,5.34l8.12-7.71c-6.57-7.3-14.08-9.35-22.29-9.35-22,0-27.84,13.87-27.84,31.84s5.75,31.85,27.84,31.85C666,132.88,673.36,130.73,679.94,123.43Z"/><path class="cls-1" d="M710.78,123.59a25.29,25.29,0,0,0,5.36-10.6l-6.15-1.5a18.41,18.41,0,0,1-3.21,7.2l-6.93-8.11c3.47-2.23,6.61-5.43,6.61-10.07,0-5.75-4.71-9.29-10.27-9.29-5.3,0-10.73,3.34-10.27,9.16l.06.85c.2,2.94,1.9,5.36,3.79,7.33a4.85,4.85,0,0,0,.59.52c-3.93,2.62-7.32,6.15-7.32,11.44,0,6.54,5.82,11.25,12.36,11.25a18.1,18.1,0,0,0,11-3.86l2.62,3.34h8.24ZM696.2,97.3c2.35,0,3.92,1.11,3.92,3.14,0,2.29-2.09,4.12-4.51,5.56-1.44-1.18-3.4-4.25-3.4-5.56C692.21,98.35,693.78,97.3,696.2,97.3Zm-.79,28.45c-3.27,0-6-2.23-6-5.23s2.29-5,4.91-6.8l8.11,9.48A11.34,11.34,0,0,1,695.41,125.75Z"/><polygon class="cls-1" points="736.96 120.04 736.96 70.01 724.02 70.01 724.02 131.96 761 131.96 761 120.04 736.96 120.04"/><path class="cls-1" d="M213.36,155.31c-2.57,0-4.9.47-6.77,2.38l1.35,1.4a7.37,7.37,0,0,1,4.53-1.21c4.25,0,6.39,1.12,6.35,5.64v.24h-6.21c-4,0-7.19,1.4-7.19,5.88,0,4.15,3.31,6.11,7.14,6.11,2.43,0,4.67-.56,6.25-2.52v2.1h2.85V163.57C221.67,158,218.91,155.31,213.36,155.31Zm5.46,15.17c-1,1.91-3.27,2.61-5.32,2.61-2.38,0-5.23-.47-5.23-3.5s2.85-3.17,5.23-3.17h5.32Z"/><path class="cls-1" d="M231.15,150.55H228.3v5.23h-3.13v2.62h3.13v8.44c0,4-.14,8.91,5.27,8.91a5.21,5.21,0,0,0,3.5-1.17L236,172.95a5.46,5.46,0,0,1-2,.42c-2.8,0-2.85-2.1-2.85-4.3l0-10.68h6v-2.62h-6Z"/><path class="cls-1" d="M248.33,155.35c-6.39,0-8.17,4.62-8.17,10.22,0,6.25,2,10.26,8.82,10.26,2,0,5.09-.61,6.25-2.43L253.93,172c-1.17,1.07-3.69,1.35-5.23,1.35-4.43,0-5.6-3-5.69-6.86h13.44l0-1C256.54,159.93,254.68,155.35,248.33,155.35Zm-5.23,8.45c.23-3.31,1.54-5.84,5.23-5.84s5,2.52,5.23,5.84Z"/><path class="cls-1" d="M269.34,155.31c-2,0-4.67.79-5.69,2.61v-2.15H260.8v19.56h2.85V160.82a6.16,6.16,0,0,1,5.23-2.8c5.88,0,5.37,3.73,5.37,8.26v9.06h2.85V164C277.09,158.71,275.08,155.31,269.34,155.31Z"/><path class="cls-1" d="M286.57,150.55h-2.85v5.23H280.6v2.62h3.13v8.44c0,4-.14,8.91,5.27,8.91a5.21,5.21,0,0,0,3.5-1.17l-1.07-1.63a5.46,5.46,0,0,1-2,.42c-2.8,0-2.85-2.1-2.85-4.3l0-10.68h6v-2.62h-6Z"/><path class="cls-1" d="M303.75,155.31c-6.39,0-8.17,4.62-8.17,10.22s1.73,10.27,8.17,10.27,8.17-4.66,8.17-10.27S310.15,155.31,303.75,155.31Zm0,17.87c-4.66,0-5.32-3.88-5.32-7.66s.65-7.65,5.32-7.65,5.27,3.92,5.27,7.65S308.37,173.18,303.75,173.18Z"/><path class="cls-1" d="M319,160.91c0-2.7,2.24-3.17,4.48-3.17a7.76,7.76,0,0,1,4.62,1.45l1.35-1.45a8.43,8.43,0,0,0-6.35-2.43c-3.92,0-7,1.35-7,5.74,0,8.17,11.2,3.17,11.2,8.77,0,3-2.47,3.31-4.85,3.31a8,8,0,0,1-5.32-2l-1.31,1.45c1.87,2.33,4.67,3.17,7.61,3.17,3.87,0,6.72-1.91,6.72-6.06C330.22,161.33,319,166.32,319,160.91Z"/><path class="cls-1" d="M352.17,155.31c-2.57,0-4.9.47-6.77,2.38l1.35,1.4a7.37,7.37,0,0,1,4.53-1.21c4.25,0,6.39,1.12,6.35,5.64v.24h-6.21c-4,0-7.19,1.4-7.19,5.88,0,4.15,3.31,6.11,7.14,6.11,2.43,0,4.67-.56,6.25-2.52v2.1h2.85V163.57C360.48,158,357.72,155.31,352.17,155.31Zm5.46,15.17c-1,1.91-3.27,2.61-5.32,2.61-2.38,0-5.23-.47-5.23-3.5s2.85-3.17,5.23-3.17h5.32Z"/><path class="cls-1" d="M388.91,170.43a6.79,6.79,0,0,1-5.13,2.75c-4.81,0-5.51-3.73-5.51-7.66v-9.75h-2.85v9.75c0,5.32,1.68,10.22,7.89,10.22a7,7,0,0,0,5.6-2.61v2.19h2.85V155.77h-2.85Z"/><path class="cls-1" d="M405.91,155.31c-2,0-4.67.79-5.69,2.61v-2.15h-2.85v19.56h2.85V160.82a6.16,6.16,0,0,1,5.23-2.8c5.88,0,5.37,3.73,5.37,8.26v9.06h2.85V164C413.66,158.71,411.65,155.31,405.91,155.31Z"/><path class="cls-1" d="M436.72,157.88a6.31,6.31,0,0,1,4,1.26l1.31-1.45c-1.07-1.68-4.06-2.38-6-2.38-6.21,0-7.89,4.9-7.89,10.22s1.68,10.22,7.89,10.22c1.91,0,4.9-.7,6-2.43l-1.31-1.45a6.06,6.06,0,0,1-4,1.31c-5,0-5.74-3.45-5.74-7.66S431.73,157.88,436.72,157.88Z"/><path class="cls-1" d="M453.21,155.31c-6.39,0-8.17,4.62-8.17,10.22s1.73,10.27,8.17,10.27,8.17-4.66,8.17-10.27S459.6,155.31,453.21,155.31Zm0,17.87c-4.66,0-5.32-3.88-5.32-7.66s.65-7.65,5.32-7.65,5.27,3.92,5.27,7.65S457.83,173.18,453.21,173.18Z"/><path class="cls-1" d="M487.89,155.31c-2.29,0-5.41,1-6.53,3.13-1.21-2.19-4.29-3.13-6.63-3.13-2.1,0-4.9.75-6.07,2.61v-2.15h-2.85v19.56h2.85V160.82a6.82,6.82,0,0,1,5.46-2.8c4.34,0,5.36,2.05,5.36,6.06v11.25h2.85V160.82a5.79,5.79,0,0,1,5.13-2.8c4.34,0,5.37,2.05,5.37,6.06v11.25h2.85V164.08C495.68,158.76,493.63,155.31,487.89,155.31Z"/><path class="cls-1" d="M509.51,155.31c-2,0-4.48.89-5.6,2.61v-2.1h-2.85v27.86h2.85V173.14c1.12,1.72,3.59,2.61,5.6,2.61,6.21,0,7.89-4.9,7.89-10.22S515.72,155.31,509.51,155.31ZM509,173.18a6.85,6.85,0,0,1-5.13-2.75v-9.8a6.85,6.85,0,0,1,5.13-2.75c4.81,0,5.51,3.69,5.51,7.65S513.85,173.18,509,173.18Z"/><path class="cls-1" d="M524.69,157.92v-2.15h-2.85v19.56h2.85v-14.7c1.35-1.68,2.75-2.8,5-2.8a4.83,4.83,0,0,1,3.12,1.21l1.92-2a6.49,6.49,0,0,0-5-1.77A6,6,0,0,0,524.69,157.92Z"/><path class="cls-1" d="M544.76,155.31c-6.39,0-8.17,4.62-8.17,10.22s1.73,10.27,8.17,10.27,8.17-4.66,8.17-10.27S551.16,155.31,544.76,155.31Zm0,17.87c-4.66,0-5.32-3.88-5.32-7.66s.65-7.65,5.32-7.65,5.28,3.92,5.28,7.65S549.39,173.18,544.76,173.18Z"/><path class="cls-1" d="M579.45,155.31c-2.28,0-5.41,1-6.53,3.13-1.21-2.19-4.29-3.13-6.63-3.13-2.1,0-4.9.75-6.06,2.61v-2.15h-2.85v19.56h2.85V160.82a6.82,6.82,0,0,1,5.46-2.8c4.34,0,5.37,2.05,5.37,6.06v11.25h2.85V160.82A5.8,5.8,0,0,1,579,158c4.34,0,5.37,2.05,5.37,6.06v11.25h2.85V164.08C587.24,158.76,585.19,155.31,579.45,155.31Z"/><rect class="cls-1" x="592.62" y="155.77" width="2.85" height="19.56"/><rect class="cls-1" x="592.62" y="147.24" width="2.85" height="3.31"/><path class="cls-1" d="M603.27,160.91c0-2.7,2.24-3.17,4.48-3.17a7.75,7.75,0,0,1,4.62,1.45l1.35-1.45a8.43,8.43,0,0,0-6.35-2.43c-3.92,0-7,1.35-7,5.74,0,8.17,11.2,3.17,11.2,8.77,0,3-2.48,3.31-4.86,3.31a8,8,0,0,1-5.32-2l-1.31,1.45c1.86,2.33,4.66,3.17,7.61,3.17,3.88,0,6.72-1.91,6.72-6.06C614.47,161.33,603.27,166.32,603.27,160.91Z"/><path class="cls-1" d="M626.38,155.31c-6.39,0-8.17,4.62-8.17,10.22s1.73,10.27,8.17,10.27,8.17-4.66,8.17-10.27S632.77,155.31,626.38,155.31Zm0,17.87c-4.66,0-5.32-3.88-5.32-7.66s.66-7.65,5.32-7.65,5.27,3.92,5.27,7.65S631,173.18,626.38,173.18Z"/><path class="cls-1" d="M662,157.92c-1.12-1.72-3.59-2.61-5.6-2.61-6.21,0-7.89,4.9-7.89,10.22s1.68,10.22,7.89,10.22c2,0,4.48-.89,5.6-2.66v2.24h2.85V147.24H662Zm0,12.51a6.86,6.86,0,0,1-5.13,2.75c-4.81,0-5.51-3.69-5.51-7.66s.7-7.65,5.51-7.65a6.86,6.86,0,0,1,5.13,2.75Z"/><path class="cls-1" d="M677.5,155.35c-6.39,0-8.17,4.62-8.17,10.22,0,6.25,2,10.26,8.82,10.26,2,0,5.09-.61,6.26-2.43L683.1,172c-1.17,1.07-3.68,1.35-5.23,1.35-4.43,0-5.6-3-5.7-6.86h13.44l0-1C685.72,159.93,683.85,155.35,677.5,155.35Zm-5.23,8.45c.23-3.31,1.54-5.84,5.23-5.84s5,2.52,5.23,5.84Z"/><path class="cls-1" d="M698.52,155.31c-2,0-4.67.79-5.69,2.61v-2.15H690v19.56h2.85V160.82A6.16,6.16,0,0,1,698,158c5.88,0,5.37,3.73,5.37,8.26v9.06h2.85V164C706.26,158.71,704.26,155.31,698.52,155.31Z"/><path class="cls-1" d="M715.75,150.55H712.9v5.23h-3.12v2.62h3.12v8.44c0,4-.14,8.91,5.28,8.91a5.21,5.21,0,0,0,3.5-1.17l-1.07-1.63a5.46,5.46,0,0,1-2,.42c-2.8,0-2.85-2.1-2.85-4.3l0-10.68h6v-2.62h-6Z"/><path class="cls-1" d="M733.16,155.31c-2.57,0-4.9.47-6.77,2.38l1.35,1.4a7.37,7.37,0,0,1,4.52-1.21c4.25,0,6.39,1.12,6.35,5.64v.24h-6.21c-4,0-7.19,1.4-7.19,5.88,0,4.15,3.31,6.11,7.14,6.11,2.43,0,4.66-.56,6.25-2.52v2.1h2.85V163.57C741.47,158,738.71,155.31,733.16,155.31Zm5.46,15.17c-1,1.91-3.26,2.61-5.32,2.61-2.38,0-5.23-.47-5.23-3.5s2.85-3.17,5.23-3.17h5.32Z"/><rect class="cls-1" x="747.07" y="147.24" width="2.85" height="28.09"/></svg>