<svg id="Capa_1" data-name="Capa 1" xmlns="http://www.w3.org/2000/svg" viewBox="0 0 761 233.42"><defs><style>.cls-1{fill:#6cbab8;}.cls-2{fill:#74c09b;}.cls-3{fill:#555454;}</style></defs><title>biodenscyl_color</title><circle class="cls-1" cx="111.34" cy="19.31" r="19.31"/><circle class="cls-1" cx="13.2" cy="39.78" r="13.2"/><path class="cls-2" d="M66.62,56.06a22.93,22.93,0,0,1-4.45,3.26c-.78.49-1.61.87-2.43,1.3s-1.68.74-2.53,1.1A43.6,43.6,0,0,1,46.5,64.37l-1.38.18-1.38.08c-.92,0-1.85.13-2.77.15-1.84,0-3.7,0-5.53-.16l-2.76-.21c-.92-.11-1.82-.27-2.74-.4l-2.7-.41c-.82-.1-1.64-.29-2.46-.32a19.08,19.08,0,0,0-9.21,1.16,11.79,11.79,0,0,0-3.63,2.29,12.12,12.12,0,0,0-2.61,3.39,6.19,6.19,0,0,0-.48,1c-.14.35-.31.67-.43,1a19.4,19.4,0,0,0-.64,2.19A25.41,25.41,0,0,0,7.14,79,43.26,43.26,0,0,0,8,88.77a64.29,64.29,0,0,0,2.73,9.75,96.9,96.9,0,0,0,4,9.47q2.21,4.67,4.84,9.17l1.31,2.25,1.35,2.42,2.7,4.85c.82,1.66,1.59,3.34,2.38,5l1.18,2.52c.36.85.67,1.73,1,2.59.65,1.73,1.33,3.46,2,5.2L33,147.34c.58,1.76.93,3.59,1.36,5.39s.84,3.61,1.09,5.45.62,3.66.83,5.49l.51,5.53A112.31,112.31,0,0,1,31,212.73a39.82,39.82,0,0,0-2.33,9.8A13,13,0,0,0,29,227a4.36,4.36,0,0,0,.77,1.58c.2.15.33.38.57.47a2.56,2.56,0,0,0,.33.2l.39.13a7.59,7.59,0,0,0,4.22-.36,28.1,28.1,0,0,0,4.61-2,68.34,68.34,0,0,0,8.79-5.68,172.62,172.62,0,0,0,16.1-13.88l7.69-7.48c1.27-1.27,2.65-2.45,4-3.67s2.72-2.38,4.11-3.55,2.87-2.24,4.3-3.36c.72-.56,1.51-1,2.26-1.56s1.51-1,2.32-1.49l2.4-1.41,2.53-1.23c.85-.41,1.78-.69,2.66-1a9.1,9.1,0,0,1,1.39-.42l1.43-.36a10,10,0,0,1,1.48-.23c.5-.05,1-.13,1.51-.16l1.56,0c.26,0,.52,0,.78,0l.78.15a12.41,12.41,0,0,1,5.83,2.62,16,16,0,0,1,4,4.76,26.83,26.83,0,0,1,2.34,5.43,48.38,48.38,0,0,1,1.93,11.2,57.62,57.62,0,0,1-.35,11.33l-.2,1.35q-.09.58-.14,1.16a18.6,18.6,0,0,0-.08,2.25,9.94,9.94,0,0,0,.25,2,2.16,2.16,0,0,0,.37.9c0-.06,0,0-.11-.12s-.18-.09-.27-.18-.26-.05-.31-.1-.19,0-.16,0,0,0,0,0a.76.76,0,0,1,.19-.09c.07,0,.19-.13.29-.18a2,2,0,0,0,.33-.22,18.16,18.16,0,0,0,3.1-3.06,74,74,0,0,0,5.77-8.28c1.81-2.94,3.5-6,5.15-9.09,3.25-6.2,6.38-12.6,9.22-19A221.6,221.6,0,0,0,156.3,144.7a185.11,185.11,0,0,0,4.92-41.24A118.86,118.86,0,0,0,159.48,83a77.08,77.08,0,0,0-6-19.19c-.66-1.54-1.5-3-2.29-4.41-.37-.74-.86-1.41-1.3-2.11s-.88-1.4-1.36-2.07l-1.49-2-.75-1-.82-.92-1.63-1.84c-.58-.58-1.18-1.13-1.77-1.71-1.15-1.19-2.45-2.15-3.69-3.2a32.7,32.7,0,0,0-4-2.64A28.64,28.64,0,0,0,107,41.43a37.51,37.51,0,0,0-8.23,5.47,32,32,0,0,0-3.47,3.5c-1,1.22-2.07,2.72-3.09,4.14-2.07,2.9-4.17,5.9-6.61,8.69a37.79,37.79,0,0,1-8.39,7.43A23.4,23.4,0,0,1,66.5,74.21a27.71,27.71,0,0,1-10.85-1.64l.27-.92a31.8,31.8,0,0,0,5.2.73,25.43,25.43,0,0,0,5.14-.29,21.1,21.1,0,0,0,9.14-4,34.25,34.25,0,0,0,7-7.37c2-2.79,3.85-5.77,5.71-8.84,1-1.55,1.84-3.05,3-4.68a37.39,37.39,0,0,1,3.76-4.4A42.67,42.67,0,0,1,104,35.82a38.43,38.43,0,0,1,10.92-4.15,33.63,33.63,0,0,1,11.9-.38,37.46,37.46,0,0,1,11.35,3.61,41,41,0,0,1,5.09,3,50.48,50.48,0,0,1,4.57,3.61c.72.65,1.45,1.28,2.15,1.94l2,2.1,1,1.05.92,1.12L155.75,50c.58.76,1.11,1.57,1.67,2.35s1.13,1.56,1.59,2.4c1,1.65,2,3.28,2.82,5a81.85,81.85,0,0,1,7.33,21.42,120.24,120.24,0,0,1,2.27,22.2A172.89,172.89,0,0,1,166,147a221.09,221.09,0,0,1-14.69,41.18c-1.56,3.32-3.17,6.52-4.84,9.74s-3.38,6.41-5.18,9.57-3.68,6.3-5.72,9.38a70.42,70.42,0,0,1-6.87,9,24.84,24.84,0,0,1-4.77,4.17,7.48,7.48,0,0,1-.82.47c-.3.15-.56.3-.89.44s-.71.26-1.07.38a8.06,8.06,0,0,1-1.28.25,5.91,5.91,0,0,1-1.49,0,5.63,5.63,0,0,1-1.6-.41,5.92,5.92,0,0,1-1.43-.84,7.25,7.25,0,0,1-1.06-1.06,9,9,0,0,1-1.66-4,16.89,16.89,0,0,1-.24-3.36,25.38,25.38,0,0,1,.29-3.09q.11-.76.27-1.49l.27-1.29a51.64,51.64,0,0,0,.91-10,43,43,0,0,0-1.09-10,21.86,21.86,0,0,0-1.62-4.5,11.28,11.28,0,0,0-2.63-3.57,7.83,7.83,0,0,0-3.72-1.94l-.53-.14c-.18,0-.37,0-.56,0l-1.12-.09c-.38,0-.77.05-1.16.07a6.94,6.94,0,0,0-1.17.12l-1.18.24a6.83,6.83,0,0,0-1.19.3c-.78.27-1.59.47-2.36.8l-2.34,1-2.28,1.21c-.77.38-1.49.88-2.23,1.34s-1.49.9-2.19,1.42c-1.41,1-2.88,2-4.24,3.11-5.61,4.28-10.57,9.3-15.79,14.27s-10.54,9.76-16.24,14.23a80.9,80.9,0,0,1-9,6.26,31.57,31.57,0,0,1-5.15,2.42,11.59,11.59,0,0,1-6.3.67l-.89-.25a7.49,7.49,0,0,1-2.41-1.55,8.38,8.38,0,0,1-1.83-3,17.11,17.11,0,0,1-.82-6.08A47.07,47.07,0,0,1,26,211.14a103.45,103.45,0,0,0,3.34-20.53,118.38,118.38,0,0,0-.44-20.71,120.6,120.6,0,0,0-4.08-20.2l-1.53-4.92L21.45,140l-.92-2.41-1.06-2.35c-.71-1.56-1.4-3.15-2.13-4.7l-2.45-4.55-1.22-2.28-1.35-2.4q-2.71-4.8-5-9.86a94.66,94.66,0,0,1-4-10.4A71.78,71.78,0,0,1,.66,90,46.15,46.15,0,0,1,.18,78.48a32.17,32.17,0,0,1,1.13-5.9,26,26,0,0,1,1-2.9c.19-.48.45-.94.68-1.41a10.71,10.71,0,0,1,.77-1.37A18.22,18.22,0,0,1,13.51,59a24.5,24.5,0,0,1,11.91-.74c1,.11,1.88.38,2.82.57l2.57.58,2.53.56,2.56.42c1.7.34,3.43.41,5.15.6.86.06,1.72.06,2.59.09l1.3,0L46.23,61A42.76,42.76,0,0,0,56.5,59.59c.83-.25,1.66-.5,2.49-.77s1.65-.58,2.43-.95A24.15,24.15,0,0,0,66,55.35Z"/><path class="cls-2" d="M235.83,133.93c-7,0-11.28-1.79-15-4.81v3.58H203.5v-83h17.33v27.1c3.71-3.16,8-4.81,15-4.81,18.44,0,25.73,12.38,25.73,29.85C261.55,125,251.93,133.93,235.83,133.93ZM232.39,87c-5.09,0-9.08,2.06-11.56,6.19v19.67a12.77,12.77,0,0,0,11.28,6.33c10.32,0,12-6.06,12-17.34C244.08,92.8,241.88,87,232.39,87Z"/><path class="cls-2" d="M285.9,65.83H268.57v-16H285.9Zm0,66.86H268.57V73.54H285.9Z"/><path class="cls-2" d="M321.8,133.93c-21.19,0-28.89-12.93-28.89-31s7.84-31,28.75-31,29.17,13.07,29.17,31S342.85,133.93,321.8,133.93Zm-.14-47.19c-9.91,0-11.42,6.88-11.42,16.24s1.51,16.23,11.42,16.23,11.69-6.88,11.69-16.23S331.71,86.74,321.67,86.74Z"/><path class="cls-1" d="M414.52,132.69H397.05v-3.58c-3.72,3-7.84,4.81-14.86,4.81-16.23,0-25.73-8.94-25.73-32.05,0-17.47,7.29-29.71,25.73-29.71,6.88,0,11.14,1.65,14.86,4.68V49.74h17.47ZM397.05,93.21C394.57,89.08,390.58,87,385.5,87,376,87,373.8,92.8,373.8,101.87c0,11.28,1.65,17.34,12,17.34a12.77,12.77,0,0,0,11.28-6.33Z"/><path class="cls-1" d="M479.45,109.31H438.73c.69,6.47,5.5,10.46,12.93,10.46a23.63,23.63,0,0,0,16-5.78L477,123.2c-6.6,8.53-16.37,10.87-24.9,10.87-22.15,0-30.54-11.42-30.54-31.09,0-17.89,7.84-31,28.89-31,21.74,0,29,13.62,29,31.5ZM461.84,96.37c-1.24-6.05-3.85-9.77-11.42-9.77s-9.9,4.13-11.28,9.77Z"/><path class="cls-1" d="M544,132.69H526.5V99.13c0-9.22-4.4-12.11-11.83-12.11-4.13,0-8.8,1.65-11.28,4.54v41.14H486.05V73.54h17.33V76.7c4.27-3.3,9.76-4.68,15.27-4.68C538.19,72,544,82.34,544,98.71Z"/><path class="cls-1" d="M580.28,133.93c-10.73,0-20.22-3.3-28.62-12.38l9.36-8.94c6.19,4.4,10.59,6.47,16.51,6.47a25.75,25.75,0,0,0,7.29-.69c1.79-.69,2.89-1.65,2.89-3.57,0-4.4-3.71-4.13-6.47-4.68A99.37,99.37,0,0,1,570,108.34c-8-1.65-16.1-5.78-16.1-17.19,0-15,12.93-19.12,25.45-19.12a35.3,35.3,0,0,1,24.63,9.36l-9.49,9.21c-5.37-3-9.36-4.54-14.17-4.54-4.54,0-9.08,0-9.08,4.26,0,5,8.25,4,15.41,5.64,8.67,1.92,18.43,4.81,18.43,18.16C605,128.29,593.08,133.93,580.28,133.93Z"/><path class="cls-1" d="M679.94,123.43c-6.57,7.3-14,9.45-22.29,9.45-22.09,0-27.84-13.87-27.84-31.85s5.85-31.84,27.84-31.84c8.22,0,15.72,2.05,22.29,9.35l-8.12,7.71c-5.65-4.11-8.53-5.34-14.18-5.34-13.36,0-14.8,8.43-14.8,20.14s1.44,20.14,14.8,20.14c5.65,0,8.53-1.34,14.18-5.45Z"/><path class="cls-1" d="M717.26,131.24H709l-2.62-3.34a18.1,18.1,0,0,1-11,3.86c-6.54,0-12.36-4.71-12.36-11.25,0-5.29,3.4-8.83,7.32-11.44a4.86,4.86,0,0,1-.59-.52c-1.9-2-3.6-4.39-3.79-7.33l-.06-.85c-.46-5.82,5-9.16,10.27-9.16,5.56,0,10.27,3.53,10.27,9.29,0,4.65-3.14,7.85-6.61,10.07l6.93,8.11a18.41,18.41,0,0,0,3.21-7.2l6.15,1.5a25.29,25.29,0,0,1-5.36,10.6Zm-23-17.53c-2.62,1.76-4.91,3.92-4.91,6.8s2.74,5.23,6,5.23a11.34,11.34,0,0,0,7-2.55Zm1.9-16.42c-2.42,0-4,1-4,3.14,0,1.31,2,4.38,3.4,5.56,2.42-1.44,4.51-3.27,4.51-5.56C700.12,98.41,698.55,97.3,696.2,97.3Z"/><path class="cls-1" d="M761,132H724V70H737v50h24Z"/><path class="cls-3" d="M218.82,175.33v-2.1c-1.59,2-3.83,2.52-6.25,2.52-3.83,0-7.14-2-7.14-6.11,0-4.48,3.22-5.88,7.19-5.88h6.21v-.24c0-4.52-2.1-5.64-6.35-5.64a7.37,7.37,0,0,0-4.53,1.21l-1.35-1.4c1.87-1.92,4.2-2.38,6.77-2.38,5.55,0,8.31,2.71,8.31,8.26v11.76Zm0-4.86v-4.06H213.5c-2.38,0-5.23,0-5.23,3.17s2.85,3.5,5.23,3.5C215.55,173.09,217.79,172.39,218.82,170.47Z"/><path class="cls-3" d="M237.08,174.58a5.21,5.21,0,0,1-3.5,1.17c-5.41,0-5.27-4.9-5.27-8.91v-8.44h-3.13v-2.62h3.13v-5.23h2.85v5.23h6v2.62h-6l0,10.68c0,2.19,0,4.3,2.85,4.3a5.46,5.46,0,0,0,2-.42Z"/><path class="cls-3" d="M243,166.46c.09,3.88,1.26,6.86,5.69,6.86,1.54,0,4.06-.28,5.23-1.35l1.31,1.45c-1.17,1.82-4.25,2.43-6.25,2.43-6.86,0-8.82-4-8.82-10.26,0-5.6,1.77-10.22,8.17-10.22s8.21,4.57,8.17,10.13l0,1Zm.09-2.66h10.45c-.23-3.31-1.54-5.84-5.23-5.84S243.34,160.49,243.1,163.8Z"/><path class="cls-3" d="M277.09,175.33h-2.85v-9.06c0-4.53.51-8.26-5.37-8.26a6.16,6.16,0,0,0-5.23,2.8v14.51H260.8V155.77h2.85v2.15c1-1.82,3.69-2.61,5.69-2.61,5.74,0,7.75,3.41,7.75,8.73Z"/><path class="cls-3" d="M292.5,174.58a5.21,5.21,0,0,1-3.5,1.17c-5.41,0-5.27-4.9-5.27-8.91v-8.44H280.6v-2.62h3.13v-5.23h2.85v5.23h6v2.62h-6l0,10.68c0,2.19,0,4.3,2.85,4.3a5.46,5.46,0,0,0,2-.42Z"/><path class="cls-3" d="M311.92,165.53c0,5.6-1.77,10.27-8.17,10.27s-8.17-4.66-8.17-10.27,1.77-10.22,8.17-10.22S311.92,159.93,311.92,165.53Zm-8.17-7.65c-4.66,0-5.32,3.87-5.32,7.65s.65,7.66,5.32,7.66,5.27-3.88,5.27-7.66S308.37,157.88,303.75,157.88Z"/><path class="cls-3" d="M327.38,169.82c0-5.6-11.2-.61-11.2-8.77,0-4.39,3-5.74,7-5.74a8.43,8.43,0,0,1,6.35,2.43l-1.35,1.45a7.76,7.76,0,0,0-4.62-1.45c-2.24,0-4.48.47-4.48,3.17,0,5.41,11.2.42,11.2,8.82,0,4.15-2.85,6.06-6.72,6.06-2.94,0-5.74-.84-7.61-3.17l1.31-1.45a8,8,0,0,0,5.32,2C324.9,173.14,327.38,172.81,327.38,169.82Z"/><path class="cls-3" d="M357.63,175.33v-2.1c-1.59,2-3.83,2.52-6.25,2.52-3.83,0-7.14-2-7.14-6.11,0-4.48,3.22-5.88,7.19-5.88h6.21v-.24c0-4.52-2.1-5.64-6.35-5.64a7.37,7.37,0,0,0-4.53,1.21l-1.35-1.4c1.87-1.92,4.2-2.38,6.77-2.38,5.55,0,8.31,2.71,8.31,8.26v11.76Zm0-4.86v-4.06h-5.32c-2.38,0-5.23,0-5.23,3.17s2.85,3.5,5.23,3.5C354.36,173.09,356.6,172.39,357.63,170.47Z"/><path class="cls-3" d="M375.43,165.53v-9.75h2.85v9.75c0,3.92.7,7.66,5.51,7.66a6.79,6.79,0,0,0,5.13-2.75V155.77h2.85v19.56h-2.85v-2.19a7,7,0,0,1-5.6,2.61C377.11,175.75,375.43,170.85,375.43,165.53Z"/><path class="cls-3" d="M413.66,175.33h-2.85v-9.06c0-4.53.51-8.26-5.37-8.26a6.16,6.16,0,0,0-5.23,2.8v14.51h-2.85V155.77h2.85v2.15c1-1.82,3.69-2.61,5.69-2.61,5.74,0,7.75,3.41,7.75,8.73Z"/><path class="cls-3" d="M440.69,171.87l1.31,1.45c-1.07,1.72-4.06,2.43-6,2.43-6.21,0-7.89-4.9-7.89-10.22s1.68-10.22,7.89-10.22c1.91,0,4.9.7,6,2.38l-1.31,1.45a6.31,6.31,0,0,0-4-1.26c-5,0-5.74,3.45-5.74,7.65s.75,7.66,5.74,7.66A6.06,6.06,0,0,0,440.69,171.87Z"/><path class="cls-3" d="M461.37,165.53c0,5.6-1.77,10.27-8.17,10.27S445,171.13,445,165.53s1.77-10.22,8.17-10.22S461.37,159.93,461.37,165.53Zm-8.17-7.65c-4.66,0-5.32,3.87-5.32,7.65s.65,7.66,5.32,7.66,5.27-3.88,5.27-7.66S457.83,157.88,453.21,157.88Z"/><path class="cls-3" d="M495.68,175.33h-2.85V164.08c0-4-1-6.06-5.37-6.06a5.79,5.79,0,0,0-5.13,2.8v14.51h-2.85V164.08c0-4-1-6.06-5.36-6.06a6.82,6.82,0,0,0-5.46,2.8v14.51h-2.85V155.77h2.85v2.15c1.16-1.86,4-2.61,6.07-2.61,2.33,0,5.41.93,6.63,3.13,1.12-2.1,4.25-3.13,6.53-3.13,5.74,0,7.79,3.45,7.79,8.77Z"/><path class="cls-3" d="M501.07,183.68V155.82h2.85v2.1c1.12-1.72,3.59-2.61,5.6-2.61,6.21,0,7.89,4.9,7.89,10.22s-1.68,10.22-7.89,10.22c-2,0-4.48-.89-5.6-2.61v10.55Zm8-25.81a6.85,6.85,0,0,0-5.13,2.75v9.8a6.85,6.85,0,0,0,5.13,2.75c4.81,0,5.51-3.69,5.51-7.66S513.85,157.88,509,157.88Z"/><path class="cls-3" d="M532.81,159a4.83,4.83,0,0,0-3.12-1.21c-2.24,0-3.64,1.12-5,2.8v14.7h-2.85V155.77h2.85v2.15a6,6,0,0,1,5-2.61,6.49,6.49,0,0,1,5,1.77Z"/><path class="cls-3" d="M552.93,165.53c0,5.6-1.77,10.27-8.17,10.27s-8.17-4.66-8.17-10.27,1.77-10.22,8.17-10.22S552.93,159.93,552.93,165.53Zm-8.17-7.65c-4.66,0-5.32,3.87-5.32,7.65s.65,7.66,5.32,7.66,5.28-3.88,5.28-7.66S549.39,157.88,544.76,157.88Z"/><path class="cls-3" d="M587.24,175.33h-2.85V164.08c0-4-1-6.06-5.37-6.06a5.8,5.8,0,0,0-5.13,2.8v14.51H571V164.08c0-4-1-6.06-5.37-6.06a6.82,6.82,0,0,0-5.46,2.8v14.51h-2.85V155.77h2.85v2.15c1.16-1.86,4-2.61,6.06-2.61,2.33,0,5.41.93,6.63,3.13,1.12-2.1,4.25-3.13,6.53-3.13,5.74,0,7.79,3.45,7.79,8.77Z"/><path class="cls-3" d="M595.47,147.24v3.31h-2.85v-3.31Zm-2.85,8.54h2.85v19.56h-2.85Z"/><path class="cls-3" d="M611.62,169.82c0-5.6-11.2-.61-11.2-8.77,0-4.39,3-5.74,7-5.74a8.43,8.43,0,0,1,6.35,2.43l-1.35,1.45a7.75,7.75,0,0,0-4.62-1.45c-2.24,0-4.48.47-4.48,3.17,0,5.41,11.2.42,11.2,8.82,0,4.15-2.85,6.06-6.72,6.06-2.94,0-5.74-.84-7.61-3.17l1.31-1.45a8,8,0,0,0,5.32,2C609.15,173.14,611.62,172.81,611.62,169.82Z"/><path class="cls-3" d="M634.54,165.53c0,5.6-1.77,10.27-8.17,10.27s-8.17-4.66-8.17-10.27,1.77-10.22,8.17-10.22S634.54,159.93,634.54,165.53Zm-8.17-7.65c-4.66,0-5.32,3.87-5.32,7.65s.66,7.66,5.32,7.66,5.27-3.88,5.27-7.66S631,157.88,626.38,157.88Z"/><path class="cls-3" d="M664.89,147.24v28.09H662v-2.24c-1.12,1.77-3.59,2.66-5.6,2.66-6.21,0-7.89-4.9-7.89-10.22s1.68-10.22,7.89-10.22c2,0,4.48.89,5.6,2.61V147.24Zm-8,25.94a6.86,6.86,0,0,0,5.13-2.75v-9.8a6.86,6.86,0,0,0-5.13-2.75c-4.81,0-5.51,3.69-5.51,7.65S652.11,173.18,656.91,173.18Z"/><path class="cls-3" d="M672.18,166.46c.1,3.88,1.26,6.86,5.69,6.86,1.54,0,4.06-.28,5.23-1.35l1.31,1.45c-1.17,1.82-4.25,2.43-6.26,2.43-6.86,0-8.82-4-8.82-10.26,0-5.6,1.77-10.22,8.17-10.22s8.21,4.57,8.17,10.13l0,1Zm.1-2.66h10.45c-.23-3.31-1.54-5.84-5.23-5.84S672.51,160.49,672.28,163.8Z"/><path class="cls-3" d="M706.26,175.33h-2.85v-9.06c0-4.53.52-8.26-5.37-8.26a6.16,6.16,0,0,0-5.23,2.8v14.51H690V155.77h2.85v2.15c1-1.82,3.69-2.61,5.69-2.61,5.74,0,7.75,3.41,7.75,8.73Z"/><path class="cls-3" d="M721.67,174.58a5.21,5.21,0,0,1-3.5,1.17c-5.41,0-5.28-4.9-5.28-8.91v-8.44h-3.12v-2.62h3.12v-5.23h2.85v5.23h6v2.62h-6l0,10.68c0,2.19,0,4.3,2.85,4.3a5.46,5.46,0,0,0,2-.42Z"/><path class="cls-3" d="M738.62,175.33v-2.1c-1.59,2-3.83,2.52-6.25,2.52-3.83,0-7.14-2-7.14-6.11,0-4.48,3.22-5.88,7.19-5.88h6.21v-.24c0-4.52-2.1-5.64-6.35-5.64a7.37,7.37,0,0,0-4.52,1.21l-1.35-1.4c1.86-1.92,4.2-2.38,6.77-2.38,5.55,0,8.31,2.71,8.31,8.26v11.76Zm0-4.86v-4.06H733.3c-2.38,0-5.23,0-5.23,3.17s2.85,3.5,5.23,3.5C735.35,173.09,737.59,172.39,738.62,170.47Z"/><path class="cls-3" d="M747.08,147.24h2.85v28.09h-2.85Z"/></svg>