<svg id="Layer_1" data-name="Layer 1" xmlns="http://www.w3.org/2000/svg" xmlns:xlink="http://www.w3.org/1999/xlink" viewBox="0 0 48 36"><defs><style>.cls-1{fill:none;}.cls-2{clip-path:url(#clip-path);}.cls-3{fill:#fff;}</style><clipPath id="clip-path" transform="translate(0 -1)"><rect class="cls-1" width="48" height="38"/></clipPath></defs><title>dentadura</title><g class="cls-2"><path class="cls-3" d="M46.4,29A6.46,6.46,0,0,1,40,35.4H8.05A6.46,6.46,0,0,1,1.6,29V21.62c0,.18.08.35.12.52s.14.61.21.91c.13.53.26,1.05.4,1.56,1.23,4.6,5.39,5.19,8.88,5.19,6,0,8-.28,9.74-6.11.12-.39.22-.79.32-1.21,0,0,0-.08,0-.13.1-.43.19-.88.28-1.35l0,.11c.05.18.11.35.15.49a13.2,13.2,0,0,0,2,4.27c1.13,1.42,3.19,3,5.07,3.11h.39a7.08,7.08,0,0,0,.91-.07h0a16.47,16.47,0,0,0,2.8-.77,10.7,10.7,0,0,1,3.24-.76c.65,0,1.38.06,2.16.13s1.66.15,2.48.15H41a8.66,8.66,0,0,0,2-.23l.29-.08h0a3.06,3.06,0,0,0,.47-.2,3.16,3.16,0,0,0,.35-.22l.1-.07a6.67,6.67,0,0,0,2-2.88h0c.06-.15.13-.3.18-.45V29ZM5.84,4a19.18,19.18,0,0,1,6.6-1.39,8.37,8.37,0,0,1,5,1.46c1.94,1.39,3.37,5,3.36,6.69v.16c0,.09,0,.18,0,.27,0,.24-.09.48-.12.73s0,.36-.06.54,0,.35,0,.53,0,.45,0,.68V14A20.49,20.49,0,0,0,20.59,16c-.07,1-.17,1.9-.28,2.76l-.07.48a30,30,0,0,1-.57,3l0,.1c-.08.29-.15.58-.23.86-1.42,4.82-2.42,5-8.21,5-3.09,0-6.39-.48-7.33-4-.12-.47-.25-1-.37-1.45,0-.16-.08-.32-.11-.48-.09-.38-.18-.76-.26-1.15L3,20.72a70.05,70.05,0,0,1-1.43-10A6.66,6.66,0,0,1,5.84,4ZM23.27,8.86a5.83,5.83,0,0,1,4.24-2.75,13,13,0,0,1,2.27-.21A12.21,12.21,0,0,1,31.57,6a10.17,10.17,0,0,1,1.08.25c.42.1.85.21,1.24.27.66.32,5.27,2.72,5.27,6.43a.8.8,0,1,0,1.6,0c0-3.36-2.72-5.72-4.58-6.95L36.34,6c3-1,7,.15,8.6,2.61,1.81,2.67,1.69,7.2,1,10.54l0,.08,0,.22-.05.24A19.85,19.85,0,0,1,44.46,24h0a6.49,6.49,0,0,1-.36.64l0,.06a3.87,3.87,0,0,1-.36.48l-.08.08a2.78,2.78,0,0,1-.3.27l-.11.08a1.66,1.66,0,0,1-.4.2,12,12,0,0,1-4.28.1c-.82-.07-1.59-.13-2.32-.13a11.93,11.93,0,0,0-3.74.85,9.63,9.63,0,0,1-3.51.75C27.65,27.31,26,26,25,24.88a6.31,6.31,0,0,1-.56-.84,14.77,14.77,0,0,1-1.19-2.92c-.09-.28-.17-.56-.25-.85,0-.09-.06-.19-.08-.29s-.09-.34-.13-.52a25.37,25.37,0,0,1-.64-3.58c0-.42-.07-.84-.09-1.25a0,0,0,0,0,0,0,13.64,13.64,0,0,1,.28-3.45v0A7.7,7.7,0,0,1,23.27,8.86ZM47.46,19.6v-.06l0-.08c.77-3.66.86-8.68-1.22-11.77s-6.75-4.5-10.46-3.22a6.21,6.21,0,0,0-.7.3,1.37,1.37,0,0,1-.86.23,10.9,10.9,0,0,1-1.19-.26,11.91,11.91,0,0,0-1.26-.28,14.13,14.13,0,0,0-4.57.09A7.45,7.45,0,0,0,21.9,8l0,0a11.43,11.43,0,0,0-3.51-5.32C15.23.5,10.82.41,5.28,2.49A8.26,8.26,0,0,0,0,10.8a67.69,67.69,0,0,0,1.07,8.28A2.54,2.54,0,0,0,0,21.16V29a8.06,8.06,0,0,0,8.05,8H40a8.06,8.06,0,0,0,8-8v-7.8A2.55,2.55,0,0,0,47.46,19.6Z" transform="translate(0 -1)"/></g></svg>