<svg id="Layer_1" data-name="Layer 1" xmlns="http://www.w3.org/2000/svg" xmlns:xlink="http://www.w3.org/1999/xlink" viewBox="0 0 326 311.74"><defs><style>.cls-1{fill:none;}.cls-2{clip-path:url(#clip-path);}.cls-3{fill:#fff;}</style><clipPath id="clip-path" transform="translate(0 -0.26)"><rect class="cls-1" x="0.06" y="0.26" width="326.94" height="312"/></clipPath></defs><title>diente</title><g class="cls-2"><path class="cls-3" d="M229.44,55.28c-.2,0-20.68-1-39.31-5.93-8.41-2.22-18.34-6.7-18.34-8s10.79-7.58,13.4-9c14.33-7.91,34-18.74,50.36-18.74,48.29,0,77.14,42.09,77.14,82.78,0,32.5-12.8,82.2-33.42,129.7-9.17,21.13-19.21,40-28.28,53.26-10.47,15.25-17.24,19.69-19.29,19.28-1.26-.25-1.41-1.14-2.39-3.89-3.62-10.17-6.93-22.29-10.44-35.12-5.55-20.33-11.29-41.35-19.14-57.8-9.84-20.61-21.65-30.63-36.1-30.63h-1.25c-13.92,0-25.45,9.94-35.26,30.38-7.83,16.32-13.78,37.31-19.52,57.6-3.66,12.93-7.12,25.15-10.88,35.54-.83,2.29-1.09,3.79-2.62,4-1.2.18-6.32-.21-19.36-19C65.65,266.65,55.65,248,46.55,227.06,26,179.94,13.31,129.86,13.31,96.35c0-40.69,28.86-82.78,77.14-82.78,12.56,0,29,5.72,44.12,15.3,2.21,1.41,5.32,3.8,8.34,6.11,1.2.92,2.39,1.83,3.49,2.66a150.53,150.53,0,0,0,13.92,9.41,73.52,73.52,0,0,0,8.53,4.51,96.87,96.87,0,0,0,38.08,7.73,95.78,95.78,0,0,0,22.56-2.42s2-.53,2-1.06S229.44,55.28,229.44,55.28Zm71.62-25.67A86.78,86.78,0,0,0,235.55.26c-19.81,0-41.18,11.79-56.8,20.4-5.68,3.14-13.46,7.43-15.75,7.71-2.29-.28-10-4.55-15.69-7.69C131.73,12.06,110.41.26,90.45.26A86.79,86.79,0,0,0,24.94,29.61C8.85,47.62,0,71.32,0,96.35c0,35.75,12.84,86.6,34.35,136,9.57,22,19.75,41,29.45,54.94C75.34,303.93,85.25,312,94.09,312c3.92,0,11.1-1.66,15.13-12.8,3.91-10.83,7.44-23.25,11.17-36.44,9.88-34.89,22.18-78.3,42-78.3h1.25c8.8,0,16.68,7.54,24.09,23.05s12.92,35.8,18.32,55.59c3.57,13.08,6.94,25.43,10.73,36.07,3.95,11.07,11,12.73,14.93,12.73,8.79,0,18.69-8.2,30.26-25.06,9.68-14.1,19.88-33.29,29.52-55.49C313.1,181.53,326,131.06,326,96.35c0-25-8.86-48.73-24.94-66.74" transform="translate(0 -0.26)"/></g></svg>